<svg xmlns="http://www.w3.org/2000/svg" viewBox="0 0 231.83 669.11"><defs><style>.cls-1{fill:#d8ae8b;}.cls-2{fill:#5b5a5d;}.cls-3{fill:#fff;}.cls-4{fill:#999;}.cls-5{fill:#a9dff4;}</style></defs><g id="Camada_2" data-name="Camada 2"><g id="New_Person_Jump_Jack"><g id="Mov_Fechado_Jump_Jack"><g id="Perna_Direita"><circle class="cls-1" cx="96.57" cy="615.38" r="11"/><path class="cls-1" d="M107.57,615.38h-22c1-23.8.38-46.16-3-66h25Z"/><ellipse class="cls-1" cx="95.07" cy="549.38" rx="12.5" ry="11"/><path class="cls-2" d="M79.57,549.38h30l1-13s1-10.14,1-15.07a124.23,124.23,0,0,0-1.13-13.06l-1.87-36.87h-30l1.26,52.25s-.09,7.23-.16,13.75C79.62,542.06,79.57,549.38,79.57,549.38Z"/><circle class="cls-2" cx="93.57" cy="471.38" r="15"/><polygon class="cls-2" points="78.57 471.38 108.57 471.38 114.57 358.88 65.57 358.88 78.57 471.38"/><circle class="cls-2" cx="90.07" cy="358.88" r="24.5"/><g id="Tenis_Dir"><polygon id="Sola" class="cls-3" points="78.05 655.9 80.56 661.57 81.61 662.38 85.57 664.38 91.5 665.05 93.62 664.5 95.88 663.57 98.56 663.11 100.27 663.39 101.53 664.16 103.57 665.55 106.06 665.55 108.41 664.73 112.05 663.01 112.57 662.82 112.85 661.57 112.85 664.16 111.83 664.94 109.67 666.49 108.33 667.3 105.64 668.05 102.7 668.57 100.71 668.9 98.56 668.9 94.6 668.57 92.07 668.36 88.65 667.72 85.57 667.23 82.7 665.89 80.07 664.16 78.63 659.74 78.05 655.9"/><polygon id="Corpo" points="84.89 618.93 86.05 620.34 87.57 621.24 89.96 621.93 93.95 620.12 101.53 620.09 105.64 620.91 107.81 620.91 107.81 619.58 110.58 623.89 111.2 627.75 112.57 632.4 113.8 639.95 114.16 647.38 113.8 652.87 113.55 658.38 112.57 662.82 109.38 664.4 106.06 665.55 103.57 665.55 102.54 664.9 101.53 664.16 100.27 663.39 98.56 663.11 95.88 663.57 93.62 664.5 91.96 664.94 90.06 665.27 87.57 664.98 84.89 664.4 82.57 663.54 80.94 662.19 79.99 660.37 79.09 658.4 78.5 656.84 78.05 655.9 78.05 654.39 78.05 651.53 81.21 632.94 81.49 631.31 82.21 626.35 83.33 621.88 84.89 618.93"/><polygon id="Lateral_Inf_Dir" class="cls-3" points="86.6 629.44 88.27 630.15 88.57 631.31 86.05 632.64 82.57 634.86 80.74 635.73 81.21 632.94 86.6 629.44"/><polygon id="Lateral_Sup_Dir" class="cls-3" points="85.57 635.67 87.24 636.38 87.54 637.54 85.02 638.87 81.54 641.09 79.71 641.96 80.18 639.17 85.57 635.67"/><polygon id="Lateral_Inf_Esq" class="cls-3" points="108.19 635.79 106.52 636.5 106.22 637.66 108.74 638.99 112.22 641.2 114.05 642.07 113.58 639.29 108.19 635.79"/><polygon id="Lateral_Sup_Esq" class="cls-3" points="107.16 629.56 105.49 630.27 105.19 631.43 107.71 632.76 111.19 634.97 113.02 635.84 112.55 633.06 107.16 629.56"/><polygon class="cls-4" points="89.96 621.93 90.57 625.38 91.33 628.38 91.81 632.84 91.81 636.42 91.81 639.42 91.81 641.96 92.44 644.22 93.21 645.88 95.07 646.4 97.53 646.62 99.42 645.88 100.71 644.52 101.04 641.96 101.53 638.76 101.57 635.45 101.57 631.42 101.72 627.32 102.54 625.17 103.01 622.85 103.57 621.11 101.53 620.09 97.53 620.09 93.95 620.12 89.96 621.93"/><g id="Cadarço"><polygon class="cls-3" points="91.33 628.38 93.76 627.47 95.88 627.06 97.93 627.06 99 627.32 100.64 627.72 101.72 628.55 101.72 630.45 99.64 629.64 97.61 629.44 96.1 629.44 94.6 629.38 93.21 629.38 92.07 629.89 91.51 630.07 91.33 628.38"/><polygon class="cls-3" points="91.81 632.84 93.57 632.38 95.45 632.18 96.83 632.18 98.5 632.4 99.61 632.91 100.71 633.36 101.57 634.14 101.57 635.45 100.34 634.81 99.17 634.6 97.53 634.14 96.04 634.14 94.33 634.43 93.1 634.6 91.81 635.16 91.81 632.84"/><polygon class="cls-3" points="91.81 639.42 93.07 638.94 94.81 638.36 96.1 638.36 97.38 638.36 98.5 638.76 99.57 639.42 100.57 639.95 101.26 640.56 101.12 641.43 99.26 640.75 97.61 640.29 96.52 639.97 95.52 639.97 94.81 639.97 93.74 640.29 92.69 640.55 92.07 640.83 91.81 641.07 91.81 639.42"/></g></g></g><g id="Perna_Esquerda"><circle class="cls-1" cx="133.37" cy="615.1" r="11"/><path class="cls-1" d="M122.37,615.1h22c-1-23.81-.38-46.17,3-66h-25Z"/><ellipse class="cls-1" cx="134.87" cy="549.1" rx="12.5" ry="11"/><path class="cls-2" d="M150.37,549.1h-30l-1-13s-1-10.14-1-15.07A124.53,124.53,0,0,1,119.5,508l1.87-36.86h30l-1.26,52.25s.09,7.23.16,13.75C150.32,541.77,150.37,549.1,150.37,549.1Z"/><circle class="cls-2" cx="136.37" cy="471.1" r="15"/><polygon class="cls-2" points="151.37 471.1 121.37 471.1 115.37 358.6 164.37 358.6 151.37 471.1"/><circle class="cls-2" cx="139.87" cy="358.6" r="24.5"/><g id="Tenis_Esq"><polygon id="Sola-2" data-name="Sola" class="cls-3" points="151.45 656.11 148.94 661.78 147.9 662.59 143.93 664.59 138 665.26 135.89 664.72 133.63 663.79 130.95 663.33 129.24 663.6 127.97 664.37 125.94 665.76 123.45 665.76 121.09 664.94 117.45 663.22 116.93 663.04 116.66 661.78 116.66 664.37 117.67 665.15 119.83 666.71 121.17 667.51 123.86 668.26 126.8 668.79 128.8 669.11 130.95 669.11 134.91 668.79 137.43 668.58 140.85 667.94 143.93 667.45 146.8 666.1 149.43 664.37 150.87 659.96 151.45 656.11"/><polygon id="Corpo-2" data-name="Corpo" points="144.62 619.14 143.46 620.55 141.93 621.45 139.55 622.15 135.56 620.33 127.97 620.31 123.86 621.12 121.69 621.12 121.69 619.79 118.92 624.1 118.31 627.97 116.93 632.62 115.7 640.16 115.35 647.6 115.7 653.08 115.95 658.59 116.93 663.04 120.13 664.61 123.45 665.76 125.94 665.76 126.97 665.11 127.97 664.37 129.24 663.6 130.95 663.33 133.63 663.79 135.89 664.72 137.54 665.15 139.44 665.49 141.93 665.19 144.62 664.61 146.93 663.76 148.56 662.4 149.51 660.58 150.41 658.61 151.01 657.05 151.45 656.11 151.46 654.6 151.46 651.75 148.29 633.15 148.02 631.53 147.3 626.56 146.17 622.1 144.62 619.14"/><polygon id="Lateral_Inf_Dir-2" data-name="Lateral_Inf_Dir" class="cls-3" points="142.91 629.66 141.23 630.37 140.94 631.53 143.46 632.85 146.93 635.07 148.77 635.94 148.29 633.15 142.91 629.66"/><polygon id="Lateral_Sup_Dir-2" data-name="Lateral_Sup_Dir" class="cls-3" points="143.94 635.89 142.26 636.6 141.97 637.76 144.48 639.08 147.96 641.3 149.8 642.17 149.32 639.38 143.94 635.89"/><polygon id="Lateral_Inf_Esq-2" data-name="Lateral_Inf_Esq" class="cls-3" points="121.31 636 122.99 636.71 123.28 637.87 120.77 639.2 117.29 641.42 115.45 642.29 115.93 639.5 121.31 636"/><polygon id="Lateral_Sup_Esq-2" data-name="Lateral_Sup_Esq" class="cls-3" points="122.34 629.77 124.02 630.48 124.31 631.64 121.8 632.97 118.32 635.19 116.48 636.06 116.96 633.27 122.34 629.77"/><polygon class="cls-4" points="139.55 622.15 138.93 625.59 138.18 628.59 137.69 633.05 137.69 636.64 137.69 639.63 137.69 642.17 137.07 644.43 136.29 646.1 134.43 646.61 131.97 646.84 130.09 646.1 128.8 644.74 128.46 642.17 127.97 638.97 127.93 635.66 127.93 631.63 127.79 627.54 126.97 625.38 126.5 623.06 125.94 621.33 127.97 620.31 131.97 620.31 135.56 620.33 139.55 622.15"/><g id="Cadarço-2" data-name="Cadarço"><polygon class="cls-3" points="138.18 628.59 135.74 627.68 133.63 627.27 131.57 627.27 130.51 627.54 128.87 627.93 127.79 628.76 127.79 630.66 129.86 629.85 131.89 629.66 133.4 629.66 134.91 629.59 136.29 629.59 137.43 630.11 138 630.28 138.18 628.59"/><polygon class="cls-3" points="137.69 633.05 135.93 632.59 134.05 632.39 132.68 632.39 131 632.62 129.89 633.12 128.8 633.57 127.93 634.35 127.93 635.66 129.16 635.02 130.34 634.81 131.97 634.35 133.47 634.35 135.18 634.65 136.41 634.81 137.69 635.37 137.69 633.05"/><polygon class="cls-3" points="137.69 639.63 136.44 639.15 134.69 638.58 133.4 638.58 132.12 638.58 131 638.97 129.93 639.63 128.93 640.16 128.25 640.77 128.38 641.64 130.24 640.96 131.89 640.5 132.98 640.18 133.98 640.18 134.69 640.18 135.76 640.5 136.82 640.76 137.43 641.04 137.69 641.28 137.69 639.63"/></g></g></g><g id="Quadril"><path class="cls-2" d="M164.57,359.38h-99l2-33s6-37,7-41,79-4,81,0,7,39,7,39Z"/></g><g id="Tronco"><path class="cls-1" d="M155.57,285.38h-81a155.12,155.12,0,0,0,6-51.79c-1.3-23.12-7.33-49.59-8-70.69-.19-6.12-10.41-11.78-10-16.78,1-12.36-2-17.74,12-21.74a104.08,104.08,0,0,1,16.67-2.5,335.74,335.74,0,0,1,43.61-1c9.52.5,17.3,1.59,20.72,3.46,26.45,2.91,19.15,16.26,11,22-5.17,3.64-7.36,10.4-8,16.5-2.22,21.22-9.09,47.76-10,70.71A154.4,154.4,0,0,0,155.57,285.38Z"/></g><g id="Braço_Direito"><polygon class="cls-1" points="27.77 316.8 27.82 316.6 28.01 315.82 27.98 315.93 28.11 315.4 28.64 313.22 30.62 305.14 17.99 302.05 8.64 323.44 0.28 340 0 341.9 1.99 342.01 4.11 340.07 9.12 335.64 9.68 336.05 4.54 356.24 4.77 356.9 5.07 357.25 5.82 357.26 6.54 356.62 8.09 353.29 10.64 347.33 11.94 346.24 12.16 346.95 9.85 359.36 10.21 361.44 11 362.12 12.03 361.7 13.06 359.76 15.1 351.71 15.92 348.36 17.02 348.14 16.91 350.66 16.61 362.45 17.54 363.19 18.61 362.03 19.63 358.07 21.08 350.65 22.11 348.36 23.08 348.59 23.84 355.99 24.6 356.63 25.28 356.14 25.51 355.21 25.86 353.21 26.48 348.39 26.78 344.08 27.2 338.03 27.53 333.44 27.6 331.75 27.58 330.95 27.6 327.94 27.42 326.32 27.47 323.27 27.77 316.8"/><path class="cls-1" d="M25.71,297.76a6.5,6.5,0,1,0,3.6,10.29,6.61,6.61,0,0,0,1.17-2.43A6.51,6.51,0,0,0,25.71,297.76Z"/><path class="cls-1" d="M37.06,217.66C36.28,231.37,18,302.05,18,302.05l12.63,3.08s27.26-73.63,25.75-84.29S37.83,204,37.06,217.66Z"/><circle class="cls-1" cx="47.01" cy="219.07" r="9.5"/><path class="cls-1" d="M46.47,139.15c-1.9,7.78-9.56,72.82-9,79.12s18.93,2.57,18.93,2.57l19.26-74.56S48.37,131.38,46.47,139.15Z"/><circle class="cls-1" cx="61.04" cy="142.72" r="15"/></g><g id="Braço_Esquerdo"><polygon class="cls-1" points="204.06 316.58 204.01 316.38 203.82 315.61 203.85 315.71 203.72 315.18 203.18 313 201.21 304.92 213.84 301.83 223.19 323.22 231.54 339.78 231.83 341.68 229.84 341.8 227.72 339.85 222.71 335.42 222.15 335.83 227.29 356.02 227.06 356.68 226.76 357.03 226.01 357.04 225.28 356.4 223.74 353.07 221.18 347.12 219.89 346.02 219.67 346.73 221.98 359.14 221.62 361.21 220.83 361.9 219.8 361.48 218.77 359.54 216.73 351.49 215.91 348.13 214.81 347.92 214.92 350.44 215.22 362.23 214.29 362.96 213.22 361.81 212.2 357.85 210.75 350.43 209.72 348.13 208.75 348.37 207.98 355.77 207.23 356.41 206.55 355.92 206.32 355 205.97 353 205.35 348.17 205.05 343.86 204.63 337.81 204.3 333.22 204.23 331.53 204.25 330.73 204.23 327.72 204.41 326.1 204.36 323.05 204.06 316.58"/><path class="cls-1" d="M206.12,297.54a6.5,6.5,0,1,1-4.77,7.86A6.5,6.5,0,0,1,206.12,297.54Z"/><path class="cls-1" d="M194.77,217.44c.78,13.71,19.09,84.39,19.09,84.39l-12.63,3.08S174,231.28,175.47,220.62,194,203.74,194.77,217.44Z"/><circle class="cls-1" cx="184.82" cy="218.85" r="9.5"/><path class="cls-1" d="M185.36,138.93c1.9,7.78,9.56,72.82,9,79.12s-18.94,2.57-18.94,2.57l-19.25-74.56S183.46,131.16,185.36,138.93Z"/><circle class="cls-1" cx="170.79" cy="142.5" r="15"/></g><path id="Camisa" class="cls-5" d="M77.83,272.11l3-29.62-5.55-52.66-.67-65.45a77.17,77.17,0,0,1,15-2.37l3.17,25.23,11.83,10.14h19l10.93-10.14,6.57-25.94s13.5,1.08,14.5,3.08-.53,64.31-.53,64.31l-6.53,54L152,272.11Z"/><polygon id="Pescoço" class="cls-1" points="100.57 118.37 101.57 117.38 102.57 115.38 102.57 112.38 102.57 107.38 102.57 105.38 99.57 103.82 93.18 100.84 89.57 96.38 83.57 92.38 80.16 75.47 81.17 72.92 82.54 71.24 86.22 66.34 89.09 60.11 93.37 48.55 95.78 42.51 97.34 40.16 97.73 41.09 98.38 42.62 99.97 46.35 104.26 54.05 109.09 59.6 118.06 65.67 126.71 68.6 135.01 69.8 140.89 70.17 146.97 70.44 150.65 71.19 151.56 73.63 151.36 77.39 151.65 87.29 148.57 87.29 147.38 88.67 141.98 95.07 136.81 99.75 131.62 102.57 129.08 104.39 128.16 105.2 128.39 108.38 129.19 114.86 129.62 118.37 131.4 119.65 134.85 120.92 90.07 121.99 100.57 118.37"/><g id="Cabelo"><polygon points="95.08 102.51 96.87 118.75 97.15 119.04 97.83 119.31 100.2 118.37 101.57 116.38 102.25 114.36 102.57 112.38 102.57 108.93 102.57 105.38 96.25 102.27 95.08 102.51"/><polygon points="131.4 119.65 129.62 118.37 128.19 105.64 129.08 104.39 131.08 102.95 132.17 102.27 133.11 102.07 133.64 102.18 134.23 102.91 134.5 103.38 133.8 109.16 132.74 117.38 132.57 118.38 131.4 119.65"/><polygon points="151.65 87.29 151.56 73.63 150.65 71.19 148.72 70.56 144.89 70.34 137.55 69.96 129.63 69.02 126.71 68.6 122.37 67.13 118.06 65.67 113.52 62.6 109.09 59.6 104.26 54.05 99.97 46.35 97.73 41.09 97.34 40.16 95.78 42.51 93.37 48.55 89.09 60.11 86.22 66.34 82.54 71.24 81.17 72.92 80.16 75.47 83.57 92.38 82.73 92.2 81.76 91.66 80.16 89.78 75.59 83.47 73.85 80.55 71.36 75.39 69.68 70.54 68.59 66.87 67.65 61.39 67 56.09 66.77 51.71 66.96 46.44 67.28 43.53 67.69 39.34 68.33 33.79 69.37 28.45 70.27 25.5 70.98 23.68 72.31 21.17 73.21 19.86 74.18 18.49 75.03 17.66 76.57 16.38 78.57 15.38 80.16 14.32 81.21 13.55 82.57 13.38 83.57 13.38 84.69 13.38 85.57 13.38 86.7 13.04 87.52 12.52 89.05 11.04 89.81 10.01 90.37 9.12 90.92 8.18 91.7 7.26 93.1 6.17 94.57 5.36 95.75 4.89 98.57 3.99 101.07 3.3 102.23 3 104.01 2.51 105.68 2.12 106.88 1.81 108.03 1.52 109.21 1.2 110.61 0.83 112.31 0.48 113.95 0.24 115.59 0 117.2 0 118.97 0.01 120.07 0.06 121.68 0.18 123.3 0.35 124.66 0.55 126.67 0.89 127.98 1.14 129.57 1.38 131.12 1.89 133.49 2.51 134.68 3.03 136.3 3.65 137.77 4.3 139.11 4.94 140.43 5.64 141.54 6.27 142.95 7.15 144.32 7.87 144.84 8.46 146.2 9.5 147.35 10.46 148.32 11.3 149.26 12.17 150.15 13.05 151.25 14.2 152 15.04 152.95 16.17 154.11 17.68 155.03 18.98 155.68 19.97 156.27 20.93 156.79 21.83 157.38 22.93 157.82 23.81 158.13 24.46 158.59 25.48 158.92 26.26 159.37 27.41 159.89 28.88 160.28 30.11 160.56 31.11 160.81 32.05 160.95 32.69 161.08 34.89 161.19 37.06 161.25 38.46 161.35 40.51 161.44 42.26 161.6 45.71 161.75 48.78 161.87 51.3 161.97 53.51 162.05 55.22 162.13 56.96 162.18 58.21 162.18 59.76 162.32 61.48 162.42 63.92 162.53 65.66 162.53 66.75 162.53 67.75 161.57 69.38 160.57 71.38 159.53 73.63 158.81 75.51 158.03 77.19 158.05 77.68 157.09 79.61 155.43 82.74 154.45 84.55 153.78 85.82 153.57 86.38 151.65 87.29"/></g></g></g></g></svg>