<svg xmlns="http://www.w3.org/2000/svg" viewBox="0 0 331 180"><defs><style>.cls-1{fill:#009245;}.cls-2{opacity:0.69;}.cls-21,.cls-3,.cls-4{fill:#fff;}.cls-3,.cls-4,.cls-5,.cls-6{stroke:#fff;stroke-miterlimit:10;}.cls-3{stroke-width:4px;}.cls-4,.cls-6{stroke-width:2px;}.cls-5,.cls-6{fill:none;}.cls-5{stroke-width:0.5px;}.cls-7{fill:#fefefd;}.cls-8{fill:#fefefe;}.cls-9{fill:#fefefc;}.cls-10{fill:#f6f4f3;}.cls-11{fill:#f5f3f3;}.cls-12{fill:#f7f6f5;}.cls-13{fill:#f9f8f7;}.cls-14{fill:#f4f2f2;}.cls-15{fill:#f7f5f5;}.cls-16{fill:#f5f3f2;}.cls-17{fill:#faf8f7;}.cls-18{fill:#fcfbfa;}.cls-19{fill:#faf9f8;}.cls-20{fill:#f3f0f0;}.cls-22{fill:#fbfaf9;}.cls-23{fill:#f9f8f8;}.cls-24{fill:#f8f6f6;}.cls-25{fill:#f2f0ef;}.cls-26{fill:#5b5a5d;}.cls-27{fill:#b08c74;}.cls-28{fill:#a9dff4;}.cls-29{fill:#171b27;}.cls-30{fill:#181c28;}.cls-31{fill:#9a725e;}.cls-32{fill:#b38d77;}.cls-33{fill:#b38c74;}.cls-34{fill:#b08b75;}.cls-35{fill:#b28b75;}.cls-36{fill:#b28f7b;}.cls-37{fill:#ae8d7b;}.cls-38{fill:#9c7860;}.cls-39{fill:#ac8d78;}.cls-40{fill:#1d242e;}.cls-41{fill:#b69684;}.cls-42{fill:#b59383;}.cls-43{fill:#b6927f;}.cls-44{fill:#b3937f;}.cls-45{fill:#b58f7b;}.cls-46{fill:#dddad8;}.cls-47{fill:#ddd8d8;}.cls-48{fill:#dfdcdc;}.cls-49{fill:#dfdbda;}.cls-50{fill:#dddad9;}.cls-51{fill:#e0dbdb;}.cls-52{fill:#ded9d8;}.cls-53{fill:#dcd9d9;}.cls-54{fill:#dcd8d8;}.cls-55{fill:#fcfcfc;}.cls-56{fill:#b29e91;}.cls-57{fill:#b09582;}.cls-58{fill:#ddd9d9;}.cls-59{fill:#505053;}.cls-60{fill:#fdfefd;}.cls-61{fill:#a2897a;}.cls-62{fill:#b08d75;}.cls-63{fill:#9a765e;}.cls-64{fill:#99755d;}.cls-65{fill:#b28b73;}.cls-66{fill:#9b775f;}.cls-67{fill:#9c7661;}.cls-68{fill:#b28c76;}.cls-69{fill:#8e7063;}.cls-70{fill:#ae8a72;}.cls-71{fill:#8d7160;}.cls-72{fill:#b48f7c;}.cls-73{fill:#ad8971;}.cls-74{fill:#9b755e;}.cls-75{fill:#a98f86;}.cls-76{fill:#957262;}.cls-77{fill:#af896f;}.cls-78{fill:#b08c75;}.cls-79{fill:#161d27;}.cls-80{fill:#a98772;}.cls-81{fill:#191c27;}.cls-82{fill:#1e2026;}.cls-83{fill:#977f6f;}.cls-84{fill:#9a745c;}.cls-85{fill:#b18a77;}.cls-86{fill:#ae8871;}.cls-87{fill:#ad8871;}.cls-88{fill:#ad8870;}.cls-89{fill:#937f77;}.cls-90{fill:#ac8875;}.cls-91{fill:#9e7a62;}.cls-92{fill:#dcd9d7;}.cls-93{fill:#fcfcfa;}.cls-94{fill:#ded9d9;}.cls-95{fill:#d6d2d2;}.cls-96{fill:#ac8970;}.cls-97{fill:#ab8a75;}.cls-98{fill:#999;}</style></defs><g id="Camada_2" data-name="Camada 2"><g id="Card_template"><g id="Card_Jumping_Jack_Selected"><g id="A_Enviar"><g id="Fundo_card"><rect class="cls-1" width="331" height="180" rx="16"/><g id="Textura_esq" class="cls-2"><rect class="cls-3" x="20.59" y="10.59" width="2.83" height="2.83"/><polygon class="cls-4" points="38 6 39.76 6.57 40.85 8.07 40.85 9.93 39.76 11.43 38 12 36.24 11.43 35.15 9.93 35.15 8.07 36.24 6.57 38 6"/><polygon class="cls-4" points="51 13 51 16 54 16 51 16 51 19 51 16 48 16 51 16 51 13"/><polygon class="cls-5" points="12.63 24.35 10.13 29.35 15.13 29.35 12.63 24.35"/><polygon class="cls-5" points="34.63 27.35 36.4 27.92 37.49 29.42 37.49 31.28 36.4 32.78 34.63 33.35 32.87 32.78 31.78 31.28 31.78 29.42 32.87 27.92 34.63 27.35"/><rect class="cls-3" x="149.97" y="20.92" width="2.83" height="2.83"/><polygon class="cls-5" points="34.38 42.5 31.88 47.5 36.88 47.5 34.38 42.5"/><rect class="cls-3" x="70.35" y="7.04" width="2.83" height="2.83"/><polygon class="cls-5" points="80.76 16.46 82.52 17.03 83.61 18.53 83.61 20.39 82.52 21.89 80.76 22.46 79 21.89 77.91 20.39 77.91 18.53 79 17.03 80.76 16.46"/><polygon class="cls-5" points="27.76 54.46 29.52 55.03 30.61 56.53 30.61 58.38 29.52 59.88 27.76 60.46 26 59.88 24.91 58.38 24.91 56.53 26 55.03 27.76 54.46"/><polygon class="cls-4" points="13 39 13 42 16 42 13 42 13 45 13 42 10 42 13 42 13 39"/><polygon class="cls-5" points="72.76 28.11 70.26 33.11 75.26 33.11 72.76 28.11"/><polygon class="cls-4" points="97.76 13.46 97.76 16.46 100.76 16.46 97.76 16.46 97.76 19.46 97.76 16.46 94.76 16.46 97.76 16.46 97.76 13.46"/><rect class="cls-3" x="146.13" y="90.22" width="2.83" height="2.83"/><polygon class="cls-5" points="47.54 70.29 45.04 75.29 50.04 75.29 47.54 70.29"/><polygon class="cls-5" points="13.54 54.5 11.04 59.5 16.04 59.5 13.54 54.5"/><rect class="cls-5" x="26.04" y="87.14" width="5" height="5"/><polygon class="cls-4" points="34.54 75.64 34.54 78.64 37.54 78.64 34.54 78.64 34.54 81.64 34.54 78.64 31.54 78.64 34.54 78.64 34.54 75.64"/><polygon class="cls-4" points="89.76 142.46 91.52 143.03 92.61 144.53 92.61 146.38 91.52 147.88 89.76 148.46 88 147.88 86.91 146.38 86.91 144.53 88 143.03 89.76 142.46"/><polygon class="cls-6" points="43.56 57.93 41.83 60.93 45.3 60.93 43.56 57.93"/><rect class="cls-3" x="56.02" y="87.88" width="2.83" height="2.83"/><polygon class="cls-5" points="73.81 77.41 75.57 77.99 76.66 79.49 76.66 81.34 75.57 82.84 73.81 83.41 72.05 82.84 70.96 81.34 70.96 79.49 72.05 77.99 73.81 77.41"/><rect class="cls-5" x="30.5" y="64.5" width="5" height="5"/><polygon class="cls-6" points="13.57 128.78 11.84 131.78 15.3 131.78 13.57 128.78"/><polygon class="cls-4" points="110.07 19.28 111.83 19.86 112.92 21.36 112.92 23.21 111.83 24.71 110.07 25.28 108.31 24.71 107.22 23.21 107.22 21.36 108.31 19.86 110.07 19.28"/><polygon class="cls-4" points="53.33 122.74 53.33 125.74 56.33 125.74 53.33 125.74 53.33 128.74 53.33 125.74 50.33 125.74 53.33 125.74 53.33 122.74"/><polygon class="cls-5" points="18.7 139.63 16.2 144.63 21.2 144.63 18.7 139.63"/><rect class="cls-5" x="26.2" y="128.13" width="5" height="5"/><polygon class="cls-5" points="40.7 120.63 42.47 121.21 43.55 122.71 43.55 124.56 42.47 126.06 40.7 126.63 38.94 126.06 37.85 124.56 37.85 122.71 38.94 121.21 40.7 120.63"/><polygon class="cls-4" points="153.94 132.15 155.7 132.72 156.79 134.22 156.79 136.08 155.7 137.58 153.94 138.15 152.18 137.58 151.09 136.08 151.09 134.22 152.18 132.72 153.94 132.15"/><polygon class="cls-4" points="71 64 71 67 74 67 71 67 71 70 71 67 68 67 71 67 71 64"/><polygon class="cls-5" points="84.85 64.55 86.61 65.12 87.7 66.62 87.7 68.48 86.61 69.98 84.85 70.55 83.08 69.98 82 68.48 82 66.62 83.08 65.12 84.85 64.55"/><rect class="cls-5" x="105.5" y="65.5" width="5" height="5"/><polygon class="cls-4" points="13.09 101.65 14.85 102.22 15.94 103.72 15.94 105.58 14.85 107.08 13.09 107.65 11.32 107.08 10.23 105.58 10.23 103.72 11.32 102.22 13.09 101.65"/><polygon class="cls-5" points="43 95.05 44.76 95.63 45.85 97.13 45.85 98.98 44.76 100.48 43 101.05 41.23 100.48 40.15 98.98 40.15 97.13 41.23 95.63 43 95.05"/><rect class="cls-5" x="40.65" y="109" width="5" height="5"/><polygon class="cls-5" points="66.85 40.55 68.61 41.12 69.7 42.62 69.7 44.48 68.61 45.98 66.85 46.55 65.08 45.98 64 44.48 64 42.62 65.08 41.12 66.85 40.55"/><rect class="cls-5" x="92.5" y="40.5" width="5" height="5"/><polygon class="cls-5" points="55.02 51.5 52.52 56.5 57.52 56.5 55.02 51.5"/><rect class="cls-5" x="24.5" y="106.5" width="5" height="5"/><polygon class="cls-5" points="60.02 111.5 57.52 116.5 62.52 116.5 60.02 111.5"/><rect class="cls-5" x="97.83" y="98.24" width="5" height="5"/><polygon class="cls-5" points="106.64 83.95 108.4 84.52 109.49 86.02 109.49 87.88 108.4 89.38 106.64 89.95 104.88 89.38 103.79 87.88 103.79 86.02 104.88 84.52 106.64 83.95"/><rect class="cls-3" x="16.02" y="155.13" width="2.83" height="2.83"/><rect class="cls-5" x="131.68" y="88.27" width="5" height="5"/><rect class="cls-3" x="141.15" y="58.69" width="2.83" height="2.83"/><polygon class="cls-5" points="18.56 68.5 16.06 73.5 21.06 73.5 18.56 68.5"/><polygon class="cls-5" points="152.64 62.95 154.4 63.52 155.49 65.02 155.49 66.88 154.4 68.38 152.64 68.95 150.88 68.38 149.79 66.88 149.79 65.02 150.88 63.52 152.64 62.95"/><rect class="cls-3" x="104.02" y="157.13" width="2.83" height="2.83"/><rect class="cls-5" x="105.5" y="111.5" width="5" height="5"/><rect class="cls-5" x="106.5" y="36.5" width="5" height="5"/><polygon class="cls-5" points="110.04 50.5 107.54 55.5 112.54 55.5 110.04 50.5"/><polygon class="cls-5" points="123.04 47.5 120.54 52.5 125.54 52.5 123.04 47.5"/><polygon class="cls-5" points="18.44 23.52 21 22.04 23.56 23.52 23.56 26.48 21 27.96 18.44 26.48 18.44 23.52"/><polygon class="cls-5" points="57.48 75.97 60.04 74.49 62.6 75.97 62.6 78.93 60.04 80.41 57.48 78.93 57.48 75.97"/><polygon class="cls-5" points="9.48 86.97 12.04 85.49 14.61 86.97 14.61 89.93 12.04 91.41 9.48 89.93 9.48 86.97"/><polygon class="cls-5" points="45.48 133.97 48.04 132.49 50.6 133.97 50.6 136.93 48.04 138.41 45.48 136.93 45.48 133.97"/><polygon class="cls-5" points="79.48 106.97 82.04 105.49 84.61 106.97 84.61 109.93 82.04 111.41 79.48 109.93 79.48 106.97"/><polygon class="cls-5" points="121.04 59.45 122.8 60.02 123.89 61.52 123.89 63.38 122.8 64.88 121.04 65.45 119.28 64.88 118.19 63.38 118.19 61.52 119.28 60.02 121.04 59.45"/><polygon class="cls-6" points="76.04 165.45 74.31 168.45 77.77 168.45 76.04 165.45"/><polygon class="cls-4" points="118 108 118 111 121 111 118 111 118 114 118 111 115 111 118 111 118 108"/><polygon class="cls-4" points="93.33 52.74 93.33 55.74 96.33 55.74 93.33 55.74 93.33 58.74 93.33 55.74 90.33 55.74 93.33 55.74 93.33 52.74"/><polygon class="cls-4" points="127 68 127 71 130 71 127 71 127 74 127 71 124 71 127 71 127 68"/><polygon class="cls-5" points="90.04 117.45 91.8 118.03 92.89 119.53 92.89 121.38 91.8 122.88 90.04 123.45 88.28 122.88 87.19 121.38 87.19 119.53 88.28 118.03 90.04 117.45"/><polygon class="cls-5" points="91.48 71.97 94.04 70.49 96.61 71.97 96.61 74.93 94.04 76.41 91.48 74.93 91.48 71.97"/><polygon class="cls-5" points="135.48 70.97 138.04 69.49 140.6 70.97 140.6 73.93 138.04 75.41 135.48 73.93 135.48 70.97"/><polygon class="cls-5" points="121.48 21.97 124.04 20.49 126.61 21.97 126.61 24.93 124.04 26.41 121.48 24.93 121.48 21.97"/><polygon class="cls-6" points="126.04 35.45 124.31 38.45 127.77 38.45 126.04 35.45"/><polygon class="cls-5" points="73.48 121.97 76.04 120.49 78.61 121.97 78.61 124.93 76.04 126.41 73.48 124.93 73.48 121.97"/><polygon class="cls-5" points="76.48 92.97 79.04 91.49 81.61 92.97 81.61 95.93 79.04 97.41 76.48 95.93 76.48 92.97"/><polygon class="cls-5" points="126.63 96.67 124.13 101.67 129.13 101.67 126.63 96.67"/><rect class="cls-5" x="139.7" y="125.71" width="5" height="5"/><polygon class="cls-5" points="143.24 145.66 145 146.23 146.09 147.73 146.09 149.59 145 151.09 143.24 151.66 141.48 151.09 140.39 149.59 140.39 147.73 141.48 146.23 143.24 145.66"/><rect class="cls-5" x="119.83" y="81.24" width="5" height="5"/><polygon class="cls-5" points="31.19 149.51 32.95 150.08 34.04 151.58 34.04 153.43 32.95 154.93 31.19 155.51 29.43 154.93 28.34 153.43 28.34 151.58 29.43 150.08 31.19 149.51"/><rect class="cls-5" x="78.5" y="134.5" width="5" height="5"/><polygon class="cls-5" points="78.26 51.5 75.76 56.5 80.76 56.5 78.26 51.5"/><polygon class="cls-5" points="112.49 97.74 115.05 96.26 117.61 97.74 117.61 100.7 115.05 102.18 112.49 100.7 112.49 97.74"/><polygon class="cls-5" points="60.05 136.24 57.55 141.24 62.55 141.24 60.05 136.24"/><polygon class="cls-6" points="120.05 134.22 118.32 137.22 121.78 137.22 120.05 134.22"/><rect class="cls-5" x="84.5" y="155.5" width="5" height="5"/><rect class="cls-5" x="49.1" y="145.76" width="5" height="5"/><rect class="cls-3" x="51.82" y="160.35" width="2.83" height="2.83"/><polygon class="cls-5" points="63.76 168.23 65.52 168.8 66.61 170.3 66.61 172.15 65.52 173.65 63.76 174.23 61.99 173.65 60.9 172.15 60.9 170.3 61.99 168.8 63.76 168.23"/><polygon class="cls-5" points="47.28 170.45 49.84 168.97 52.41 170.45 52.41 173.41 49.84 174.89 47.28 173.41 47.28 170.45"/><rect class="cls-5" x="18.5" y="166.5" width="5" height="5"/><polygon class="cls-5" points="65.09 150 67.65 148.52 70.22 150 70.22 152.97 67.65 154.44 65.09 152.97 65.09 150"/><polygon class="cls-5" points="35.05 164.5 32.55 169.5 37.55 169.5 35.05 164.5"/><polygon class="cls-5" points="43.05 154.5 40.55 159.5 45.55 159.5 43.05 154.5"/><polygon class="cls-5" points="42.86 20.5 40.36 25.5 45.36 25.5 42.86 20.5"/><polygon class="cls-5" points="62.3 19.69 64.86 18.21 67.43 19.69 67.43 22.65 64.86 24.13 62.3 22.65 62.3 19.69"/><polygon class="cls-5" points="91.71 5.03 89.21 10.03 94.21 10.03 91.71 5.03"/><rect class="cls-5" x="103.21" y="4.53" width="5" height="5"/><polygon class="cls-5" points="94.51 29.2 97.07 27.72 99.64 29.2 99.64 32.16 97.07 33.64 94.51 32.16 94.51 29.2"/><polygon class="cls-5" points="47.59 39.4 49.35 39.97 50.44 41.47 50.44 43.33 49.35 44.83 47.59 45.4 45.82 44.83 44.73 43.33 44.73 41.47 45.82 39.97 47.59 39.4"/><polygon class="cls-5" points="118.96 146.86 116.46 151.86 121.46 151.86 118.96 146.86"/><polygon class="cls-5" points="102.39 144.34 104.96 142.86 107.52 144.34 107.52 147.3 104.96 148.78 102.39 147.3 102.39 144.34"/><polygon class="cls-5" points="133.28 137.01 130.78 142.01 135.78 142.01 133.28 137.01"/><polygon class="cls-5" points="159.82 28.82 161.58 29.39 162.67 30.89 162.67 32.75 161.58 34.25 159.82 34.82 158.06 34.25 156.97 32.75 156.97 30.89 158.06 29.39 159.82 28.82"/><polygon class="cls-5" points="64.3 101.29 66.86 99.81 69.42 101.29 69.42 104.25 66.86 105.73 64.3 104.25 64.3 101.29"/><polygon class="cls-5" points="145.86 36.77 147.62 37.34 148.71 38.84 148.71 40.7 147.62 42.2 145.86 42.77 144.1 42.2 143.01 40.7 143.01 38.84 144.1 37.34 145.86 36.77"/><rect class="cls-5" x="133.32" y="46.82" width="5" height="5"/><polygon class="cls-5" points="126.82 6.82 128.58 7.39 129.67 8.89 129.67 10.75 128.58 12.25 126.82 12.82 125.06 12.25 123.97 10.75 123.97 8.89 125.06 7.39 126.82 6.82"/><polygon class="cls-5" points="145.04 7.3 147.6 5.83 150.16 7.3 150.16 10.27 147.6 11.75 145.04 10.27 145.04 7.3"/><rect class="cls-5" x="134.06" y="16.83" width="5" height="5"/><polygon class="cls-4" points="136 30 136 33 139 33 136 33 136 36 136 33 133 33 136 33 136 30"/><rect class="cls-5" x="84.48" y="170.34" width="5" height="5"/><polygon class="cls-5" points="102.7 167.17 104.46 167.75 105.55 169.25 105.55 171.1 104.46 172.6 102.7 173.17 100.94 172.6 99.84 171.1 99.84 169.25 100.94 167.75 102.7 167.17"/><polygon class="cls-5" points="119.2 172.28 121.76 170.81 124.32 172.28 124.32 175.25 121.76 176.73 119.2 175.25 119.2 172.28"/><polygon class="cls-5" points="101.7 125.8 103.47 126.37 104.56 127.87 104.56 129.73 103.47 131.23 101.7 131.8 99.94 131.23 98.85 129.73 98.85 127.87 99.94 126.37 101.7 125.8"/><polygon class="cls-5" points="134.24 110.97 136.81 109.49 139.37 110.97 139.37 113.93 136.81 115.41 134.24 113.93 134.24 110.97"/><polygon class="cls-5" points="150.85 169.82 152.62 170.39 153.71 171.89 153.71 173.75 152.62 175.25 150.85 175.82 149.09 175.25 148 173.75 148 171.89 149.09 170.39 150.85 169.82"/><polygon class="cls-5" points="126.85 121.82 128.62 122.39 129.71 123.89 129.71 125.75 128.62 127.25 126.85 127.82 125.09 127.25 124 125.75 124 123.89 125.09 122.39 126.85 121.82"/><polygon class="cls-5" points="89.85 84.24 87.35 89.24 92.35 89.24 89.85 84.24"/><polygon class="cls-5" points="148.85 73.5 146.35 78.5 151.35 78.5 148.85 73.5"/><polygon class="cls-5" points="150.32 117.47 152.08 118.05 153.17 119.55 153.17 121.4 152.08 122.9 150.32 123.47 148.56 122.9 147.47 121.4 147.47 119.55 148.56 118.05 150.32 117.47"/><polygon class="cls-5" points="160.47 141.53 162.23 142.1 163.32 143.6 163.32 145.46 162.23 146.96 160.47 147.53 158.71 146.96 157.62 145.46 157.62 143.6 158.71 142.1 160.47 141.53"/><rect class="cls-3" x="156.97" y="164.01" width="2.83" height="2.83"/><polygon class="cls-5" points="159.39 40.5 156.89 45.5 161.89 45.5 159.39 40.5"/><polygon class="cls-5" points="161.39 152.5 158.89 157.5 163.89 157.5 161.39 152.5"/><rect class="cls-5" x="153.5" y="102.5" width="5" height="5"/><polygon class="cls-5" points="149.55 49.99 152.11 48.51 154.68 49.99 154.68 52.95 152.11 54.43 149.55 52.95 149.55 49.99"/><polygon class="cls-5" points="162.71 65.47 160.21 70.47 165.21 70.47 162.71 65.47"/><polygon class="cls-5" points="133.54 161.24 131.04 166.24 136.04 166.24 133.54 161.24"/></g><g id="Textura_dir" class="cls-2"><rect class="cls-3" x="309.14" y="11.47" width="2.83" height="2.83"/><polygon class="cls-4" points="294.55 6.89 292.79 7.46 291.7 8.96 291.7 10.81 292.79 12.31 294.55 12.89 296.32 12.31 297.41 10.81 297.41 8.96 296.32 7.46 294.55 6.89"/><polygon class="cls-4" points="281.55 13.89 281.55 16.89 278.55 16.89 281.55 16.89 281.55 19.89 281.55 16.89 284.55 16.89 281.55 16.89 281.55 13.89"/><polygon class="cls-5" points="319.92 25.24 322.42 30.24 317.42 30.24 319.92 25.24"/><polygon class="cls-5" points="297.92 28.24 296.16 28.81 295.07 30.31 295.07 32.16 296.16 33.66 297.92 34.24 299.68 33.66 300.77 32.16 300.77 30.31 299.68 28.81 297.92 28.24"/><rect class="cls-3" x="177.76" y="20.81" width="2.83" height="2.83"/><polygon class="cls-5" points="298.17 43.39 300.67 48.39 295.67 48.39 298.17 43.39"/><rect class="cls-3" x="259.38" y="7.93" width="2.83" height="2.83"/><polygon class="cls-5" points="251.79 17.34 250.03 17.92 248.94 19.42 248.94 21.27 250.03 22.77 251.79 23.34 253.56 22.77 254.65 21.27 254.65 19.42 253.56 17.92 251.79 17.34"/><polygon class="cls-5" points="304.79 55.34 303.03 55.92 301.94 57.42 301.94 59.27 303.03 60.77 304.79 61.34 306.56 60.77 307.65 59.27 307.65 57.42 306.56 55.92 304.79 55.34"/><polygon class="cls-4" points="319.55 39.89 319.55 42.89 316.55 42.89 319.55 42.89 319.55 45.89 319.55 42.89 322.55 42.89 319.55 42.89 319.55 39.89"/><polygon class="cls-5" points="259.79 29 262.29 34 257.29 34 259.79 29"/><polygon class="cls-4" points="234.79 14.35 234.79 17.34 231.79 17.34 234.79 17.34 234.79 20.34 234.79 17.34 237.79 17.34 234.79 17.34 234.79 14.35"/><rect class="cls-3" x="194.6" y="94.11" width="2.83" height="2.83"/><polygon class="cls-5" points="285.01 71.18 287.51 76.18 282.51 76.18 285.01 71.18"/><polygon class="cls-5" points="319.01 55.39 321.51 60.39 316.51 60.39 319.01 55.39"/><rect class="cls-5" x="301.51" y="88.03" width="5" height="5"/><polygon class="cls-4" points="298.01 76.53 298.01 79.53 295.01 79.53 298.01 79.53 298.01 82.53 298.01 79.53 301.01 79.53 298.01 79.53 298.01 76.53"/><polygon class="cls-4" points="242.79 143.34 241.03 143.92 239.94 145.42 239.94 147.27 241.03 148.77 242.79 149.34 244.56 148.77 245.65 147.27 245.65 145.42 244.56 143.92 242.79 143.34"/><polygon class="cls-6" points="288.99 58.82 290.72 61.82 287.26 61.82 288.99 58.82"/><rect class="cls-3" x="273.71" y="88.77" width="2.83" height="2.83"/><polygon class="cls-5" points="258.74 78.3 256.98 78.87 255.89 80.37 255.89 82.23 256.98 83.73 258.74 84.3 260.51 83.73 261.6 82.23 261.6 80.37 260.51 78.87 258.74 78.3"/><rect class="cls-5" x="297.05" y="65.39" width="5" height="5"/><polygon class="cls-6" points="318.99 129.67 320.72 132.67 317.25 132.67 318.99 129.67"/><polygon class="cls-4" points="222.49 20.17 220.72 20.74 219.63 22.24 219.63 24.1 220.72 25.6 222.49 26.17 224.25 25.6 225.34 24.1 225.34 22.24 224.25 20.74 222.49 20.17"/><polygon class="cls-4" points="279.23 123.63 279.23 126.63 276.23 126.63 279.23 126.63 279.23 129.63 279.23 126.63 282.23 126.63 279.23 126.63 279.23 123.63"/><polygon class="cls-5" points="313.85 140.52 316.35 145.52 311.35 145.52 313.85 140.52"/><rect class="cls-5" x="301.35" y="129.02" width="5" height="5"/><polygon class="cls-5" points="291.85 121.52 290.09 122.09 289 123.59 289 125.45 290.09 126.95 291.85 127.52 293.62 126.95 294.7 125.45 294.7 123.59 293.62 122.09 291.85 121.52"/><polygon class="cls-4" points="261.55 64.89 261.55 67.89 258.55 67.89 261.55 67.89 261.55 70.89 261.55 67.89 264.55 67.89 261.55 67.89 261.55 64.89"/><polygon class="cls-5" points="247.7 65.44 245.94 66.01 244.85 67.51 244.85 69.36 245.94 70.86 247.7 71.44 249.47 70.86 250.56 69.36 250.56 67.51 249.47 66.01 247.7 65.44"/><rect class="cls-5" x="222.05" y="66.39" width="5" height="5"/><polygon class="cls-4" points="319.46 102.54 317.7 103.11 316.61 104.61 316.61 106.47 317.7 107.97 319.46 108.54 321.23 107.97 322.32 106.47 322.32 104.61 321.23 103.11 319.46 102.54"/><polygon class="cls-5" points="289.56 95.94 287.79 96.51 286.7 98.01 286.7 99.87 287.79 101.37 289.56 101.94 291.32 101.37 292.41 99.87 292.41 98.01 291.32 96.51 289.56 95.94"/><rect class="cls-5" x="286.9" y="109.89" width="5" height="5"/><polygon class="cls-5" points="265.7 41.44 263.94 42.01 262.85 43.51 262.85 45.37 263.94 46.87 265.7 47.44 267.47 46.87 268.56 45.37 268.56 43.51 267.47 42.01 265.7 41.44"/><rect class="cls-5" x="235.05" y="41.39" width="5" height="5"/><polygon class="cls-5" points="277.53 52.39 280.03 57.39 275.03 57.39 277.53 52.39"/><rect class="cls-5" x="303.05" y="107.39" width="5" height="5"/><polygon class="cls-5" points="272.53 112.39 275.03 117.39 270.03 117.39 272.53 112.39"/><rect class="cls-5" x="229.73" y="99.13" width="5" height="5"/><polygon class="cls-5" points="225.91 84.84 224.15 85.41 223.06 86.91 223.06 88.76 224.15 90.26 225.91 90.84 227.68 90.26 228.77 88.76 228.77 86.91 227.68 85.41 225.91 84.84"/><rect class="cls-3" x="313.7" y="156.02" width="2.83" height="2.83"/><rect class="cls-5" x="188.87" y="82.16" width="5" height="5"/><rect class="cls-3" x="187.57" y="59.58" width="2.83" height="2.83"/><polygon class="cls-5" points="313.99 69.39 316.49 74.39 311.49 74.39 313.99 69.39"/><rect class="cls-3" x="225.7" y="158.02" width="2.83" height="2.83"/><rect class="cls-5" x="222.05" y="112.39" width="5" height="5"/><rect class="cls-5" x="221.05" y="37.39" width="5" height="5"/><polygon class="cls-5" points="222.51 51.39 225.01 56.39 220.01 56.39 222.51 51.39"/><polygon class="cls-5" points="209.51 48.39 212.01 53.39 207.01 53.39 209.51 48.39"/><polygon class="cls-5" points="314.12 24.41 311.55 22.93 308.99 24.41 308.99 27.37 311.55 28.85 314.12 27.37 314.12 24.41"/><polygon class="cls-5" points="275.08 76.86 272.51 75.38 269.95 76.86 269.95 79.82 272.51 81.3 275.08 79.82 275.08 76.86"/><polygon class="cls-5" points="323.08 87.86 320.51 86.38 317.95 87.86 317.95 90.82 320.51 92.3 323.08 90.82 323.08 87.86"/><polygon class="cls-5" points="287.08 134.86 284.51 133.38 281.95 134.86 281.95 137.82 284.51 139.3 287.08 137.82 287.08 134.86"/><polygon class="cls-5" points="253.08 107.86 250.51 106.38 247.95 107.86 247.95 110.82 250.51 112.3 253.08 110.82 253.08 107.86"/><polygon class="cls-5" points="211.51 60.34 209.75 60.91 208.66 62.41 208.66 64.27 209.75 65.77 211.51 66.34 213.28 65.77 214.37 64.27 214.37 62.41 213.28 60.91 211.51 60.34"/><polygon class="cls-6" points="256.51 166.34 258.24 169.34 254.78 169.34 256.51 166.34"/><polygon class="cls-4" points="214.55 108.89 214.55 111.89 211.55 111.89 214.55 111.89 214.55 114.89 214.55 111.89 217.55 111.89 214.55 111.89 214.55 108.89"/><polygon class="cls-4" points="239.23 53.63 239.23 56.63 236.23 56.63 239.23 56.63 239.23 59.63 239.23 56.63 242.23 56.63 239.23 56.63 239.23 53.63"/><polygon class="cls-4" points="205.55 68.89 205.55 71.89 202.55 71.89 205.55 71.89 205.55 74.89 205.55 71.89 208.55 71.89 205.55 71.89 205.55 68.89"/><polygon class="cls-5" points="242.51 118.34 240.75 118.91 239.66 120.41 239.66 122.27 240.75 123.77 242.51 124.34 244.28 123.77 245.37 122.27 245.37 120.41 244.28 118.91 242.51 118.34"/><polygon class="cls-5" points="241.08 72.86 238.51 71.38 235.95 72.86 235.95 75.82 238.51 77.3 241.08 75.82 241.08 72.86"/><polygon class="cls-5" points="197.08 71.86 194.51 70.38 191.95 71.86 191.95 74.82 194.51 76.3 197.08 74.82 197.08 71.86"/><polygon class="cls-5" points="211.08 22.86 208.51 21.38 205.95 22.86 205.95 25.82 208.51 27.3 211.08 25.82 211.08 22.86"/><polygon class="cls-6" points="200.51 40.34 202.24 43.34 198.78 43.34 200.51 40.34"/><polygon class="cls-5" points="259.08 122.86 256.51 121.38 253.95 122.86 253.95 125.82 256.51 127.3 259.08 125.82 259.08 122.86"/><polygon class="cls-5" points="256.08 93.86 253.51 92.38 250.95 93.86 250.95 96.82 253.51 98.3 256.08 96.82 256.08 93.86"/><polygon class="cls-5" points="205.92 97.55 208.42 102.55 203.42 102.55 205.92 97.55"/><rect class="cls-5" x="187.85" y="126.6" width="5" height="5"/><polygon class="cls-5" points="189.31 146.55 187.55 147.12 186.46 148.62 186.46 150.47 187.55 151.97 189.31 152.55 191.07 151.97 192.16 150.47 192.16 148.62 191.07 147.12 189.31 146.55"/><rect class="cls-5" x="207.73" y="82.13" width="5" height="5"/><polygon class="cls-5" points="301.36 150.39 299.6 150.97 298.51 152.47 298.51 154.32 299.6 155.82 301.36 156.39 303.13 155.82 304.22 154.32 304.22 152.47 303.13 150.97 301.36 150.39"/><rect class="cls-5" x="249.05" y="135.39" width="5" height="5"/><polygon class="cls-5" points="254.29 52.39 256.79 57.39 251.79 57.39 254.29 52.39"/><polygon class="cls-5" points="220.07 98.63 217.5 97.15 214.94 98.63 214.94 101.59 217.5 103.07 220.07 101.59 220.07 98.63"/><polygon class="cls-5" points="272.5 137.13 275 142.13 270 142.13 272.5 137.13"/><polygon class="cls-6" points="212.5 135.11 214.24 138.11 210.77 138.11 212.5 135.11"/><rect class="cls-5" x="243.05" y="156.39" width="5" height="5"/><rect class="cls-5" x="278.45" y="146.65" width="5" height="5"/><rect class="cls-3" x="277.9" y="161.24" width="2.83" height="2.83"/><polygon class="cls-5" points="268.8 169.11 267.03 169.69 265.94 171.19 265.94 173.04 267.03 174.54 268.8 175.11 270.56 174.54 271.65 173.04 271.65 171.19 270.56 169.69 268.8 169.11"/><polygon class="cls-5" points="285.27 171.33 282.71 169.85 280.14 171.33 280.14 174.29 282.71 175.77 285.27 174.29 285.27 171.33"/><rect class="cls-5" x="309.05" y="167.39" width="5" height="5"/><polygon class="cls-5" points="267.46 150.89 264.9 149.41 262.33 150.89 262.33 153.85 264.9 155.33 267.46 153.85 267.46 150.89"/><polygon class="cls-5" points="297.5 165.39 300 170.39 295 170.39 297.5 165.39"/><polygon class="cls-5" points="289.5 155.39 292 160.39 287 160.39 289.5 155.39"/><polygon class="cls-5" points="289.69 21.39 292.19 26.39 287.19 26.39 289.69 21.39"/><polygon class="cls-5" points="270.25 20.57 267.69 19.09 265.13 20.57 265.13 23.53 267.69 25.01 270.25 23.53 270.25 20.57"/><polygon class="cls-5" points="240.85 5.92 243.35 10.92 238.35 10.92 240.85 5.92"/><rect class="cls-5" x="224.35" y="5.42" width="5" height="5"/><polygon class="cls-5" points="238.04 30.09 235.48 28.61 232.91 30.09 232.91 33.05 235.48 34.53 238.04 33.05 238.04 30.09"/><polygon class="cls-5" points="284.97 40.28 283.2 40.86 282.12 42.36 282.12 44.21 283.2 45.71 284.97 46.28 286.73 45.71 287.82 44.21 287.82 42.36 286.73 40.86 284.97 40.28"/><polygon class="cls-5" points="213.59 147.75 216.09 152.75 211.09 152.75 213.59 147.75"/><polygon class="cls-5" points="230.16 145.22 227.59 143.74 225.03 145.22 225.03 148.18 227.59 149.66 230.16 148.18 230.16 145.22"/><polygon class="cls-5" points="199.27 137.9 201.77 142.9 196.77 142.9 199.27 137.9"/><polygon class="cls-5" points="172.73 29.71 170.97 30.28 169.88 31.78 169.88 33.63 170.97 35.13 172.73 35.71 174.5 35.13 175.59 33.63 175.59 31.78 174.5 30.28 172.73 29.71"/><polygon class="cls-5" points="268.26 102.18 265.69 100.7 263.13 102.18 263.13 105.14 265.69 106.62 268.26 105.14 268.26 102.18"/><polygon class="cls-5" points="186.69 37.66 184.93 38.23 183.84 39.73 183.84 41.59 184.93 43.09 186.69 43.66 188.46 43.09 189.55 41.59 189.55 39.73 188.46 38.23 186.69 37.66"/><rect class="cls-5" x="195.23" y="51.71" width="5" height="5"/><polygon class="cls-5" points="205.73 7.71 203.97 8.28 202.88 9.78 202.88 11.63 203.97 13.13 205.73 13.71 207.5 13.13 208.59 11.63 208.59 9.78 207.5 8.28 205.73 7.71"/><polygon class="cls-5" points="187.52 8.19 184.95 6.71 182.39 8.19 182.39 11.15 184.95 12.63 187.52 11.15 187.52 8.19"/><rect class="cls-5" x="193.49" y="17.72" width="5" height="5"/><polygon class="cls-4" points="196.55 30.89 196.55 33.89 193.55 33.89 196.55 33.89 196.55 36.89 196.55 33.89 199.55 33.89 196.55 33.89 196.55 30.89"/><rect class="cls-5" x="243.08" y="171.22" width="5" height="5"/><polygon class="cls-5" points="229.85 168.06 228.09 168.63 227 170.13 227 171.99 228.09 173.49 229.85 174.06 231.62 173.49 232.71 171.99 232.71 170.13 231.62 168.63 229.85 168.06"/><polygon class="cls-5" points="213.36 173.17 210.79 171.69 208.23 173.17 208.23 176.13 210.79 177.61 213.36 176.13 213.36 173.17"/><polygon class="cls-5" points="230.85 126.69 229.09 127.26 228 128.76 228 130.61 229.09 132.11 230.85 132.69 232.61 132.11 233.7 130.61 233.7 128.76 232.61 127.26 230.85 126.69"/><polygon class="cls-5" points="196.31 106.86 193.75 105.38 191.18 106.86 191.18 109.82 193.75 111.3 196.31 109.82 196.31 106.86"/><polygon class="cls-5" points="181.7 170.71 179.94 171.28 178.85 172.78 178.85 174.63 179.94 176.13 181.7 176.71 183.47 176.13 184.56 174.63 184.56 172.78 183.47 171.28 181.7 170.71"/><polygon class="cls-5" points="205.7 122.71 203.94 123.28 202.85 124.78 202.85 126.63 203.94 128.13 205.7 128.71 207.47 128.13 208.56 126.63 208.56 124.78 207.47 123.28 205.7 122.71"/><polygon class="cls-5" points="242.7 85.13 245.2 90.13 240.2 90.13 242.7 85.13"/><polygon class="cls-5" points="180.7 74.39 183.2 79.39 178.2 79.39 180.7 74.39"/><polygon class="cls-5" points="173.84 109.36 176.34 114.36 171.34 114.36 173.84 109.36"/><polygon class="cls-6" points="180.53 134.61 182.26 137.61 178.79 137.61 180.53 134.61"/><polygon class="cls-5" points="174.23 122.36 172.47 122.93 171.38 124.43 171.38 126.29 172.47 127.79 174.23 128.36 176 127.79 177.09 126.29 177.09 124.43 176 122.93 174.23 122.36"/><polygon class="cls-5" points="179.08 144.41 177.32 144.99 176.23 146.49 176.23 148.34 177.32 149.84 179.08 150.41 180.85 149.84 181.94 148.34 181.94 146.49 180.85 144.99 179.08 144.41"/><rect class="cls-3" x="176.76" y="99.81" width="2.83" height="2.83"/><rect class="cls-3" x="172.76" y="160.9" width="2.83" height="2.83"/><polygon class="cls-5" points="173.16 41.39 175.66 46.39 170.66 46.39 173.16 41.39"/><rect class="cls-5" x="170.05" y="88.39" width="5" height="5"/><polygon class="cls-5" points="183 50.87 180.44 49.39 177.88 50.87 177.88 53.83 180.44 55.31 183 53.83 183 50.87"/><polygon class="cls-5" points="175.84 61.35 178.34 66.35 173.34 66.35 175.84 61.35"/><polygon class="cls-5" points="199.01 162.13 201.51 167.13 196.51 167.13 199.01 162.13"/></g></g><g id="Mov_Fechado_Squat"><path class="cls-7" d="M163,162.9a7.22,7.22,0,0,1,.68-3.06l.16.18.35-.86h.34l0,.54h.1l0-.54a3.1,3.1,0,0,1,.26,1.5h-.84c0,.57.18,1.08-.19,1.58-.16.22,0,.67,0,1s.26.42.2.55-.32.31-.51.46c0,.75.7,1.09,1.05,1.64.1.17.51.19.78.18.47,0,.94-.09,1.41-.14.12.28.28.51.46.53,1.34.14,2.68.25,4,.35.24,0,.45.05.48.35v.17h-2.21l-1.86-.18c-.7-.22-1.4-.46-2.12-.65s-1.47-.34-2.2-.51c.43.52,2.36,1.11,4,1.34l2,.34h.67a3.63,3.63,0,0,0,.71.16c.68,0,1.35,0,2,0l3.3.56,1.63.3h0l1,.16h1l1.54.16h2.39l1-.16,2-.17h.68l0,.68h-3.36c-.62.09-1.28-.19-1.87.17h-.68a7.18,7.18,0,0,1-1,0,4.34,4.34,0,0,0-2.95.2.56.56,0,0,1-.75-.18c-.11-.15-.08-.4-.13-.71a7.45,7.45,0,0,1-1,0c-.34-.05-.67-.25-1-.1-.62-.69-1.24-.33-1.83,0-.79-.51-1.61,0-2.4-.16a19.46,19.46,0,0,0-2.53,0c-.11-1-1.12-.71-1.65-1.11a2.94,2.94,0,0,1-.55.49.55.55,0,0,1-.47,0c-.24-.16-.55-.34-.65-.59-.21-.52-.65-.44-1-.5a.69.69,0,0,0-.82.74v1.19l.82.32,0,.29H163a1.2,1.2,0,0,1-.85-.68V167c.47-.33.49-.89.68-1.36l.28-.16a.12.12,0,0,0,0-.08A6.75,6.75,0,0,0,163,162.9Z"/><path class="cls-7" d="M164.53,175.66l-.17.34c-.12,0-.26-.1-.36-.07-.67.23-1.32.5-2,.71-.91.29-1.83.54-2.74.81s-2.08.68-3.15.89a17,17,0,0,1-3.26.36c-1.74,0-3.48-.1-5.23-.16a.8.8,0,0,1-.28-.16,2.34,2.34,0,0,1,.63-.09c.8.11.87.08,1.29-.76a3.94,3.94,0,0,1-.85,0c-.14,0-.26-.21-.39-.32a2.31,2.31,0,0,0,1.62-.32c.06-.06.24,0,.36,0,.54-.08,1,.38,1.59.11-.32.64-.69.72-1.53.29l0,.84h2V177c.12,0,.32,0,.35,0,.28.64.86.51,1.36.53a2.86,2.86,0,0,0,.72-.13l.46-.89c.8.36,1,.28,1.36-.41l.55-.17,1.33-.34,2-.51.85-.17h.51c-.06.22-.13.43-.19.65-.35.06-.75-.41-1.07.13.52.08,1,.5,1.52-.06l-.09-.72.51-.17c-.11.17-.43.42-.1.51a10.87,10.87,0,0,0,1.91.18c-.49-.51-.15-1-.4-1.43s-.22-1.9,0-1.81l.68,2.21.17,1.19ZM157,177.51l.2.18c.38-.12.95-.12,1.09-.38.32-.56.87-.37,1.28-.53a5.51,5.51,0,0,1,1.59-.1c-.21-.25-.29-.45-.41-.47a2.14,2.14,0,0,0-2,.49,1.08,1.08,0,0,0-1.27-.47Z"/><path d="M137.5,160.69c.27-.24.53-.49.81-.71a3.08,3.08,0,0,0,.61-1l.4-.45-.54,2.74-.21.88s0,.66.1.77c1,.73,1.9,1.55,3.24,1.35a.9.9,0,0,0,.89-.65l.53-.75a5.83,5.83,0,0,1,3.33-2.51c.66,0,1.32-.1,2-.11a1.63,1.63,0,0,1,1.32,1,.64.64,0,0,0,.24.22,5.91,5.91,0,0,1,.52.35c.26.24.73.51.72.75,0,.57.57.34.67.66h-1.26l.09-.17c-.25-.28-.49-.57-.75-.83s-.52-.31-.58-.52a1,1,0,0,0-.87-.78c-.2,0-.37-.23-.52-.33-.2.16-.35.36-.52.39a2.32,2.32,0,0,1-.78-.12.91.91,0,0,1-1.14.85.75.75,0,0,0-.57.26c-.18.22-.14.55-.5.72-.21.1-.3.47-.66.29-.3.49-1.06.7-.85,1.5l.49.39c-.34.08-.59.06-.74.17s-.35.39-.64.22a7.28,7.28,0,0,1-.66-.46c-.33.17-.67.37-1,.54a4.07,4.07,0,0,1-.58.22c0-.2-.05-.41-.1-.61a5.22,5.22,0,0,0-.21-.8c0-.07-.25,0-.37-.08l-.22-.4c-.41.32-.57-.1-.8-.28-.24,0-.43-.07-.43-.38s-.06-.76-.08-1.15l.15-.75-.83.41Z"/><path d="M177.46,154.57l.51.34c-.16.38-.08.49.34.51l.34.34c-.28.17-.05.34,0,.51l-.77.31c.15-1-.05-1.37-.62-1.44s-.84.16-.92,1.13l-1.2-.17.72.49c0,.07,0,.12-.06.12l-.75.07a2.83,2.83,0,0,0-1.06.51c-.15.4-.28.79-.45,1.27l-.95.19c-.2.57-1,.72-1.4,1.22-.05.05-.22,0-.33,0a3.27,3.27,0,0,0-2.75.19L166.43,159a9.79,9.79,0,0,1,.17-1.63c.16-.53.53.25.37,1.4a3.79,3.79,0,0,0,5.21-.61l.69-.84a6.48,6.48,0,0,1,2.52-1.88C176.16,155.34,176.72,154.74,177.46,154.57Z"/><path class="cls-8" d="M186,169.37h1.49l0-.68.51-.18c1-.14,1.93-.27,2.9-.43a11.22,11.22,0,0,0,1.4-.29c.24-.07.6,0,.62-.45l-.67-.18c-.06-.32.09-.45.42-.44l-.59-.75c.18,0,.37.1.56.13a3.42,3.42,0,0,0,.46,0v.17l.17,2a1.82,1.82,0,0,1-.68,1.21,4.27,4.27,0,0,1-2,.84,3.12,3.12,0,0,0-.75.33,7.66,7.66,0,0,0-2.55.5,2.15,2.15,0,0,1-.65.17c-1.09.13-2.17.24-3.26.35a24.28,24.28,0,0,1-7.15-.85.55.55,0,0,1,.52-.65c.38,0,.78-.15,1.12.19.18.18.21.56.68.41.22-.07.54.28.83.39s.46.19.7-.06a.52.52,0,0,1,.51,0c.38.54.85.21,1.29.18a6,6,0,0,1,1.83-.09,1.75,1.75,0,0,0,2.27-1l2.34.26.27-1.12A3.3,3.3,0,0,1,186,169.37Z"/><path d="M149.13,160a20.51,20.51,0,0,1,3.39,3.39c.17.19.34.38.52.56,1.64,1.64,3.3,3.26,4.91,4.93a7.26,7.26,0,0,0,2.89,1.7c.74.27,1.49.51,2.21.83a3.6,3.6,0,0,1,.8.72l-.17.17a2.09,2.09,0,0,1-.51-.28,5,5,0,0,0-2-1,1.79,1.79,0,0,0-.62-.1h-.91l.06-.42a2.31,2.31,0,0,1-1.54-1l-.27.08a3.29,3.29,0,0,0-.47-.7,10.89,10.89,0,0,1-2.48-2.72.28.28,0,0,0-.21-.1c-.34.1-.43-.1-.54-.36a4.67,4.67,0,0,0-1.66-1.73.8.8,0,0,1-.37-.73c-.1-.32-.69-.09-.67-.66,0-.24-.46-.51-.72-.75a5.91,5.91,0,0,0-.52-.35.64.64,0,0,1-.24-.22,1.63,1.63,0,0,0-1.32-1c-.67,0-1.33.07-2,.11l1.84-.59C148.52,159.44,148.78,159.72,149.13,160Z"/><polygon points="159.89 170.48 163.42 171.73 162.81 172.75 159.04 171.24 159.89 170.48"/><path class="cls-9" d="M181.88,159.84a20.35,20.35,0,0,0,2.39,2.08,30.55,30.55,0,0,0,3.28,1.66c.1,0,.19.12.28.17-.18.3.12.3.25.38.31.17.63.32.94.48-.49.18-1,.32-1.42-.1a2.22,2.22,0,0,0-1.75-.62c.06-.57-.28-.63-.74-.58a.7.7,0,0,1-.42-.15c-.3-.22-.56-.58-.89-.66s-.08-.77-.67-.77c-.34,0-.69-.31-1-.49,0,0,0-.11-.07-.15l-1.48-1.38.05-.52-.63.06-.31-1.45c.29.3.57.61.87.89a6.08,6.08,0,0,0,.66.47h0A.69.69,0,0,0,181.88,159.84Z"/><path class="cls-10" d="M147.36,178.38a.8.8,0,0,0,.28.16c1.75.06,3.49.18,5.23.16a17,17,0,0,0,3.26-.36c1.07-.21,2.1-.59,3.15-.89s1.83-.52,2.74-.81c.66-.21,1.31-.48,2-.71.1,0,.24,0,.36.07a17,17,0,0,1-4.1,1.54c-1.19.3-2.37.67-3.55,1l-1,.17-1.36.17-1,.17h-3.4l-1.19-.17-1.87-.17-1.53-.17-2.21-.34.51-.34c.71.12,1.43.24,2.15.34.53.07,1.06.12,1.59.17Z"/><path class="cls-11" d="M162.15,168.69a1.2,1.2,0,0,0,.85.68,9.19,9.19,0,0,0,1.69.65c1.42.24,2.87.37,4.3.54.55.07,1.11.11,1.66.17v.17h-1c-.58,0-1.17,0-1.76,0a2.83,2.83,0,0,1-.62-.16l-1.19-.17c-.92-.18-1.86-.31-2.76-.57a1.59,1.59,0,0,1-1.32-1.13Z"/><path class="cls-12" d="M176.26,170.9a24.28,24.28,0,0,0,7.15.85l.34.17v.17h-3.06l-1-.17c-.44-.06-.88-.09-1.32-.17l-2.77-.51v-.34Z"/><path class="cls-13" d="M137.5,160.69l-.34.85a5.4,5.4,0,0,0-.47.8c-.54,1.47-1.07,2.94-1.58,4.43-.21.62-.34,1.28-.5,1.92l-.17-.68a28.48,28.48,0,0,1,1.51-4.72,8.92,8.92,0,0,1,.78-1.73C137,161.25,137.24,161,137.5,160.69Z"/><path class="cls-14" d="M139.37,177.7a15.61,15.61,0,0,1-5.22-1.52c-.31-.16-.78-.31-.57-.86l.17-.34a.85.85,0,0,0,.62.9c.41.16.84.31,1.26.46.59.21,1.18.46,1.79.62s1.41.27,2.12.4Z"/><path class="cls-15" d="M133.75,175l-.17.34a2.43,2.43,0,0,1,.09-2,14,14,0,0,1,.78-1.44l-.19-1.14V169l.18-1,.17.68V169a1.92,1.92,0,0,0,0,1.7c.15.49.13,1.07.68,1.36v.34l-.57-.23A4.56,4.56,0,0,0,133.75,175Z"/><path class="cls-16" d="M183.75,171.92l-.34-.17c1.09-.11,2.17-.22,3.26-.35a2.15,2.15,0,0,0,.65-.17,7.66,7.66,0,0,1,2.55-.5v.17c-.92.23-1.83.46-2.75.67-.38.09-.78.12-1.16.18l-1,.17h-1.19Z"/><path class="cls-9" d="M193.1,166.14a3.42,3.42,0,0,1-.46,0c-.19,0-.38-.09-.56-.13l-1.18-.07c0-.32-.16-.46-.55-.45s-.85-.08-.82-.67l1.76.65c.07,0,.18-.09.28-.14Z"/><path class="cls-12" d="M189.87,170.9v-.17a3.12,3.12,0,0,1,.75-.33,4.27,4.27,0,0,0,2-.84,1.82,1.82,0,0,0,.68-1.21l.17.34a2.3,2.3,0,0,1-1.79,1.71C191.05,170.55,190.46,170.73,189.87,170.9Z"/><path class="cls-17" d="M165,156.61l-.34,1.53c-.47.19-.26.72-.51,1l-.35.86-.16-.18.12-.34c.12-.4.25-.79.38-1.18s.32-.95.49-1.43C164.71,156.77,164.91,156.7,165,156.61Z"/><path class="cls-18" d="M191.57,165.29c-.1.05-.21.16-.28.14l-1.76-.65-.51-.17c-.31-.16-.63-.31-.94-.48-.13-.08-.43-.08-.25-.38Z"/><path class="cls-19" d="M177.46,154.57c-.74.17-1.3.77-2.07.84a7.34,7.34,0,0,0,.73-.51,2,2,0,0,0,.3-.51l1-2.23c0,.07,0,.13,0,.2l-.75,2.12Z"/><path class="cls-12" d="M139.37,177.7l.17-.34a5.1,5.1,0,0,1,2.38.34l-.34.17h-.51Z"/><path class="cls-20" d="M175.58,170.9v.17h-1.36a3.57,3.57,0,0,0-.79-.16c-.92,0-1.85,0-2.78,0v-.17l4.93.17Z"/><path class="cls-21" d="M170.65,170.9c.93,0,1.86,0,2.78,0a3.57,3.57,0,0,1,.79.16c-1.26,0-2.53,0-3.8,0a3.82,3.82,0,0,1-.79-.16Z"/><path class="cls-22" d="M193.44,168.69l-.17-.34-.17-2c.16.22.43.43.45.66A2.61,2.61,0,0,1,193.44,168.69Z"/><path class="cls-19" d="M181.2,159.16a6.08,6.08,0,0,1-.66-.47c-.3-.28-.58-.59-.87-.89v-.51Z"/><path class="cls-12" d="M163.68,172.26l.17-.17a7.92,7.92,0,0,1,.68,2.38h-.17Z"/><path class="cls-23" d="M162.83,165.63c-.19.47-.21,1-.68,1.36H162a2.48,2.48,0,0,1,.85-1.53Z"/><path class="cls-17" d="M162,167h.17v1.7l-.17.17-.17-.34v-1Z"/><path class="cls-21" d="M150.08,179.06h3.23a1.35,1.35,0,0,1-.45.16c-.78,0-1.56,0-2.33,0A1.35,1.35,0,0,1,150.08,179.06Z"/><path class="cls-24" d="M162.83,165.63v-.34c.35-.54.1-1.14.17-1.7v-.69a6.75,6.75,0,0,1,.15,2.49.12.12,0,0,1,0,.08Z"/><path class="cls-19" d="M178.64,156.27c0-.17-.27-.34,0-.51l1,1.53h-.34Z"/><path class="cls-25" d="M141.58,177.87l.34-.17,1.7.17-.51.34-.68-.17Z"/><path class="cls-21" d="M180.86,172.09h2.72c-.12,0-.25.17-.37.16A6.42,6.42,0,0,1,180.86,172.09Z"/><path class="cls-21" d="M163,163.59c-.07.56.18,1.16-.17,1.7C162.91,164.72,162.65,164.12,163,163.59Z"/><path class="cls-21" d="M134.26,169v1.7A2,2,0,0,1,134.26,169Z"/><path class="cls-21" d="M145.32,178.55l1.53.17C146.34,178.66,145.8,178.88,145.32,178.55Z"/><path class="cls-21" d="M141.58,177.87l.85.17-1.36-.17Z"/><path class="cls-21" d="M164.53,174.47a1,1,0,0,1,0,1.19h0v-1.19Z"/><path class="cls-21" d="M166.06,170.56l1.19.17Z"/><path class="cls-21" d="M174.39,171.07h1.19v.17Z"/><path class="cls-19" d="M181.88,159.84a.69.69,0,0,1-.68-.68Z"/><path class="cls-21" d="M148.72,178.89l1.19.17Z"/><path class="cls-19" d="M178.31,155.42c-.42,0-.5-.13-.34-.51Z"/><path class="cls-21" d="M161.81,167.5v1A.79.79,0,0,1,161.81,167.5Z"/><path class="cls-21" d="M184.94,171.92l1-.17Z"/><path class="cls-21" d="M183.75,171.92h1l-1,.17Z"/><path class="cls-21" d="M179.67,171.92l1,.17Z"/><path class="cls-21" d="M155.69,178.72l1-.17Z"/><path class="cls-21" d="M153.31,179.06l1-.17Z"/><path class="cls-26" d="M142.82,133.33c.3-.83.61-1.66.92-2.48a1.56,1.56,0,0,1,.16-.28,2.93,2.93,0,0,0,.39-.48,21.87,21.87,0,0,1,1.1-2.35A3.51,3.51,0,0,0,146,126v0a1.13,1.13,0,0,0,.65-.7,7.06,7.06,0,0,1,.86-1.63,1.37,1.37,0,0,0,.37-1c.28-.48.56-1,.82-1.44.19-.33.37-.68.55-1,.4-.06.53-.4.69-.7a2.34,2.34,0,0,1,1.6-.62l.48-1.59h-.37l-.3-.31-.21.48c-.09.1-.16.24-.28.3a4.84,4.84,0,0,0-1.42,1.6.81.81,0,0,0-.19.84c-2.52.32-5,.73-7.57.91a41.33,41.33,0,0,1-9.56-.19c-1.14-.18-2.29-.32-3.41-.6a13.07,13.07,0,0,1-7.07-4.08,11.64,11.64,0,0,1-2.45-4.87c-.17-.68-.25-1.38-.37-2.07a2,2,0,0,0,.16-.62c-.06-1.14-.14-2.29-.21-3.27a5.89,5.89,0,0,0,1.23-.84,1.23,1.23,0,0,0,0-1.41c-.35-.7,0-1.42.16-2.12.48-.07.3-.6.41-.73l1.6.16A2.37,2.37,0,0,0,122,99a1.35,1.35,0,0,1,.19-1.67s0-.21,0-.39c-.23.11-.49.36-.51-.09l.8-1a3.86,3.86,0,0,0,.83-.44,4.64,4.64,0,0,0,.62-.82c.11-.15.2-.31.3-.46a17.88,17.88,0,0,1,3.18-2.5l1.94-1.36.18,0a3,3,0,0,1,1.7.62l.67,1.16.15-.46c.19.18.46.32.46.44,0,.43.44.2.51.44a7,7,0,0,1,.18.75l1.25-.22c1.06.75,2.1,1.54,3.21,2.23.49.31.93.8,1.59.81l.45.2c.13.11.25.23.38.32l4.06,2.74.82.85-.9.46a2.33,2.33,0,0,0-.69-.28,6.47,6.47,0,0,0-2.24-.08,3.52,3.52,0,0,1-1.13-.15,11.59,11.59,0,0,0-1.16-.1c-.11,0-.21.2-.31.31,0,.36.31.45.58.49.59.09,1.2.13,1.8.19l1.36.17c.25,0,.51,0,.76.06,1.47.2,2.95.41,4.42.64a7.42,7.42,0,0,1,1.11.33c-.07.18-.2.38.15.42a2.93,2.93,0,0,1,.41.07l0,.11h-1.41l.25-.69-.7.09v1.69h1.09c1.33,0,2.66,0,4,0,.75,0,.79,0,.83-.83v-.17l.85.16a3.89,3.89,0,0,1,.77.45c.56.51.68.53,1.27.05h0c0,.08,0,.22.08.22.76.17,1.53.31,2.3.46l1.53.51c.05.29-.73.43-.1.84a2.64,2.64,0,0,1,1.8-.16,18.71,18.71,0,0,1,2.08,1.24,7.15,7.15,0,0,1,2.61,3.21c.24.67.5,1.34.75,2l.17,3.91V116a1.34,1.34,0,0,0-.15.29c-.18.83-.35,1.66-.51,2.5a3.46,3.46,0,0,0,0,.46v.18c-.43.86-.87,1.71-1.27,2.58q-2.33,5-4.63,9.9c-1.85,4-3.7,7.94-5.52,11.92-1.43,3.11-2.83,6.23-4.23,9.34-.08.18-.13.38-.19.56-.67,1.59-1.33,3.19-2,4.77l-.17.38c-1.07-.05-2.14-.06-3.21-.17a12.59,12.59,0,0,1-5.65-2c.14-1.67.26-3.33.41-5q.3-3.26.64-6.51c.13-1.24.29-2.47.5-3.7.35-2.12.75-4.24,1.14-6.35C142.51,134.47,142.68,133.9,142.82,133.33Z"/><path class="cls-27" d="M219.28,39.79a3.39,3.39,0,0,1,2.85,2,6.18,6.18,0,0,1,.38,1.45,3.16,3.16,0,0,0,.32.94,2.55,2.55,0,0,1,.41,1.36,11.4,11.4,0,0,0,.21,1.84,2.24,2.24,0,0,1-.09,1.33c-.38.94-.75,1.89-1.07,2.85a5.23,5.23,0,0,1-2.15,2.55c-.23.16-.45.34-.69.5a4.12,4.12,0,0,0-1.3,2.51c-1.47,4.81-2.89,9.64-4.34,14.47-.36,1.22-.71,2.44-1.12,3.65a18.91,18.91,0,0,1-2.85,5.19c-.45.61-1,1.18-1.46,1.76a2.22,2.22,0,0,1-2.3.71,34.36,34.36,0,0,1-7.91-2.51c-1.07-.5-2.18-.94-3.24-1.48a1.24,1.24,0,0,0-1.53.23c-.88.76-1.78,1.49-2.69,2.22-.5.4-1.06.75-1.56,1.16a2.68,2.68,0,0,1-3,.31l-7.4-3c-.37-.15-.74-.46-1.18-.14v-.3a3.94,3.94,0,0,0-.56-.45c-.59-.32-1.21-.61-1.82-.91-.08-.7-.62-.48-1-.52l-.84-.17a3.66,3.66,0,0,0-.49-.31c-.73-.35-1.47-.67-2.18-1-1-.51-2-1-3-1.55a.77.77,0,0,0-.14-.21c-1.23-.88-2.49-1.72-3.69-2.65-1.74-1.36-3.43-2.79-5.17-4.17a2.45,2.45,0,0,0-1.35-.8l.49.68-.51,0c0,.53,0,1,0,1.48s.1.78.64.77c.39,0,.55.23.55.6,0,.62.17,1.27-.47,1.75l.35.23c-.5.18-1,.39-1.5.55a28.39,28.39,0,0,1-6.05,1.24,4.57,4.57,0,0,0-2.35,0,5.48,5.48,0,0,1-2.41-.64c-.85-.49-1.68-1-2.52-1.52.45-1.4.87-2.8,1.35-4.19a46.59,46.59,0,0,1,2.93-6.77,24.5,24.5,0,0,1,2.76-4.17,9.63,9.63,0,0,1,.71-.72L153,54.34c1.07-.78,2.1-1.59,3.2-2.31s2.31-1.37,3.47-2c.39.27.79.54,1.17.83a8,8,0,0,1,2.57,2.54,2.8,2.8,0,0,0,1.48,1.38l.87.53.32.16.88.64a1.72,1.72,0,0,0,.31.39A40.56,40.56,0,0,1,170.87,60c1,.93,1.89,1.92,2.89,2.82,1.2,1.06,2.46,2.06,3.72,3.07a7,7,0,0,0,1,.58l.86.66a1.11,1.11,0,0,0,.83.71l1.2.85a17.78,17.78,0,0,0,3.57,2,1,1,0,0,0,1-.06c1.3-.89,2.62-1.74,4-2.58.54-.35,1.11-.63,1.67-1,.41.31.83.18,1.34.09a.9.9,0,0,1,.19-1.11l.17-.17c.33.24.65.55,1.16.2l-.31-.71a1.53,1.53,0,0,0,.31-.26c0-.05,0-.17,0-.25v-.17l.49,0a.9.9,0,0,0,1-.68l2.53-1.69a2,2,0,0,1,.9,1.17c.12.38.39.44.8.27,0-1,.07-1.93,1.14-2.41,0-.1-.07-.21-.09-.31s0,0,.09-.06c.48,0,1,.35,1.56,0,0-.4.29-.88-.33-1.14-.05,0,0-.26,0-.41-.43,0-.66.61-1.15.32l.5-.51a6.13,6.13,0,0,0,.74-.46c.34-.28.64-.6,1-.9l.19.48.65-.47-.5-.35.68-.68c.17,0,.21,0,.12.24-.25.61-.11,1,.31,1.23s.76.06.83-.16c.12-.43-.24-.41-.5-.49a.5.5,0,0,1-.14-.08c.17-.63.37-1.22,1.15-1.16.29-.55-.31-.62-.41-.94a11.94,11.94,0,0,1,1.47-1.46l.12.66c.37-.41-.09-1,.45-1.34a11.22,11.22,0,0,0,1.11-.91c-.14.29.11.36.37.51s0,.61.55.37c-.05-.64-.1-1.28-.17-2.14.06-.31.18-.86.24-1.41.11-1,.19-2.07.28-3.11a.61.61,0,0,0,0-.33c-.24-.49.05-.9.11-1.34.2.33-.09.77.3,1.08a.84.84,0,0,0,.11-.2c0-.41.09-.83.14-1.25-.62-.48.36-.6.22-1a.6.6,0,0,1,.07-.41c0-.08.18-.11.27-.16l-.09.61.16.08,1-1.2.47.79h1.07l.59-2a5.45,5.45,0,0,0,.82,0c.16,0,.38-.17.41-.3.07-.3-.17-.34-.42-.37s-.71-.11-1.07-.17c.24-.23.47-.47.71-.69s.88-.6,1-1.18a5,5,0,0,1,2.25.33l.69.66c-.93.4-2,1.45-2.12,2.07A9,9,0,0,0,219.28,39.79ZM206.55,65.65l-.05.27c-.78.81-1.56,1.63-2.33,2.45a32.29,32.29,0,0,0-2.32,2.47l1.65,1.34,1.1-2c.19-.14.46-.25.56-.44.68-1.25,1.32-2.54,2-3.79a.92.92,0,0,0,0-.9Zm8.14-8.71c.12-.11.24-.23.36-.32.62-.47,1.24-.92,1.86-1.38a4.35,4.35,0,0,0,.87-.64c.67-.84,1.29-1.7,1.91-2.57.49-.69.94-1.4,1.41-2.1.6-.88,1.21-1.76,1.79-2.66a1.92,1.92,0,0,0,.13-.56l-.24-.13a2.64,2.64,0,0,1-.2.37c-.67,1-1.33,2-2,3a25.51,25.51,0,0,1-3.8,5,.25.25,0,0,0,0,.07l-1.2.76a10.9,10.9,0,0,0-2.63,2.44c-1.39,1.74-2.83,3.43-4.24,5.14-.32.39-.61.79-.95,1.23l.35.13h1.2a1.69,1.69,0,0,0,.16-1.53l1.71-2.17s.1,0,.16,0a1.17,1.17,0,0,0,.33,0c.35-.19.95.3,1.09-.24.1-.38-.14-.84-.23-1.27l1-1.36c.25,0,.29.15.17.33s-.38.52-.58.79h1.24Zm4.5-13.07a6.17,6.17,0,0,0,2.31-2.45A6.91,6.91,0,0,0,219.19,43.87Zm1.33,2.34a3.76,3.76,0,0,0,1.74-2.2C221.58,44.75,220.79,45.28,220.52,46.21ZM205.27,58.72v.19a1.29,1.29,0,0,0,1.27-.19Z"/><path class="cls-26" d="M166.58,119.38v-.18c.11-.08.29-.13.32-.22.19-.72.36-1.44.54-2.16,0,0,.1-.09.1-.13,0-1.47,0-2.94,0-4.41a.52.52,0,0,0-.1-.23,10.58,10.58,0,0,0-1.53-3.91l.16-.46-.48-1c-.33-.14-.58-.08-.7.29l-1-.69.31-.66h-.69c0-.53-.34-.58-.76-.51a2.62,2.62,0,0,0-.39.15h0l-.64-.63.21-.19c-.25-.13-.48-.34-.69-.34a6.06,6.06,0,0,1-1.54-.35,1.16,1.16,0,0,1-1.08-.94l-1.45.33c-.13-.05-.38-.51-.76-.08h-.17c0-.42-.2-.49-.57-.52a12.77,12.77,0,0,1-2.32-.25,4.52,4.52,0,0,1-1.19-.76c0-.42-.19-.54-.55-.53l4.15-1.68a5.64,5.64,0,0,1,.81-.2l12.23,2.46c2.57.51,5.16,1,7.73,1.53,2.19.45,4.38.9,6.55,1.42a13.16,13.16,0,0,1,4.91,2.22,9.16,9.16,0,0,1,3.77,7,16.46,16.46,0,0,1-.68,5.45A97.47,97.47,0,0,1,187,130.6c-1.82,4.35-3.75,8.66-5.65,13-1.09,2.45-2.23,4.88-3.34,7.32a2.75,2.75,0,0,1-.19.28l-.86,1.51a5.06,5.06,0,0,1-.68,1.13c-.71.71-1.66.45-2.63.57a1.5,1.5,0,0,1-1.93.06l.32-.26a8.34,8.34,0,0,1-.88.14,1.83,1.83,0,0,1-.66,0c-.64-.19-1.28-.39-1.91-.62s-.5-.25-.3-.83a.42.42,0,0,0,0-.22c-.06-.44-.12-.88-.19-1.32.19-1.48.35-3,.55-4.45.37-2.64.76-5.27,1.14-7.89,0-.25.12-.49.18-.73l.36.16c-.19.56-.17.7.13.78l.29-.31-.42-.47c0-.2.06-.41.11-.62.13-.58-.3-1.2.14-1.77l.21.63a1.8,1.8,0,0,0,.06-.64,3.62,3.62,0,0,1,.18-.62s0-.14,0-.15c-.46-.25-.3-.71-.37-1.09h0c.12-.36.25-.72.36-1.08.4-1.28.34-2.72,1.24-3.84a.46.46,0,0,0,.05-.31c-.1-.92.48-1.63.74-2.44,0-.08.21-.1.29-.14l-.12-.72a39.92,39.92,0,0,1,3.05-6.1h.36a5.24,5.24,0,0,0-1,1.8l1.48-.14a3.34,3.34,0,0,1,.5-.71c.48-.41.48-.55-.06-1-.07,0-.05-.21-.07-.33a5.93,5.93,0,0,0,1-.35c.35-.19.83-.24,1-.75-.13,0-.22-.08-.28,0-.92.33-1.83.68-2.73,1-.1,0-.14.22-.21.34a5,5,0,0,0-.66-.1h-8.15C167.14,119.31,166.86,119.36,166.58,119.38Z"/><path class="cls-28" d="M150.91,73.9A28.39,28.39,0,0,0,157,72.66c.5-.16,1-.37,1.5-.55a11.29,11.29,0,0,0,3.36-1.55l3.06,2.32A8.32,8.32,0,0,1,166.06,74a1.1,1.1,0,0,0,1,.46h0a2.4,2.4,0,0,0,1.73,1l.92.41,3.12,1.48a.77.77,0,0,1,0,.15H172l.28.78.91-.15-.26-.63c.74.33,1.48.66,2.23,1a8.25,8.25,0,0,0,2.51.93v.3a32,32,0,0,1-4.1,4.37c-1.11,1-2.25,1.87-3.45,2.71A35.57,35.57,0,0,0,166,90.47c-.43.41-.87.79-1.31,1.19a23.68,23.68,0,0,1-6-1,3.17,3.17,0,0,0-.92-.52A32.57,32.57,0,0,1,154.31,89c-.62-.16-1.25-.29-1.87-.43h0c.25-.66.25-.66-.5-1l-.15.47a13.84,13.84,0,0,1-3.59-2l-.56.13L144.12,84a1.31,1.31,0,0,0-1.06-.71l-.48-.28a1.06,1.06,0,0,0-1.06-.74l-1.82-1.37a23.94,23.94,0,0,0,2.67-5.62c.36-1,.66-2,1-3a3.71,3.71,0,0,1,.26-.53c.84.51,1.67,1,2.52,1.52a5.48,5.48,0,0,0,2.41.64Z"/><path class="cls-29" d="M187.2,25.12a18,18,0,0,1,1.62,8.74c-.25,4.72-.45,9.44-.67,14.17,0,.5-.05,1-.09,1.6l-6.18-2.41c-.18-.26,0-.4.18-.57A13.84,13.84,0,0,0,185,41a5,5,0,0,0,.5-2.41v-.63a3,3,0,0,0,.11-.58c0-1.47,0-2.94,0-4.41,0-.11-.09-1.25-.23-2.31a6.75,6.75,0,0,0-.4-1.81c-.24-.46-.45-.94-.73-1.38a8,8,0,0,0-1.9-2,17.41,17.41,0,0,0-4-2.95L176.8,24a.67.67,0,0,1,.31-.72,3.16,3.16,0,0,0,.52-.67l-.13-.18-.77.19c0,.22.1.43.05.46-.45.33-.21.62,0,.92-.39.51-.77,1-1.18,1.52-1.25,1.53-2.52,3-3.78,4.56l-.46.37a1.59,1.59,0,0,0-1,1.38l-.38.64-1.68,2.38c-.25,0-.35-.08-.34-.32s0-.79-.39-1a3.66,3.66,0,0,1-.33-.57,1.42,1.42,0,0,0-2.47-.44,2.65,2.65,0,0,0-.64,1,5.83,5.83,0,0,0,.55,4.58,2.3,2.3,0,0,0,1.76,1.33,7.37,7.37,0,0,0,1.05,0l2.8,9.66-4-.92a1.71,1.71,0,0,0-1.41-.34l-.82-.14c.19-.39.52-.28.83-.15l.06-.35,1.05-.2.54.67.72-.09c0-.19,0-.33.05-.47a1.3,1.3,0,0,0,0-.34c-.06-.47-.23-.62-.71-.64h-.6c-1.5,0-3,0-4.5,0-.71,0-.78-.09-.81-.77,0-.28,0-.55,0-1a2.65,2.65,0,0,0-.83.2c-.1.07,0,.39-.06.63l.52-.22c.09.9,0,1-1,1.41a2.9,2.9,0,0,1-.18-.62,18.88,18.88,0,0,1-.14-2.25,6.45,6.45,0,0,0-.1-1.52,5.6,5.6,0,0,1-.14-1.68,10.78,10.78,0,0,0-.1-2.78c-.17-1.11.19-2.23,0-3.35a.52.52,0,0,1,0-.33.47.47,0,0,0,0-.6c-.07-.12.18-.38.17-.58a7.14,7.14,0,0,1,.88-3.79c.07-.13.2-.25.19-.37a3,3,0,0,1,.62-1.87l.93-.19c-.56-.53-.58-.65-.31-1.26a2.09,2.09,0,0,1,.27-.43c.26-.35.53-.69.8-1a8.47,8.47,0,0,1-.64,2.72h1.2c0-.21.05-.35.05-.49,0-.48,0-1,0-1.44a3.34,3.34,0,0,0-.14-1.32c-.3-.58.53-.78.31-1.27a12.93,12.93,0,0,1,5.4-4.62,7.2,7.2,0,0,1,6.46,0c.41.21.7-.13,1-.05a3.26,3.26,0,0,0,.54,0c.66,0,1.32-.14,2-.15a12.34,12.34,0,0,1,1.48.14l.79.32a1.26,1.26,0,0,0,.22.24c.58.4,1,.86.64,1.64a.55.55,0,0,0,.17.49c.49.24.49.65.49,1.08v.82c.71.55,1.44.27,2.06.34a11.53,11.53,0,0,0,.11,1.61c.09.49.43.73.85.59A1.68,1.68,0,0,1,187.2,25.12Z"/><polygon class="cls-27" points="180.92 31.07 180.51 31.68 180.99 32.51 185.56 32.45 185.32 30.36 180.92 31.07"/><path class="cls-27" d="M171.84,30.05c1.26-1.52,2.53-3,3.78-4.56.41-.5.79-1,1.18-1.52h0l1.5-1.43a17.41,17.41,0,0,1,4,2.95c-.17.51-.45,1,0,1.54a.38.38,0,0,1,0,.24c0,.84-.06,1.68-.11,2.52a7.9,7.9,0,0,1-.16.79,6.4,6.4,0,0,0-.76,0c-.56.09-.72.33-.75.9a2.09,2.09,0,0,1-.27.73,3.42,3.42,0,0,1-.26.4c-.06.78-.13,1.57-.16,2.35s0,1.47,0,2.2c0,.36.16.59.67.44V36.53l.59-.63.14.07-.09.59,1-.21,0,1a3.5,3.5,0,0,0,.49,0,1.47,1.47,0,0,1,1.44.51c.08.1.26.11.36.2a1,1,0,0,1,.34.45c.11.51.16,1,.23,1.57l-.17.34c-.16.16-.44.31-.44.47a1.35,1.35,0,0,1-.32,1s0,.21,0,.32,0,.47-.14.6-.37,0-.42,0c-.46.15.08.61-.4.73a3.43,3.43,0,0,0,0,.69l-1.06.81a1,1,0,0,1-.16,1.28c-.32.29-.66.69-1.31.32l.26.94c-1.26,1.15-2.7.9-4.16.5-.3-.09-.63-.35-.92,0l0-.37-1.4-1.26-.64.24-.85-.51.17-.71c-.44-.24-.71-.2-.85.2l-1.36-1,0-.76h-1l.37.59.35.85-.06,1,.57-.13c.12.14.27.28.38.43a9.57,9.57,0,0,0,3.25,3,.6.6,0,0,0,.62,0c-.09.47-.16.94-.27,1.4a12.3,12.3,0,0,0-.24,3.38l.68.3a1,1,0,0,0,.05.44c.68,1.14,1.42,2.25,2.08,3.4.46.79.83,1.65,1.24,2.48l-.86.2.16,2c.59-.47.25-1.08.49-1.64.52.64-.26,1.29.16,1.84l.2-.17-.49,2.53c-.39.21-.61-.08-.86-.29-.52-.42-1-.83-1.55-1.27s-1-.88-1.48-1.33c0-.49-.19-.72-.68-.68h-.16l.38-.67-.9.16c-1-1-1.94-1.89-2.9-2.85a1.09,1.09,0,0,1-.16-.38c.23-.24.26-.45,0-.67a4.91,4.91,0,0,1-.56-.56l-.75,0a12.09,12.09,0,0,0-.92-.83,10.37,10.37,0,0,0-.91-.54l-.55-.84a17.82,17.82,0,0,0-3.61-4.58c.26.13.52.28.79.39a1.13,1.13,0,0,0,.38-.05l-.35-.44.8-.24a3.47,3.47,0,0,0-.2-1c-.25-.42-.74-.36-1.15-.32-.11-.38.49-.61.1-1,0-.16,0-.31,0-.46l.83.19.82.14,1.41.34,4,.92-2.8-9.66a7.37,7.37,0,0,1-1.05,0A2.3,2.3,0,0,1,164.65,38a5.83,5.83,0,0,1-.55-4.58,2.65,2.65,0,0,1,.64-1,1.42,1.42,0,0,1,2.47.44,3.66,3.66,0,0,0,.33.57l.39,1c0,.24.09.37.34.32l.28.5c.55-.37.12-1.33.92-1.44l-.39,1.46c.43-.05.72-.07,1-.12s.58-.18.87-.21.68,0,1,0a3.12,3.12,0,0,0,.68-.25v.79l.75.1.5.66c.38.48.88.23,1.34.24a1,1,0,0,0,.68-.8c.08-.52.17-1,.27-1.62a1.25,1.25,0,0,0-1.25-.47c0-.56-.4-.5-.64-.5l-.24.68-.35.29L173.62,33c-.33.7-.69,1.11-1.34.42l-.39.72-.9-.8-1.09.55-.12-.15a3.12,3.12,0,0,1,.23-.49.6.6,0,0,0-.06-.83l.38-.64.29-.22.23.22c0,.45.44.41.71.43,1.4.1,2.81.19,4.21.23.89,0,1.14-.35,1-1.39-1.15-.11-2.32-.26-3.5-.32a10.38,10.38,0,0,0-1.74.18l-.23-.21h0A.68.68,0,0,0,171.84,30.05Zm-5.61,6.48.21.56.11,0,0-.53a5.76,5.76,0,0,0,0-.93,7.78,7.78,0,0,0-.35-1.46.66.66,0,0,0-.89-.44Zm9.11,5.9a1.37,1.37,0,0,0,1.58.66A10.41,10.41,0,0,1,181,42.8a1,1,0,0,0,1.23-.38l-2-.28c-1.63-.25-3.21.5-4.84.23C175.38,42.37,175.36,42.41,175.34,42.43ZM181,44v-.29c-.19,0-.42-.11-.57,0a3.36,3.36,0,0,1-2.55.11s0,0-.07,0l-.42.17c.08.13.13.31.24.37a2.08,2.08,0,0,0,.65.17A4.07,4.07,0,0,0,181,44Zm-3.29-3.65c.45.17.81.4,1.25.14C178.47,39.79,178.23,39.75,177.68,40.35Zm2,0a1.23,1.23,0,0,0,1.13-.29C180.13,39.66,180.13,39.66,179.69,40.38Z"/><path class="cls-27" d="M139.7,80.93l1.82,1.37,1.06.74.48.28,1.06.71,3.52,2.19c.45.27.88.59,1.35.82,1,.49,2.08.94,3.12,1.4l.32.16h0c.54.23,1.06.51,1.62.69,1.55.48,3.12.92,4.68,1.38a23.68,23.68,0,0,0,6,1l-5.51,4.82a.65.65,0,0,1-.22.11,5.49,5.49,0,0,0-2.07,1.73c-.08.27-.65.32-.37.77a5.64,5.64,0,0,0-.81.2L151.57,101l-.81.16h-1.84l-1.4-.29-1.53-.68a1.92,1.92,0,0,0-.36-.39c-1-.6-2-1.16-3-1.8s-1.68-1.19-2.52-1.77c-.08-.06-.26,0-.39,0l-.45-.2a6.64,6.64,0,0,0-.62-.57c-1-.73-2.07-1.46-3.12-2.16-.56-.37-1.16-.69-1.74-1l-2.54-1.39a3,3,0,0,0-1.7-.62c1.41-1.1,2.86-2.17,4.23-3.32s2.47-2.21,3.69-3.32c.48-.43,1-.84,1.41-1.28.1-.1.11-.3.15-.46ZM152.34,98l-.17-.16a1.39,1.39,0,0,0-.92,1.22c0,.22-.14.46.25.47a4.73,4.73,0,0,1,.29-.85A5,5,0,0,1,152.34,98Z"/><path class="cls-27" d="M194.46,64.76v.17a2.5,2.5,0,0,0-.62.2c-1.25.78-2.48,1.56-3.71,2.35l-4.69,3.06c-.69-.35-1.38-.67-2.05-1a5.22,5.22,0,0,1-.67-.49c0-.17.05-.4,0-.49-.57-.58-1-1.31-2-1.45l-.35.4,0-.35c0-.37,0-.73.08-1.09.1-1.18.22-2.35.31-3.53a4.07,4.07,0,0,0-.67-2.48c-.45-.71-.84-1.45-1.25-2.18l-.66-1.44,1.2-.15c2.11.88,4.23,1.74,6.33,2.66a31.22,31.22,0,0,1,5.62,3.64c.84.62,1.65,1.29,2.49,1.91A3,3,0,0,0,194.46,64.76Z"/><path class="cls-28" d="M178.8,57.85c.41.73.8,1.47,1.25,2.18a4.07,4.07,0,0,1,.67,2.48c-.09,1.18-.21,2.35-.31,3.53,0,.36,0,.72-.08,1.09s-.31.47-.63.17a1.35,1.35,0,0,0-.36-.18l-.86-.66,0-.68c.17-.84.33-1.69.49-2.53a4.4,4.4,0,0,0-.15-2.22c-.41-.83-.78-1.69-1.24-2.48-.66-1.15-1.4-2.26-2.08-3.4a1,1,0,0,1-.05-.44l1.37.52Z"/><path class="cls-30" d="M164,47.63l-.83-.19L159,46.51c-.05-.3-.12-.63-.15-.95a113.2,113.2,0,0,1-.42-11.35,18.45,18.45,0,0,1,2-8c.64-1.31,1.43-2.55,2.17-3.82a5,5,0,0,1,.43-.5c.22.49-.61.69-.31,1.27a3.34,3.34,0,0,1,.14,1.32c0,.48,0,1,0,1.44,0,.14,0,.28-.05.49h-1.2a8.47,8.47,0,0,0,.64-2.72c-.27.34-.54.68-.8,1a2.09,2.09,0,0,0-.27.43c-.27.61-.25.73.31,1.26l-.93.19a3,3,0,0,0-.62,1.87c0,.12-.12.24-.19.37a7.14,7.14,0,0,0-.88,3.79c0,.2-.24.46-.17.58a.47.47,0,0,1,0,.6.52.52,0,0,0,0,.33c.2,1.12-.16,2.24,0,3.35a10.78,10.78,0,0,1,.1,2.78,5.6,5.6,0,0,0,.14,1.68,6.45,6.45,0,0,1,.1,1.52,18.88,18.88,0,0,0,.14,2.25,2.9,2.9,0,0,0,.18.62c1-.4,1-.51,1-1.41l-.52.22c0-.24,0-.56.06-.63a2.65,2.65,0,0,1,.83-.2c0,.4,0,.67,0,1,0,.68.1.77.81.77,1.5,0,3,0,4.5,0h.6c.48,0,.65.17.71.64a1.3,1.3,0,0,1,0,.34c0,.14,0,.28-.05.47l-.72.09-.54-.67-1.05.2-.06.35C164.52,47.35,164.19,47.24,164,47.63Z"/><path class="cls-30" d="M187.2,25.12a1.68,1.68,0,0,0-2-.7c-.42.14-.76-.1-.85-.59a11.53,11.53,0,0,1-.11-1.61c-.62-.07-1.35.21-2.06-.34v-.82c0-.43,0-.84-.49-1.08a.55.55,0,0,1-.17-.49c.32-.78-.06-1.24-.64-1.64a1.26,1.26,0,0,1-.22-.24A5.35,5.35,0,0,1,183,19a15.47,15.47,0,0,1,3.31,4.23C186.64,23.83,186.9,24.48,187.2,25.12Z"/><path class="cls-28" d="M162.79,50.49a17.82,17.82,0,0,1,3.61,4.58l-.37.36-.32-.16a.91.91,0,0,0-.87-.53,2.8,2.8,0,0,1-1.48-1.38,8,8,0,0,0-2.57-2.54c-.38-.29-.78-.56-1.17-.83l1-.57c.62-.09,1,.37,1.52.59Z"/><path class="cls-31" d="M175.75,47.76l0,.37c-.18.5-.36,1-.53,1.5a.6.6,0,0,1-.62,0,9.57,9.57,0,0,1-3.25-3c-.11-.15-.26-.29-.38-.43l-.51-.85-.35-.85c.08-.06.19-.19.22-.17a5.48,5.48,0,0,1,.46.34l1.36,1,.68.51.85.51A5.1,5.1,0,0,0,175.75,47.76Z"/><path class="cls-32" d="M204.66,56.94l-.68.68-.34.34c-.32.3-.62.62-1,.9a6.13,6.13,0,0,1-.74.46L206.23,55c.93-1,1.84-1.92,2.78-2.87a3.09,3.09,0,0,0,.93-2.12c.05-1.3.09-2.6.18-3.9a4.09,4.09,0,0,1,.33-1.47c.51-1.13,1.11-2.22,1.68-3.33l0,0c0,.22-.08.44-.11.65s-.05.47-.08.7l-.34.51c-.09.05-.23.08-.27.16a.6.6,0,0,0-.07.41c.14.38-.84.5-.22,1,0,.42-.09.84-.14,1.25a.84.84,0,0,1-.11.2c-.39-.31-.1-.75-.3-1.08-.06.44-.35.85-.11,1.34a.61.61,0,0,1,0,.33c-.09,1-.17,2.07-.28,3.11-.06.55-.18,1.1-.24,1.41.07.86.12,1.5.17,2.14-.53.24-.39-.28-.55-.37s-.51-.22-.37-.51a11.22,11.22,0,0,1-1.11.91c-.54.34-.08.93-.45,1.34l-.12-.66A11.94,11.94,0,0,0,206,55.58Z"/><path class="cls-33" d="M201.44,59.83c.49.29.72-.34,1.15-.32,0,.15-.06.39,0,.41.62.26.33.74.33,1.14-.56.31-1.08,0-1.56,0,0,0-.1,0-.09.06s.06.21.09.31c-1.07.48-1.16,1.44-1.14,2.41-.41.17-.68.11-.8-.27a2,2,0,0,0-.9-1.17l.67-.5a3.61,3.61,0,0,0,1.57-1.36Z"/><path class="cls-34" d="M180.86,47.6l-.26-.94c.65.37,1,0,1.31-.32a1,1,0,0,0,.16-1.28l1.06-.81a3.43,3.43,0,0,1,0-.69c.48-.12-.06-.58.4-.73.05,0,.34.1.42,0s.11-.39.14-.6-.08-.27,0-.32a1.35,1.35,0,0,0,.32-1c0-.16.28-.31.44-.47L185,41a13.84,13.84,0,0,1-2.89,5.67c-.14.17-.36.31-.18.57C181.46,47.13,181.18,47.41,180.86,47.6Z"/><path class="cls-26" d="M168.09,151.31c.07.44.13.88.19,1.32a.42.42,0,0,1,0,.22c-.2.58-.2.64.3.83s1.27.43,1.91.62a1.83,1.83,0,0,0,.66,0,8.34,8.34,0,0,0,.88-.14l-.32.26a1.5,1.5,0,0,0,1.93-.06c1-.12,1.92.14,2.63-.57a5.06,5.06,0,0,0,.68-1.13l.86-1.51-.35,1-1,2.23-2.58.44a8.59,8.59,0,0,1-5.64-1,2.23,2.23,0,0,1-.46-.46Z"/><path class="cls-35" d="M162.79,50.49l-.66-.48c.14-.21.27-.43.42-.68-.29-.17-.71-.29-.41-.77l1-.66c.39.34-.21.57-.1,1,.41,0,.9-.1,1.15.32a3.47,3.47,0,0,1,.2,1l-.8.24.35.44a1.13,1.13,0,0,1-.38.05C163.31,50.77,163.05,50.62,162.79,50.49Z"/><path class="cls-36" d="M218.47,39.07a5,5,0,0,0-2.25-.33c-.35.21-.71.4-1,.63s-.66.49-1,.73a1.49,1.49,0,0,0-1.57.64c-.16.18-.31.38-.46.56l0,0a1.7,1.7,0,0,1,.89-1.18,10.49,10.49,0,0,0,1.14-.73,4.09,4.09,0,0,1,3.11-.82A1.58,1.58,0,0,1,218.47,39.07Z"/><path class="cls-37" d="M178.8,57.85l-2-2.62,2.55,1-1.2.15Z"/><path class="cls-38" d="M219.28,39.79a9,9,0,0,1-2.24,2c.09-.62,1.19-1.67,2.12-2.07A.14.14,0,0,1,219.28,39.79Z"/><path class="cls-39" d="M162.14,48.56c-.3.48.12.6.41.77-.15.25-.28.47-.42.68-.49-.22-.9-.68-1.52-.59Z"/><path class="cls-40" d="M179.91,17.29a12.34,12.34,0,0,0-1.48-.14c-.66,0-1.32.11-2,.15a3.26,3.26,0,0,1-.54,0A5.68,5.68,0,0,1,179.91,17.29Z"/><path class="cls-41" d="M156.9,98.32A5.49,5.49,0,0,1,159,96.59Z"/><path class="cls-42" d="M139,81.89c0,.16-.05.36-.15.46-.45.44-.93.85-1.41,1.28Z"/><path class="cls-43" d="M153,54.34l-1.57,1.56Z"/><path class="cls-44" d="M200.75,60.5a3.61,3.61,0,0,1-1.57,1.36Z"/><path class="cls-45" d="M196,64.05a.9.9,0,0,1-1,.68Z"/><path d="M178.64,156.27l.69,1c-.22.42-.2.45.34.51l.31,1.45.63-.06-.05.52,1.48,1.38s0,.13.07.15c.33.18.68.49,1,.49.59,0,.22.66.67.77s.59.44.89.66a.7.7,0,0,0,.42.15c.46-.05.8,0,.74.58a2.22,2.22,0,0,1,1.75.62c.38.42.93.28,1.42.1l.51.17c0,.59.39.68.82.67s.57.13.55.45l1.18.07c.19.24.11.87.17,1.19h-.34c-1,0-1.94,0-2.91,0a3.74,3.74,0,0,0-2,.36l1.13.33c-.15,0-.31.16-.45.14a2.9,2.9,0,0,0-1.86.13c-.14.08-.37,0-.57,0s-.55-.08-.83-.09c-1.23,0-2.45.09-3.68,0-.9-.06-1.82,0-2.79,0-.16-.8-.84-.9-1.59-.85s-1.22.11-1.84.17a1.08,1.08,0,0,0-1.36,0l-.68-.17c-.17.06-.34-.54-.51,0h-.17c0-.3-.24-.33-.48-.35-1.34-.1-2.68-.21-4-.35-.18,0-.34-.25-.46-.53-.47,0-.94.13-1.41.14-.27,0-.68,0-.78-.18-.35-.55-1.05-.89-1.05-1.64.19-.15.44-.27.51-.46s-.18-.35-.2-.55-.18-.78,0-1c.37-.5.23-1,.19-1.58H165l.08-1.5c-.11-.17.31-.69-.34-.51v-.51c.06,0,.14.07.16.05s.27-.4.33-.38c.44.13.4-.27.45-.44a1.66,1.66,0,0,0-.07-.65s0-.05,0,0l1-.85a4,4,0,0,1,0,1.46,9.79,9.79,0,0,0-.17,1.63l1.67,1.16a3.27,3.27,0,0,1,2.75-.19c.11,0,.28.08.33,0,.44-.5,1.2-.65,1.4-1.22l.95-.19c.17-.48.3-.87.45-1.27a2.83,2.83,0,0,1,1.06-.51l.75-.07s0-.05.06-.12l-.72-.49,1.2.17c.08-1,.28-1.2.92-1.13s.77.48.62,1.44Zm-12.34,2.14c-.14-.1-.23-.21-.29-.2s-.15.14-.23.21c.07.07.14.19.21.19S166.15,158.51,166.3,158.41Z"/><path class="cls-21" d="M176.26,170.9h-.68l.2-.82c-.12,0-.29,0-.32,0-.51.78-1.08.38-1.67.13a2,2,0,0,0-.72-.16c-.9,0-1.81.05-2.71,0a5.2,5.2,0,0,1-1.28-.26,1.47,1.47,0,0,0-1.7.26c-.49-.64-.49-.63-1.28-.73a4.85,4.85,0,0,0-.49-.11,1.82,1.82,0,0,0-1.31.13c-.17.13-.52,0-.79,0l0-.29-.82-.32v-1.19a.69.69,0,0,1,.82-.74c.37.06.81,0,1,.5.1.25.41.43.65.59a.55.55,0,0,0,.47,0,2.94,2.94,0,0,0,.55-.49c.53.4,1.54.13,1.65,1.11a19.46,19.46,0,0,1,2.53,0c.79.11,1.61-.35,2.4.16.59-.33,1.21-.69,1.83,0,.36-.15.69.05,1,.1a7.45,7.45,0,0,0,1,0c.05.31,0,.56.13.71a.56.56,0,0,0,.75.18,4.34,4.34,0,0,1,2.95-.2,7.18,7.18,0,0,0,1,0,.84.84,0,0,0,0,.32,2.3,2.3,0,0,0,.28.34,2,2,0,0,0,.37-.34c.05-.07,0-.21,0-.32.62-.09,1.27.19,1.87-.17H186a3.3,3.3,0,0,0,2.66.1l-.27,1.12-2.34-.26a1.75,1.75,0,0,1-2.27,1,6,6,0,0,0-1.83.09c-.44,0-.91.36-1.29-.18a.52.52,0,0,0-.51,0c-.24.25-.48.15-.7.06s-.61-.46-.83-.39c-.47.15-.5-.23-.68-.41-.34-.34-.74-.23-1.12-.19A.55.55,0,0,0,176.26,170.9Z"/><path class="cls-9" d="M163.51,169.37c.27,0,.62.14.79,0a1.82,1.82,0,0,1,1.31-.13,4.85,4.85,0,0,1,.49.11c.79.1.79.09,1.28.73a1.47,1.47,0,0,1,1.7-.26,5.2,5.2,0,0,0,1.28.26c.9,0,1.81,0,2.71,0a2,2,0,0,1,.72.16c.59.25,1.16.65,1.67-.13,0-.05.2,0,.32,0l-.2.82-4.93-.17c-.55-.06-1.11-.1-1.66-.17-1.43-.17-2.88-.3-4.3-.54a9.19,9.19,0,0,1-1.69-.65Z"/><path class="cls-46" d="M177.79,168.69l-1.63-.3-3.3-.56a3.32,3.32,0,0,0-.62-.16h-2.78l.17-.17h4.76l1.1.34,2.48.67Z"/><path class="cls-47" d="M177.79,168.69l.18-.18c.75.06,1.5.14,2.25.16,1.34,0,2.69,0,4,0l1.2-.16h.49l.87.18-2,.17-1,.16h-2.39l-1.54-.16h-1l-1-.16Z"/><path class="cls-48" d="M167.42,167.33c-1.61-.23-3.54-.82-4-1.34l.18,0c.68.16,1.36.29,2,.47s1.42.43,2.12.65Z"/><path class="cls-49" d="M167.42,167.33l.35-.18,1.86.18v.17l-.17.17Z"/><path class="cls-50" d="M186.81,168.69l-.87-.18,2.06-.33v.33l-.51.18Z"/><path class="cls-51" d="M170.13,167.67h2.11a3.32,3.32,0,0,1,.62.16c-.67,0-1.34,0-2,0A3.63,3.63,0,0,1,170.13,167.67Z"/><path class="cls-8" d="M182.22,169.54c0,.11,0,.25,0,.32a2,2,0,0,1-.37.34,2.3,2.3,0,0,1-.28-.34.84.84,0,0,1,0-.32Z"/><path class="cls-9" d="M173.88,167.49h-2a.88.88,0,0,1,0-.16v-.17H172q.26.33.51,0l.68.17Z"/><path class="cls-51" d="M171.84,167.33a.88.88,0,0,0,0,.16h-2.23v-.17Z"/><path class="cls-8" d="M184.09,169.37c-.6.36-1.25.08-1.87.17C182.81,169.18,183.47,169.46,184.09,169.37Z"/><path class="cls-9" d="M164.7,158.14v.51l-.17.51h-.34C164.44,158.86,164.23,158.33,164.7,158.14Z"/><path class="cls-52" d="M179.82,168.86l1.54.16Z"/><path class="cls-9" d="M164.7,158.65c.65-.18.23.34.34.51h-.34Z"/><path class="cls-21" d="M164.7,158.65v.51l0,.54h-.1l0-.54Z"/><path class="cls-50" d="M183.75,169l1-.16Z"/><path class="cls-52" d="M177.79,168.69l1,.16Z"/><path d="M152.12,163.24a.8.8,0,0,0,.37.73,4.67,4.67,0,0,1,1.66,1.73c.11.26.2.46.54.36a.28.28,0,0,1,.21.1,10.89,10.89,0,0,0,2.48,2.72,3.29,3.29,0,0,1,.47.7l.27-.08a2.31,2.31,0,0,0,1.54,1l-.06.42a8.55,8.55,0,0,0,1.09.85l.49.11c.13,0,.25.11.38.16l.48-.42c.21.42,2.31.19,1.3.94s-.74,1.3-1,1.59H162c-.51.12-.46-.42-.67-.63l-1,.21-.25,1.09-.35.18h-.5a2.18,2.18,0,0,0-1.57-.05,4.51,4.51,0,0,1-.53.1,5,5,0,0,0-1,.15,1.7,1.7,0,0,1-.85.21.6.6,0,0,0-.67.6h-.34a2,2,0,0,0-1.87.17L149.4,176l-1.35-.17-.69-.34c-.26-.25-.56-.74-.78-.71-.51.07-.83-.31-1.27-.31h0l-.07-1a3.22,3.22,0,0,0-2,.08l-.17-.15.13-.78a2.43,2.43,0,0,0-.9,0,3.64,3.64,0,0,1-1.85.07,5.22,5.22,0,0,0-2,0l-.41-.65h-1.2l.14-.86c-.69.1-.69.1-.75.75l-1-.65c0-.29.2-.71.07-.85-.69-.76-.36-1.49-.11-2.34.67.68,1.25.2,1.94,0-.35-.47,0-1.08-.52-1.48l-.69.56c-.56-.63-.48-1,.31-1.52l.06-.86.66-.3c0-.45-.07-.9-.08-1.34a.9.9,0,0,1,.1-.55,10.79,10.79,0,0,1,.82-.84c0,.39.07.77.08,1.15s.19.37.43.38c.07.9.17,1,1,.68.12,0,.34,0,.37.08a5.22,5.22,0,0,1,.21.8c.05.2.07.41.1.61a4.07,4.07,0,0,0,.58-.22c.36-.17.7-.37,1-.54a7.28,7.28,0,0,0,.66.46c.29.17.44-.07.64-.22s.4-.09.74-.17l-.49-.39c-.21-.8.55-1,.85-1.5.36.18.45-.19.66-.29.36-.17.32-.5.5-.72a.75.75,0,0,1,.57-.26.91.91,0,0,0,1.14-.85,2.32,2.32,0,0,0,.78.12c.17,0,.32-.23.52-.39.15.1.32.3.52.33a1,1,0,0,1,.87.78c.06.21.39.33.58.52s.5.55.75.83l-.09.17Z"/><path class="cls-21" d="M148,177.19c.13.11.25.29.39.32a3.94,3.94,0,0,0,.85,0c-.42.84-.49.87-1.29.76a2.34,2.34,0,0,0-.63.09h0c-.39-.23-.92-.27-1-.82-.9,0-1.75,0-2.59,0a.74.74,0,0,1-.51-.15c-.49-.81-1.3-.7-2-.62a12.69,12.69,0,0,1-3.14,0c-.2-.42-.28-.95-.94-.74,0,0-.2-.1-.24-.18-.18-.39-.52-.34-.74-.34l-.56.64c-.09-.21-.39-.17-.46-.52s-.25-.94-.9-.94l.19-1.26h.1l.15.55a1.88,1.88,0,0,1,1.09-1.24c.12.23.18.5.57.45s1.08.26,1.64.06h0c.18.36.41.45.87.39a7.29,7.29,0,0,1,2.71.12h.5c.19.13.3.45.4.49a3.54,3.54,0,0,0,2.15.52h0c-.08.19-.16.47.12.46.46,0,.49.25.56.55,0,.11.07.21.11.35a7.13,7.13,0,0,1,2.31.13Z"/><path class="cls-9" d="M148,177.19l-.3-.9a7.13,7.13,0,0,0-2.31-.13c0-.14-.08-.24-.11-.35-.07-.3-.1-.58-.56-.55-.28,0-.2-.27-.12-.46l3.22,1.22a4.83,4.83,0,0,0,2,.49h.5a6.56,6.56,0,0,0,2.38.15,1.85,1.85,0,0,0,.53-.15c.64-.06,1.27-.11,1.9-.18.39,0,.77-.11,1.15-.17-.34.69-.56.77-1.36.41l-.46.89a2.86,2.86,0,0,1-.72.13c-.5,0-1.08.11-1.36-.53,0,0-.23,0-.35,0q-.26-.33-.51,0c-.55.27-1.05-.19-1.59-.11-.12,0-.3-.1-.36,0A2.31,2.31,0,0,1,148,177.19Z"/><path class="cls-21" d="M157,177.51l.49-1.28a1.08,1.08,0,0,1,1.27.47,2.14,2.14,0,0,1,2-.49c.12,0,.2.22.41.47a5.51,5.51,0,0,0-1.59.1c-.41.16-1,0-1.28.53-.14.26-.71.26-1.09.38Z"/><path class="cls-50" d="M156.37,176.17c-.38.06-.76.13-1.15.17-.63.07-1.26.12-1.9.18l-.69-.18.69-.17,1-.17h.34l3.06-.51.52.17-1.33.34Z"/><path class="cls-21" d="M151.61,177q.25-.33.51,0v1.13h-2l0-.84C150.92,177.74,151.29,177.66,151.61,177Z"/><path class="cls-53" d="M159.76,175l.35-.17,1.88-.68h.33c0,.13,0,.34-.13.38a11,11,0,0,1-1.06.47l-.85.17Z"/><path class="cls-54" d="M159.76,175l.52.17-2,.51-.52-.17,1.53-.5Z"/><path class="cls-21" d="M161.81,175l.09.72c-.51.56-1,.14-1.52.06.32-.54.72-.07,1.07-.13.06-.22.13-.43.19-.65Z"/><path class="cls-55" d="M161.81,175h-.68a11,11,0,0,0,1.06-.47c.09,0,.09-.25.13-.38.29-.15.35.1.31.25s-.2.29-.31.43Z"/><path class="cls-16" d="M164.53,174.47v1.19l-.17-1.19Z"/><path class="cls-27" d="M139.71,156.61a12.59,12.59,0,0,0,5.65,2c1.07.11,2.14.12,3.21.17,0,.31,0,.61-.07.92l-1.84.59a5.83,5.83,0,0,0-3.33,2.51l-.53.75-.89.65c-1.34.2-2.28-.62-3.24-1.35-.15-.11-.15-.52-.1-.77.22-1.13.48-2.25.72-3.37C139.44,158,139.57,157.32,139.71,156.61Z"/><path d="M137.84,161.88a10.79,10.79,0,0,0-.82.84.9.9,0,0,0-.1.55c0,.44.05.89.08,1.34l-.66.3-.06.86c-.79.53-.87.89-.31,1.52l.69-.56c.53.4.17,1,.52,1.48-.69.16-1.27.64-1.94,0-.25.85-.58,1.58.11,2.34.13.14,0,.56-.07.85l1,.65c.06-.65.06-.65.75-.75l-.14.86h1.2l.41.65h-.35l-2.08-.53c-.26-.06-.54-.1-.81-.15-.55-.29-.53-.87-.68-1.36v-2c.16-.64.29-1.3.5-1.92.51-1.49,1-3,1.58-4.43a5.4,5.4,0,0,1,.47-.8l.83-.41Z"/><path d="M139.37,164.09c-.85.29-1,.22-1-.68.23.18.39.6.8.28Z"/><path class="cls-56" d="M141.91,164.25l.89-.65A.9.9,0,0,1,141.91,164.25Z"/><path class="cls-27" d="M167.74,153.38a2.23,2.23,0,0,0,.46.46,8.59,8.59,0,0,0,5.64,1l2.58-.44a2,2,0,0,1-.3.51,7.34,7.34,0,0,1-.73.51,6.48,6.48,0,0,0-2.52,1.88l-.69.84a3.79,3.79,0,0,1-5.21.61c.16-1.15.33-2.35.5-3.54C167.55,154.59,167.65,154,167.74,153.38Z"/><path class="cls-26" d="M173.19,125.62l.12.72c-.08,0-.26.06-.29.14-.26.81-.84,1.52-.74,2.44a.46.46,0,0,1-.05.31c-.9,1.12-.84,2.56-1.24,3.84-.11.36-.24.72-.36,1.08l1-4.51c0-.19.09-.38.13-.57l1.22-3C173,125.89,173.11,125.76,173.19,125.62Z"/><path class="cls-26" d="M170.64,134.14c.07.38-.09.84.37,1.09,0,0,0,.1,0,.15a3.62,3.62,0,0,0-.18.62,1.8,1.8,0,0,1-.06.64l-.21-.63c-.44.57,0,1.19-.14,1.77-.05.21-.08.42-.12.63l-.35-.17Z"/><path class="cls-57" d="M172.18,158.13l.69-.84Z"/><path class="cls-26" d="M121.67,96.87c0,.45.28.2.51.09,0,.18,0,.34,0,.39A1.35,1.35,0,0,0,122,99a2.37,2.37,0,0,1,.13,1.48l-1.6-.16c-.11.13.07.66-.41.73-.13.7-.51,1.42-.16,2.12a1.23,1.23,0,0,1,0,1.41,5.89,5.89,0,0,1-1.23.84c.07,1,.15,2.13.21,3.27a2,2,0,0,1-.16.62,17.13,17.13,0,0,1,0-5.89,15,15,0,0,1,2.45-6.14C121.39,97.15,121.54,97,121.67,96.87Z"/><path class="cls-26" d="M146,126a3.51,3.51,0,0,1-.58,1.78,21.87,21.87,0,0,0-1.1,2.35,2.93,2.93,0,0,1-.39.48l.12-.64c.49-1,1-2.07,1.47-3.09C145.64,126.54,145.81,126.25,146,126Z"/><path class="cls-26" d="M147.84,122.69a1.37,1.37,0,0,1-.37,1,7.06,7.06,0,0,0-.86,1.63,1.13,1.13,0,0,1-.65.7C146.59,124.88,147.22,123.79,147.84,122.69Z"/><path class="cls-26" d="M124.22,94.15c-.1.15-.19.31-.3.46a4.64,4.64,0,0,1-.62.82,3.86,3.86,0,0,1-.83.44Z"/><path class="cls-9" d="M188,168.18l-2.06.33h-.49l-1.2.16c-1.34,0-2.69,0-4,0-.75,0-1.5-.1-2.25-.16l-2.48-.67-1.1-.34.17-.17c.62-.06,1.23-.13,1.84-.17s1.43.05,1.59.85c1,0,1.89,0,2.79,0,1.23.08,2.45,0,3.68,0,.28,0,.56.06.83.09s.43.09.57,0a2.9,2.9,0,0,1,1.86-.13c.14,0,.3-.09.45-.14.49,0,0-.34.19-.51.26,0,.56.08.86.1a7.64,7.64,0,0,0,2.69-.27h.34l.67.18-2.37.41Z"/><path class="cls-58" d="M188,168.18l2.55-.43,2.37-.41c0,.4-.38.38-.62.45a11.22,11.22,0,0,1-1.4.29c-1,.16-1.93.29-2.9.43Z"/><path class="cls-59" d="M176.23,119.42c.07-.12.11-.3.21-.34.9-.36,1.81-.71,2.73-1,.06,0,.15,0,.28,0-.16.51-.64.56-1,.75a5.93,5.93,0,0,1-1,.35l-.86.34h-.36S176.2,119.46,176.23,119.42Z"/><path class="cls-7" d="M135.63,176.17l.56-.64c.22,0,.56-.05.74.34,0,.08.19.2.24.18.66-.21.74.32.94.74a12.69,12.69,0,0,0,3.14,0c.71-.08,1.52-.19,2,.62a.74.74,0,0,0,.51.15c.84,0,1.69,0,2.59,0,.08.55.61.59,1,.82-.53,0-1.06-.1-1.59-.17-.72-.1-1.44-.22-2.15-.34l-1.7-.17a5.1,5.1,0,0,0-2.38-.34c-.71-.13-1.43-.23-2.12-.4s-1.2-.41-1.79-.62Z"/><path class="cls-60" d="M135.63,176.17v.17c-.42-.15-.85-.3-1.26-.46a.85.85,0,0,1-.62-.9,4.56,4.56,0,0,1,1-2.78l.57.23.51.17v.17a1.88,1.88,0,0,0-1.09,1.24l-.15-.55h-.1l-.19,1.26c.65,0,.83.54.9.94S135.54,176,135.63,176.17Z"/><path class="cls-58" d="M135.8,172.6l-.51-.17v-.34c.27,0,.55.09.81.15l2.08.53a1.24,1.24,0,0,0,.38.16c.81.07,1.62.09,2.43.18.54.07,1.08.22,1.62.33l-.34.33-.17,0h-.5c-.14-.11-.27-.31-.41-.32-1.06-.09-2.12-.13-3.17-.19h0Z"/><path class="cls-13" d="M134.61,169v1.7A1.92,1.92,0,0,1,134.61,169Z"/><path class="cls-9" d="M179.67,157.8c-.54-.06-.56-.09-.34-.51h.34Z"/><path class="cls-26" d="M153.14,102.88v.17c0,.78-.08.83-.83.83-1.33,0-2.66,0-4,0h-1.09v-1.69l.7-.09-.25.69h1.41l0-.11a2.93,2.93,0,0,0-.41-.07c-.35,0-.22-.24-.15-.42a6.78,6.78,0,0,1,1,0c1,.14,1.93.31,2.9.47Z"/><path class="cls-59" d="M153.14,102.88l-.68-.19v-.17a6.58,6.58,0,0,1,2.33.29,9.41,9.41,0,0,0,1.41.22h.17a5.13,5.13,0,0,0,.76.33,35.71,35.71,0,0,1,5.19,1.87h0l1.53,1,1,.69,1,1.19a10.58,10.58,0,0,1,1.53,3.91l-.34-.17c-.25-.68-.51-1.35-.75-2a7.15,7.15,0,0,0-2.61-3.21,18.71,18.71,0,0,0-2.08-1.24l-1.7-.68-1.53-.51a5.5,5.5,0,0,0-2.38-.68h0l-2-.5Z"/><path class="cls-26" d="M146,100.17l1.53.68c-.23.17-.37.37-.16.65l-.67-.08-3.41-.43-2-.34-2.72-.34c.1-.11.2-.31.31-.31a11.59,11.59,0,0,1,1.16.1,3.52,3.52,0,0,0,1.13.15,6.47,6.47,0,0,1,2.24.08,2.33,2.33,0,0,1,.69.28l.9-.46-.82-.85Z"/><path class="cls-59" d="M143.28,101l3.41.43.67.08h.5c.07,0,.13.12.21.13,1.15.19,2.31.36,3.46.56a6.39,6.39,0,0,1,.93.32v.17c-1-.16-1.93-.33-2.9-.47a6.78,6.78,0,0,0-1,0,7.42,7.42,0,0,0-1.11-.33c-1.47-.23-2.95-.44-4.42-.64-.25,0-.51,0-.76-.06Z"/><path class="cls-26" d="M131.22,90.89l2.54,1.39.68.72-1.25.22a7,7,0,0,0-.18-.75c-.07-.24-.53,0-.51-.44,0-.12-.27-.26-.46-.44l-.15.46Z"/><path class="cls-61" d="M146,100.17l-1.86-.87-4.06-2.74c-.13-.09-.25-.21-.38-.32.13,0,.31-.09.39,0,.84.58,1.65,1.22,2.52,1.77s2,1.2,3,1.8A1.92,1.92,0,0,1,146,100.17Z"/><path class="cls-26" d="M134.44,93l-.68-.72c.58.34,1.18.66,1.74,1,1.05.7,2.09,1.43,3.12,2.16a6.64,6.64,0,0,1,.62.57c-.66,0-1.1-.5-1.59-.81C136.54,94.54,135.5,93.75,134.44,93Z"/><path class="cls-59" d="M167.08,111.88l.34.17a.52.52,0,0,1,.1.23c0,1.47,0,2.94,0,4.41,0,0-.07.08-.1.13h0l-.17-1C167.19,114.49,167.13,113.18,167.08,111.88Z"/><path class="cls-59" d="M149.21,120.23a.81.81,0,0,1,.19-.84,4.84,4.84,0,0,1,1.42-1.6c.12-.06.19-.2.28-.3l.51-.17h0c.07.55-.43.69-.72.93a2.89,2.89,0,0,0-1,1.28c-.16.3-.29.64-.69.7Z"/><path class="cls-26" d="M149.9,119.53a2.89,2.89,0,0,1,1-1.28c.29-.24.79-.38.72-.93H152l-.48,1.59A2.34,2.34,0,0,0,149.9,119.53Z"/><path class="cls-59" d="M138.52,100.31l2.72.34-.34.34c-.6-.06-1.21-.1-1.8-.19C138.83,100.76,138.54,100.67,138.52,100.31Z"/><path class="cls-59" d="M167.43,116.82c-.18.72-.35,1.44-.54,2.16,0,.09-.21.14-.32.22a3.46,3.46,0,0,1,0-.46c.16-.84.33-1.67.51-2.5a1.34,1.34,0,0,1,.15-.29l.17.86Z"/><path class="cls-26" d="M159.94,104.73l1.7.68a2.64,2.64,0,0,0-1.8.16C159.21,105.16,160,105,159.94,104.73Z"/><path class="cls-26" d="M154,103l2,.5c-.59.48-.71.46-1.27-.05A3.89,3.89,0,0,0,154,103Z"/><path class="cls-59" d="M140.9,101l.34-.34,2,.34-1,.17Z"/><path class="cls-26" d="M156,103.54a5.5,5.5,0,0,1,2.38.68c-.77-.15-1.54-.29-2.3-.46C156.07,103.76,156.06,103.62,156,103.54Z"/><path class="cls-26" d="M151.61,117.32l-.51.17.21-.48Z"/><path class="cls-59" d="M167.42,116.81l-.17-.86v-.16Z"/><path class="cls-62" d="M161.82,70.56a11.29,11.29,0,0,1-3.36,1.55l-.35-.23c.64-.48.46-1.13.47-1.75,0-.37-.16-.6-.55-.6-.54,0-.66-.31-.64-.77s0-1,0-1.48l.51,0c.39.31.79.61,1.17.93s.7.63,1,.94l.24.81.61-.13Z"/><path class="cls-63" d="M178.45,65.78l0,.68a7,7,0,0,1-1-.58c-1.26-1-2.52-2-3.72-3.07-1-.9-1.92-1.89-2.89-2.82a40.56,40.56,0,0,0-3.65-3.53,1.72,1.72,0,0,1-.31-.39.32.32,0,0,1,0-.16,10.37,10.37,0,0,1,.91.54,12.09,12.09,0,0,1,.92.83c.31.33.61.68.93,1a1.22,1.22,0,0,0,.43.2,1.09,1.09,0,0,0,.16.38c1,1,1.93,1.9,2.9,2.85l.52.51h.16l.68.68c.5.45,1,.9,1.48,1.33s1,.85,1.55,1.27C177.84,65.7,178.06,66,178.45,65.78Z"/><path class="cls-63" d="M182.72,69a5.22,5.22,0,0,0,.67.49c.67.36,1.36.68,2.05,1l4.69-3.06c1.23-.79,2.46-1.57,3.71-2.35a2.5,2.5,0,0,1,.62-.2c0,.08,0,.2,0,.25a1.53,1.53,0,0,1-.31.26l-.85.51-.17.17-1.53,1c-.56.32-1.13.6-1.67,1-1.33.84-2.65,1.69-4,2.58a1,1,0,0,1-1,.06,17.78,17.78,0,0,1-3.57-2l.17-.18Z"/><path class="cls-64" d="M216.91,55.24c-.62.46-1.24.91-1.86,1.38-.12.09-.24.21-.36.32-.39.4-.79.79-1.19,1.19l-1,1.36L211.29,61c-.06,0-.14,0-.16,0l-1.71,2.17-1.36,1.53-.35-.13c.34-.44.63-.84.95-1.23,1.41-1.71,2.85-3.4,4.24-5.14a10.9,10.9,0,0,1,2.63-2.44l1.2-.76Z"/><path class="cls-65" d="M214.52,40.61c.36.06.71.13,1.07.17s.49.07.42.37c0,.13-.25.26-.41.3a5.45,5.45,0,0,1-.82,0l-.59,2h-1.07l-.47-.79A3.85,3.85,0,0,1,214.52,40.61Z"/><path class="cls-66" d="M161.82,70.56l-.86-.7-.85-.68c-.34-.31-.68-.64-1-.94s-.78-.62-1.17-.93l-.49-.68a2.45,2.45,0,0,1,1.35.8c1.74,1.38,3.43,2.81,5.17,4.17,1.2.93,2.46,1.77,3.69,2.65a.77.77,0,0,1,.14.21h-.36l-.31,0h0l-2.21-1.57Z"/><path class="cls-63" d="M216.91,55.24l-.18-.18a.25.25,0,0,1,0-.07,25.51,25.51,0,0,0,3.8-5c.68-1,1.34-2,2-3a2.64,2.64,0,0,0,.2-.37l.24.13a1.92,1.92,0,0,1-.13.56c-.58.9-1.19,1.78-1.79,2.66-.47.7-.92,1.41-1.41,2.1-.62.87-1.24,1.73-1.91,2.57A4.35,4.35,0,0,1,216.91,55.24Z"/><path class="cls-67" d="M214.52,40.61a3.85,3.85,0,0,0-1.87,2l-1,1.2-.16-.08.09-.61.34-.51a.77.77,0,0,0,.21-.14,8.55,8.55,0,0,1,1.93-2.18s0-.15.08-.23c.33-.24.65-.5,1-.73s.69-.42,1-.63c-.11.58-.61.83-1,1.18S214.76,40.38,214.52,40.61Z"/><path class="cls-68" d="M204.66,56.94,206,55.58c.1.32.7.39.41.94-.78-.06-1,.53-1.15,1.16a.5.5,0,0,0,.14.08c.26.08.62.06.5.49-.07.22-.54.29-.83.16s-.56-.62-.31-1.23C204.87,57,204.83,57,204.66,56.94Z"/><path class="cls-69" d="M167.4,74.47h.36c1,.52,2,1,3,1.55.71.36,1.45.68,2.18,1a3.66,3.66,0,0,1,.49.31h-.52l-3.12-1.48-.92-.41Z"/><path class="cls-70" d="M213.5,58.13c.4-.4.8-.79,1.19-1.19l-.36,2.31h-1.24c.2-.27.4-.53.58-.79S213.75,58.14,213.5,58.13Z"/><path class="cls-71" d="M172.86,77.35h.52l.84.17a1.42,1.42,0,0,0,1,.52c.61.3,1.23.59,1.82.91a3.94,3.94,0,0,1,.56.45,8.25,8.25,0,0,1-2.51-.93c-.75-.31-1.49-.64-2.23-1h0A.77.77,0,0,0,172.86,77.35Z"/><path class="cls-72" d="M204.6,70.19l2.13-4,.36-.67-.54.18.62-.59a.92.92,0,0,1,0,.9c-.68,1.25-1.32,2.54-2,3.79C205.06,69.94,204.79,70.05,204.6,70.19Z"/><path class="cls-70" d="M211.29,61l1.19-1.53c.09.43.33.89.23,1.27-.14.54-.74.05-1.09.24A1.17,1.17,0,0,1,211.29,61Z"/><path class="cls-73" d="M208.06,64.76l1.36-1.53a1.69,1.69,0,0,1-.16,1.53Z"/><path class="cls-66" d="M219.19,43.87a6.91,6.91,0,0,1,2.31-2.45A6.17,6.17,0,0,1,219.19,43.87Z"/><path class="cls-38" d="M220.52,46.21c.27-.93,1.06-1.46,1.74-2.2A3.76,3.76,0,0,1,220.52,46.21Z"/><path class="cls-73" d="M191.57,67.14l1.53-1a.9.9,0,0,0-.19,1.11C192.4,67.32,192,67.45,191.57,67.14Z"/><path class="cls-73" d="M193.27,66l.85-.51.31.71C193.92,66.5,193.6,66.19,193.27,66Z"/><path class="cls-74" d="M181.54,68.5l-.17.18-1.2-.85.18-.18L181,68l.33.18Z"/><path class="cls-68" d="M205.27,58.72h1.28a1.29,1.29,0,0,1-1.27.19Z"/><path class="cls-68" d="M203.64,58l.34-.34.5.35-.65.47Z"/><path class="cls-28" d="M167,55.91a.32.32,0,0,0,0,.16l-.88-.64.37-.36Z"/><path class="cls-75" d="M150.91,73.9h-2.35A4.57,4.57,0,0,1,150.91,73.9Z"/><path class="cls-76" d="M180.35,67.65l-.18.18a1.11,1.11,0,0,1-.83-.71,1.35,1.35,0,0,1,.36.18c.32.3.47.07.63-.17l0,.35Z"/><path class="cls-77" d="M175.24,78a1.42,1.42,0,0,1-1-.52C174.62,77.56,175.16,77.34,175.24,78Z"/><path class="cls-28" d="M164.84,54.74a.91.91,0,0,1,.87.53Z"/><path class="cls-26" d="M152.46,102.52a6.39,6.39,0,0,0-.93-.32c-1.15-.2-2.31-.37-3.46-.56-.08,0-.14-.09-.21-.13a1.08,1.08,0,0,0,1.06-.37h1.84c-.51.46-1.14.21-1.86.24a2.17,2.17,0,0,0,1.64.27c.53,0,1.05-.09,1.58-.14a4.52,4.52,0,0,0,1.19.76,12.77,12.77,0,0,0,2.32.25c.37,0,.61.1.57.52a9.41,9.41,0,0,1-1.41-.22A6.58,6.58,0,0,0,152.46,102.52Z"/><path class="cls-26" d="M162.32,105.24a35.71,35.71,0,0,0-5.19-1.87,5.13,5.13,0,0,1-.76-.33c.38-.43.63,0,.76.08l1.45-.33a1.16,1.16,0,0,0,1.08.94,6.06,6.06,0,0,0,1.54.35c.21,0,.44.21.69.34l-.21.19Z"/><path class="cls-26" d="M176.6,119.53l.86-.34c0,.12,0,.28.07.33.54.41.54.55.06,1a3.34,3.34,0,0,0-.5.71l-1.48.14A5.24,5.24,0,0,1,176.6,119.53Z"/><path class="cls-26" d="M152.12,101.5c-.53,0-1.05.12-1.58.14a2.17,2.17,0,0,1-1.64-.27c.72,0,1.35.22,1.86-.24l.81-.16C151.93,101,152.17,101.08,152.12,101.5Z"/><path class="cls-26" d="M165.89,108.14l-1-1.19c.12-.37.37-.43.7-.29l.48,1Z"/><path class="cls-26" d="M163.85,106.26l-1.53-1a2.62,2.62,0,0,1,.39-.15c.42-.07.78,0,.76.51h.69Z"/><path class="cls-26" d="M170.32,138.39l.42.48-.29.31C170.15,139.1,170.13,139,170.32,138.39Z"/><path class="cls-28" d="M158.74,90.66c-1.56-.46-3.13-.9-4.68-1.38-.56-.18-1.08-.46-1.62-.69.62.14,1.25.27,1.87.43a32.57,32.57,0,0,0,3.51,1.12A3.17,3.17,0,0,1,158.74,90.66Z"/><path class="cls-28" d="M152.11,88.44c-1-.46-2.09-.91-3.12-1.4-.47-.23-.9-.55-1.35-.82l.55-.13a13.84,13.84,0,0,0,3.59,2Z"/><path class="cls-28" d="M164.88,72.88l2.21,1.57a1.1,1.1,0,0,1-1-.46A8.32,8.32,0,0,0,164.88,72.88Z"/><path class="cls-28" d="M172.88,77.5l.26.63-.91.15L172,77.5Z"/><path class="cls-28" d="M152.11,88.44l-.33-.37.15-.47c.75.34.75.34.5,1Z"/><path class="cls-28" d="M167.4,74.47l1.42,1a2.4,2.4,0,0,1-1.73-1Z"/><path class="cls-28" d="M142.58,83l-1.06-.74A1.06,1.06,0,0,1,142.58,83Z"/><path class="cls-28" d="M144.12,84l-1.06-.71A1.31,1.31,0,0,1,144.12,84Z"/><path class="cls-34" d="M180,32.62a3.42,3.42,0,0,0,.26-.4,2.09,2.09,0,0,0,.27-.73c0-.57.19-.81.75-.9a6.4,6.4,0,0,1,.76,0c.45.38.69.12.84-.3l.52.13a2.42,2.42,0,0,0,1.36,0l.41.07c0-.14,0-.37-.05-.43-.52-.35-.4-.77-.17-1.22a2.57,2.57,0,0,1,.44,1.81l-4.48.43a1.13,1.13,0,0,0,.29,1.32c.11.07.21.21.32.21a15,15,0,0,0,2.92,0c.29,0,.58-.1,1-.18v6.14c-.06.18-.12.35-.17.53s-.23.67-.34,1c-.07-.53-.12-1.06-.23-1.57a1,1,0,0,0-.34-.45c-.1-.09-.28-.1-.36-.2a1.47,1.47,0,0,0-1.44-.51,3.5,3.5,0,0,1-.49,0l0-1-1,.21.09-.59-.14-.07-.59.63c0-1,.11-2.08.16-3.12a2.18,2.18,0,0,0,0-.51C180.61,32.45,180.35,32.43,180,32.62Zm3.73,1.21c-.24-.11-.51-.34-.72-.3-.45.09-.94.18-1.08.8s-.29,1.2.28,1.69l.16.18.63.69.06-.2a3.88,3.88,0,0,0,.61-.14c.26-.09.51-.22.76-.33l.35.43.19-1.19-.38.24v-.77c0-.77,0-.8-.87-1.11Z"/><path class="cls-78" d="M183.41,30.41l-.52-.13c-.15.42-.39.68-.84.3a7.9,7.9,0,0,0,.16-.79c0-.84.08-1.68.11-2.52a.38.38,0,0,0,0-.24c-.42-.53-.14-1,0-1.54a8,8,0,0,1,1.9,2c.28.44.49.92.73,1.38-.23.45-.35.87.17,1.22.08.06,0,.29.05.43l-.41-.07A1.28,1.28,0,0,0,183.41,30.41Zm-1-4.07c-.08.37.09.54.42.69a3.27,3.27,0,0,1,.76.64c.37.33-.09.64-.11,1.11l.84-.64C183.73,27.4,183.31,26.64,182.42,26.34Z"/><path class="cls-78" d="M173.4,35.63l-.75-.1v-.79A3.12,3.12,0,0,1,172,35c-.34,0-.68,0-1,0s-.57.15-.87.21-.57.07-1,.12l.39-1.46c-.8.11-.37,1.07-.92,1.44l-.28-.5L170,32.44a.6.6,0,0,1,.06.83,3.12,3.12,0,0,0-.23.49l.12.15,1.09-.55.9.8.39-.72c.65.69,1,.28,1.34-.42l.09,1.09A2.26,2.26,0,0,0,173.4,35.63Z"/><path class="cls-27" d="M185.46,37.94V32.43c-.43.08-.72.14-1,.18a15,15,0,0,1-2.92,0c-.11,0-.21-.14-.32-.21,1,0,2,0,3,0,.42,0,.83,0,1.29-.08,0,.28.05.48.05.67,0,1.47,0,2.94,0,4.41A3,3,0,0,1,185.46,37.94Z"/><path class="cls-79" d="M176.8,24c-.23-.3-.47-.59,0-.92.05,0,0-.24-.05-.46l.77-.19.13.18a3.16,3.16,0,0,1-.52.67.67.67,0,0,0-.31.72Z"/><path class="cls-80" d="M184.94,40.1c.11-.33.22-.67.34-1s.11-.35.17-.53A5,5,0,0,1,185,41l-.18-.54Z"/><path class="cls-81" d="M170.62,31.58l-.29.22a1.59,1.59,0,0,1,1-1.38c0,.1-.06.2-.08.3h0Z"/><path class="cls-30" d="M166.23,48.11l-1.41-.34A1.71,1.71,0,0,1,166.23,48.11Z"/><path class="cls-82" d="M167.93,34.5l-.39-1C168,33.71,168,34.11,167.93,34.5Z"/><path class="cls-83" d="M171.3,30.72c0-.1,0-.2.08-.3l.46-.37A.68.68,0,0,1,171.3,30.72Z"/><path class="cls-27" d="M171.52,30.93a10.38,10.38,0,0,1,1.74-.18c1.18.06,2.35.21,3.5.32.15,1-.1,1.41-1,1.39-1.4,0-2.81-.13-4.21-.23-.27,0-.67,0-.71-.43Z"/><path class="cls-27" d="M173.4,35.63a2.26,2.26,0,0,1,.31-1.52l.35-.29.25,0a1.08,1.08,0,0,1,1.23.52,1.25,1.25,0,0,1,0,1.42l-.3.5a1.71,1.71,0,0,1-1.35,0Z"/><path class="cls-27" d="M175.34,42.43s0-.06.06-.06c1.63.27,3.21-.48,4.84-.23l2,.28a1,1,0,0,1-1.23.38,10.41,10.41,0,0,0-4.08.29A1.37,1.37,0,0,1,175.34,42.43Z"/><path class="cls-27" d="M180,32.62c.34-.19.6-.17.66.28a2.18,2.18,0,0,1,0,.51c-.05,1-.11,2.08-.16,3.12v1.08c-.51.15-.67-.08-.67-.44,0-.73,0-1.46,0-2.2S180,33.4,180,32.62Z"/><path class="cls-27" d="M181,44a4.07,4.07,0,0,1-2.72.47,2.08,2.08,0,0,1-.65-.17c-.11-.06-.16-.24-.24-.37l.42-.17s.05,0,.07,0a3.36,3.36,0,0,0,2.55-.11c.15-.07.38,0,.57,0Z"/><path class="cls-84" d="M166.23,36.53l-.91-2.83a.66.66,0,0,1,.89.44,7.78,7.78,0,0,1,.35,1.46,5.76,5.76,0,0,1,0,.93Z"/><path class="cls-27" d="M175.25,36.24l.3-.5a1.25,1.25,0,0,0,0-1.42,1.08,1.08,0,0,0-1.23-.52l-.25,0,.24-.68c.24,0,.61-.06.64.5a1.25,1.25,0,0,1,1.25.47c-.1.58-.19,1.1-.27,1.62a1,1,0,0,1-.68.8Z"/><path class="cls-85" d="M178.79,61a4.4,4.4,0,0,1,.15,2.22l-.2.17c-.42-.55.36-1.2-.16-1.84-.24.56.1,1.17-.49,1.64l-.16-2Z"/><path class="cls-73" d="M170.14,58.47a1.22,1.22,0,0,1-.43-.2c-.32-.31-.62-.66-.93-1l.75,0a4.91,4.91,0,0,0,.56.56C170.4,58,170.37,58.23,170.14,58.47Z"/><path class="cls-86" d="M175.75,47.76a5.1,5.1,0,0,1-2-1l.64-.24Z"/><path class="cls-27" d="M177.68,40.35c.55-.6.79-.56,1.25.14C178.49,40.75,178.13,40.52,177.68,40.35Z"/><path class="cls-87" d="M172.86,46.23l-.68-.51c.14-.4.41-.44.85-.2Z"/><path class="cls-27" d="M179.69,40.38c.44-.72.44-.72,1.13-.29A1.23,1.23,0,0,1,179.69,40.38Z"/><path class="cls-73" d="M170.82,44.69a5.48,5.48,0,0,0-.46-.34s-.14.11-.22.17l-.37-.59h1Z"/><path class="cls-88" d="M170.49,45.37l.51.85-.57.13Z"/><path class="cls-89" d="M171.52,30.93l-.67.87-.23-.22.67-.86Z"/><path class="cls-73" d="M173.72,62.21l-.52-.51.9-.16Z"/><path class="cls-90" d="M175.25,36.24v.29c-.46,0-1,.24-1.34-.24A1.71,1.71,0,0,0,175.25,36.24Z"/><path class="cls-73" d="M174.56,62.89l-.68-.68C174.37,62.17,174.6,62.4,174.56,62.89Z"/><path class="cls-91" d="M166.23,36.53h.34l0,.53-.11,0Z"/><path class="cls-26" d="M148.92,101.14a1.08,1.08,0,0,1-1.06.37h-.5c-.21-.28-.07-.48.16-.65Z"/><path class="cls-66" d="M152.34,98a5,5,0,0,0-.55.68,4.73,4.73,0,0,0-.29.85c-.39,0-.29-.25-.25-.47a1.39,1.39,0,0,1,.92-1.22Z"/><path class="cls-27" d="M180.35,67.65v-.17l.35-.4c.95.14,1.41.87,2,1.45.08.09,0,.32,0,.49l-1.18-.52-.18-.33.09-.41L181,68Z"/><path class="cls-27" d="M214.19,40.1c0,.08,0,.19-.08.23a8.55,8.55,0,0,0-1.93,2.18.77.77,0,0,1-.21.14c0-.23.05-.46.08-.7s.07-.43.11-.65.3-.38.46-.56A1.49,1.49,0,0,1,214.19,40.1Z"/><path class="cls-8" d="M191.91,167.16a7.64,7.64,0,0,1-2.69.27c-.3,0-.6-.07-.86-.1-.19.17.3.49-.19.51l-1.13-.33a3.74,3.74,0,0,1,2-.36C190,167.17,190.94,167.16,191.91,167.16Z"/><path class="cls-7" d="M174.56,167.33l-.17.17h-.51l-.68-.16A1.08,1.08,0,0,1,174.56,167.33Z"/><path class="cls-9" d="M166.3,158.41c-.15.1-.23.2-.31.2s-.14-.12-.21-.19c.08-.07.15-.18.23-.21S166.16,158.31,166.3,158.41Z"/><path class="cls-7" d="M172.52,167.16q-.26.33-.51,0C172.18,166.62,172.35,167.22,172.52,167.16Z"/><path class="cls-50" d="M184.25,168.68l1.2-.16Z"/><path class="cls-50" d="M142.26,173.77l.34-.33h.51l.17.15,2,.88h0a4.19,4.19,0,0,0,.66.47c.45.21.92.37,1.39.55l.69.34-.19.19-3.22-1.22h0A5.26,5.26,0,0,0,142.26,173.77Z"/><path d="M159.26,175l-1.53.5-3.06.51a.6.6,0,0,1,.67-.6,1.7,1.7,0,0,0,.85-.21,5,5,0,0,1,1-.15,4.51,4.51,0,0,0,.53-.1A2.18,2.18,0,0,1,159.26,175Z"/><path d="M143.11,173.45h-.51c-.54-.11-1.08-.26-1.62-.33-.81-.09-1.62-.11-2.43-.18a1.24,1.24,0,0,1-.38-.16h.35a5.22,5.22,0,0,1,2,0,3.64,3.64,0,0,0,1.85-.07,2.43,2.43,0,0,1,.9,0Z"/><path d="M162,174.13l-1.88.68.25-1.1,1-.21C161.53,173.71,161.48,174.25,162,174.13Z"/><path d="M145.32,174.48l-2-.88a3.22,3.22,0,0,1,2-.08Z"/><path class="cls-92" d="M147.86,176l.19-.19,1.35.17.51.17.52.16-.52.18A4.83,4.83,0,0,1,147.86,176Z"/><path d="M150.43,176.33l-.52-.16-.51-.17,3.06.17h.86l-.69.17h-2.2Z"/><path d="M147.36,175.49c-.47-.18-.94-.34-1.39-.55a4.19,4.19,0,0,1-.66-.47c.44,0,.76.38,1.27.31C146.8,174.75,147.1,175.24,147.36,175.49Z"/><path d="M153.32,176.17h-.86a2,2,0,0,1,1.87-.17Z"/><path class="cls-9" d="M142.26,173.77a5.26,5.26,0,0,1,2.38,1,3.54,3.54,0,0,1-2.15-.52c-.1,0-.21-.36-.4-.49Z"/><path class="cls-93" d="M138,173.28c1.05.06,2.11.1,3.17.19.14,0,.27.21.41.32a7.29,7.29,0,0,0-2.71-.12C138.42,173.73,138.19,173.64,138,173.28Z"/><path class="cls-93" d="M135.8,172.6l2.21.68c-.56.2-1.1-.13-1.64-.06s-.45-.22-.57-.45Z"/><path class="cls-94" d="M150.93,176.34h1.7l.69.18a1.85,1.85,0,0,1-.53.15,6.56,6.56,0,0,1-2.38-.15Z"/><path class="cls-95" d="M150.93,176.34l-.52.18h-.5l.52-.18Z"/><path class="cls-96" d="M160.11,69.18l.85.68-.61.13Z"/><path class="cls-27" d="M181,68l.42-.23-.09.41Z"/><path class="cls-27" d="M182.38,36.2l-.16-.18c0-.08,0-.17-.05-.25-.43-1.38.14-2.08,1.57-1.94h0a1.67,1.67,0,0,1,.62,1.48C184.15,36.31,183.46,36.61,182.38,36.2Z"/><path class="cls-97" d="M182.38,36.2c1.08.41,1.77.11,2-.9a1.67,1.67,0,0,0-.62-1.48c.83.31.86.34.87,1.11v.77l.38-.24-.19,1.19-.35-.43c-.25.11-.5.24-.76.33a3.88,3.88,0,0,1-.61.14l-.06.2Z"/><path class="cls-27" d="M183.74,33.83c-1.43-.14-2,.56-1.57,1.94,0,.08,0,.17.05.25-.57-.49-.42-1.07-.28-1.69s.63-.71,1.08-.8C183.23,33.49,183.5,33.72,183.74,33.83Z"/><path class="cls-27" d="M183.41,30.41a1.28,1.28,0,0,1,1.36,0A2.42,2.42,0,0,1,183.41,30.41Z"/><path class="cls-27" d="M182.42,26.34c.89.3,1.31,1.06,1.91,1.8l-.84.64c0-.47.48-.78.11-1.11a3.27,3.27,0,0,0-.76-.64C182.51,26.88,182.34,26.71,182.42,26.34Z"/><path class="cls-17" d="M164,159.61l-.28.23-.13.29-.06.14-.09.22-.05.16-.11.37-.11.54-.07.48,0,.48V164l0,.56v.15l0,.17-.09.27-.07.13v.34l.62.36a1.33,1.33,0,0,1-.44-.73v-.13c0-.23,0-.76,0-1.29,0-.68.06-1.38.07-1.49A8.26,8.26,0,0,1,164,159.61Z"/><polygon id="Corpo" points="163.2 165.69 163.15 165.42 163.15 164.95 163.18 164.49 163.2 163.98 163.12 163.26 163.1 163.16 163.13 162.57 163.15 162.26 163.24 161.67 163.41 161 163.48 160.78 163.76 160.06 163.89 159.77 163.96 159.61 164.24 159.06 164.34 158.74 164.79 157.69 164.91 157.2 165.06 156.87 165.88 156.32 166.57 155.88 166.98 155.5 167.52 154.86 167.32 156.22 167.12 157.67 166.97 158.74 168.89 159.81 173.88 158.61 176.24 157.29 175.39 155.41 175.82 155.13 176.12 154.9 176.24 154.75 176.33 154.57 176.42 154.39 176.73 154.48 177.16 154.53 177.46 154.57 177.97 154.91 178.65 155.76 179.67 157.29 180.11 157.84 180.43 158.23 180.74 158.61 181.2 159.16 181.58 159.55 181.88 159.84 182.58 160.49 182.76 160.67 182.91 160.81 183.07 160.96 183.31 161.18 183.61 161.43 183.78 161.57 184.02 161.75 184.34 161.97 184.71 162.19 184.96 162.33 185.21 162.46 185.51 162.62 185.88 162.79 186.17 162.93 186.51 163.09 186.81 163.22 187.26 163.44 187.55 163.58 187.83 163.75 188.49 164.03 189.28 164.35 189.77 164.55 190.43 164.82 191.31 165.18 191.57 165.29 191.87 165.46 192.29 165.69 192.6 165.86 193.1 166.14 192.77 166.31 192.54 166.56 192.46 166.74 192.25 167.16 192.19 167.47 191.04 167.67 190.12 167.82 189.13 167.99 187.39 168.28 186.23 168.47 185.45 168.52 184.25 168.68 182.48 168.69 180.09 168.67 179.23 168.62 178.59 168.56 177.97 168.51 172.59 167.49 172.01 167.5 170 167.32 167.77 167.15 165.77 166.53 164.41 166.22 163.73 166.06 163.45 165.99 163.2 165.69"/><polygon class="cls-98" points="144.97 161.13 145.7 161.13 146.49 161.29 146.83 161.64 147.36 162.04 147.86 162.47 148.38 162.91 148.76 163.41 149.28 163.83 150.08 164.28 150.93 164.78 151.36 165.08 151.71 165.46 152.63 165.99 152.98 166.22 153.32 166.66 153.73 166.82 154.03 166.82 154.67 166.82 155.13 166.57 155.44 166.3 155.08 165.94 153.98 164.84 152.86 163.72 152.22 163.02 151.27 161.93 150.7 161.32 150 160.65 149.69 160.38 149.13 159.96 148.82 159.74 148.67 159.64 148.56 159.62 148.5 159.75 148.18 159.86 147.29 160.14 146.66 160.34 146.3 160.46 145.86 160.61 145.5 160.79 144.97 161.13"/><path class="cls-21" d="M145.43,170.71l3.74-3.78a4.31,4.31,0,0,1,1-.06,1.48,1.48,0,0,1,.32.89l-4.06,3.9a1.74,1.74,0,0,1-.82-.06A1.06,1.06,0,0,1,145.43,170.71Z"/><path class="cls-21" d="M138.31,160l1-1.22Z"/><path class="cls-21" d="M169.83,164.44l3.74-3.79a5.71,5.71,0,0,1,1-.06,1.48,1.48,0,0,1,.32.89l-4.06,3.91a2.05,2.05,0,0,1-.82-.06A1,1,0,0,1,169.83,164.44Z"/><polygon class="cls-21" points="147.86 162.47 148.25 162.04 148.56 161.64 148.91 161.25 149.27 161.05 149.73 160.98 150 160.98 150.35 160.98 150.57 161.19 150.74 161.37 150.28 161.25 150 161.25 149.73 161.25 149.3 161.48 148.91 161.8 148.63 162.07 148.36 162.34 148.06 162.63 147.86 162.47"/><polygon class="cls-21" points="149.1 163.69 149.39 163.22 149.74 162.91 150.04 162.63 150.35 162.4 150.82 162.34 151.32 162.32 151.61 162.32 152 162.77 151.37 162.62 151.03 162.63 150.74 162.68 150.28 162.89 150 163.17 149.73 163.44 149.45 163.71 149.33 163.86 149.1 163.69"/><polygon class="cls-21" points="151.36 165.08 151.57 164.6 151.81 164.28 152.12 164.07 152.49 163.97 152.84 163.97 153.1 163.97 153.34 164.21 153.01 164.26 152.74 164.26 152.47 164.26 152.03 164.53 151.92 164.81 151.64 165.38 151.36 165.08"/><path class="cls-21" d="M141.58,169.78l3.74-3.79a4.92,4.92,0,0,1,1-.05,1.61,1.61,0,0,1,.32.88l-4.06,3.91a1.87,1.87,0,0,1-.82-.06A1,1,0,0,1,141.58,169.78Z"/><path class="cls-21" d="M173.94,165.26l3.74-3.79a4.92,4.92,0,0,1,1-.05,1.58,1.58,0,0,1,.32.88L175,166.21a1.87,1.87,0,0,1-.82-.06A1,1,0,0,1,173.94,165.26Z"/><polygon class="cls-98" points="174 156.21 175.13 156.1 176.24 156.61 176.89 157.29 178.1 158.51 179.43 159.84 180.86 161.29 181.88 162.04 182.92 162.04 183.78 161.57 182.58 160.49 181.2 159.16 180.43 158.23 179.67 157.29 178.65 155.76 177.97 154.91 177.46 154.57 176.42 154.39 174 156.21"/><polygon class="cls-21" points="176.89 157.29 177.19 156.61 177.38 156.05 177.79 155.76 178.31 155.42 178.65 155.76 179.02 156.32 178.65 156.27 178.3 156.36 177.87 156.58 177.48 157.29 177.4 157.8 176.89 157.29"/><polygon class="cls-21" points="178.54 158.95 178.65 158.41 178.81 157.94 179.19 157.71 179.43 157.55 179.66 157.5 179.83 157.5 180 157.7 179.84 157.69 179.65 157.74 179.52 157.8 179.3 157.97 179.09 158.16 178.89 158.38 178.75 158.79 178.75 159.16 178.54 158.95"/><path class="cls-21" d="M179.43,159.84l.14-.23.21-.45L180,159l.39-.16h.5l.24.29-.33.08-.19,0a1.33,1.33,0,0,0-.42.12l-.19.2-.2.33-.15.22Z"/></g></g></g></g></g></svg>