<svg xmlns="http://www.w3.org/2000/svg" viewBox="0 0 384.38 594.3"><defs><style>.cls-1{fill:#fefefd;}.cls-2{fill:#fefefe;}.cls-3{fill:#fff;}.cls-4{fill:#fefefc;}.cls-5{fill:#f6f4f3;}.cls-6{fill:#f5f3f3;}.cls-7{fill:#f7f6f5;}.cls-8{fill:#f9f8f7;}.cls-9{fill:#f4f2f2;}.cls-10{fill:#f7f5f5;}.cls-11{fill:#f5f3f2;}.cls-12{fill:#faf8f7;}.cls-13{fill:#fcfbfa;}.cls-14{fill:#faf9f8;}.cls-15{fill:#f3f0f0;}.cls-16{fill:#fbfaf9;}.cls-17{fill:#f9f8f8;}.cls-18{fill:#f8f6f6;}.cls-19{fill:#f2f0ef;}.cls-20{fill:#5b5a5d;}.cls-21{fill:#b08c74;}.cls-22{fill:#a9dff4;}.cls-23{fill:#171b27;}.cls-24{fill:#181c28;}.cls-25{fill:#9a725e;}.cls-26{fill:#b38d77;}.cls-27{fill:#b38c74;}.cls-28{fill:#b08b75;}.cls-29{fill:#b28b75;}.cls-30{fill:#b28f7b;}.cls-31{fill:#ae8d7b;}.cls-32{fill:#9c7860;}.cls-33{fill:#ac8d78;}.cls-34{fill:#1d242e;}.cls-35{fill:#b69684;}.cls-36{fill:#b59383;}.cls-37{fill:#b6927f;}.cls-38{fill:#b3937f;}.cls-39{fill:#b58f7b;}.cls-40{fill:#dddad8;}.cls-41{fill:#ddd8d8;}.cls-42{fill:#dfdcdc;}.cls-43{fill:#dfdbda;}.cls-44{fill:#dddad9;}.cls-45{fill:#e0dbdb;}.cls-46{fill:#ded9d8;}.cls-47{fill:#dcd9d9;}.cls-48{fill:#dcd8d8;}.cls-49{fill:#fcfcfc;}.cls-50{fill:#b29e91;}.cls-51{fill:#b09582;}.cls-52{fill:#ddd9d9;}.cls-53{fill:#505053;}.cls-54{fill:#fdfefd;}.cls-55{fill:#a2897a;}.cls-56{fill:#b08d75;}.cls-57{fill:#fefdfd;}.cls-58{fill:#9a765e;}.cls-59{fill:#99755d;}.cls-60{fill:#b28b73;}.cls-61{fill:#9b775f;}.cls-62{fill:#9c7661;}.cls-63{fill:#b28c76;}.cls-64{fill:#8e7063;}.cls-65{fill:#ae8a72;}.cls-66{fill:#8d7160;}.cls-67{fill:#b48f7c;}.cls-68{fill:#ad8971;}.cls-69{fill:#9b755e;}.cls-70{fill:#a98f86;}.cls-71{fill:#957262;}.cls-72{fill:#af896f;}.cls-73{fill:#e3d4cd;}.cls-74{fill:#b08c75;}.cls-75{fill:#161d27;}.cls-76{fill:#a98772;}.cls-77{fill:#191c27;}.cls-78{fill:#1e2026;}.cls-79{fill:#977f6f;}.cls-80{fill:#9a745c;}.cls-81{fill:#b18a77;}.cls-82{fill:#ae8871;}.cls-83{fill:#ad8871;}.cls-84{fill:#ad8870;}.cls-85{fill:#937f77;}.cls-86{fill:#ac8875;}.cls-87{fill:#9e7a62;}.cls-88{fill:#dcd9d7;}.cls-89{fill:#fcfcfa;}.cls-90{fill:#ded9d9;}.cls-91{fill:#d6d2d2;}.cls-92{fill:#ac8970;}.cls-93{fill:#ab8a75;}.cls-94{fill:#999;}</style></defs><g id="Camada_2" data-name="Camada 2"><g id="Camada_1-2" data-name="Camada 1"><g id="Mov_Fechado_Squat"><path class="cls-1" d="M163.37,534.64a26.17,26.17,0,0,1,2.48-11.18l.57.65c.43-1.05.86-2.09,1.3-3.14H169c0,.65.08,1.3.13,1.95h.36l.13-1.95c.41,0,1.06,3.53,1,5.48h-3.07c.14,2.09.64,3.93-.72,5.77-.58.78-.11,2.43.07,3.66.1.71,1,1.52.76,2-.27.68-1.2,1.1-1.89,1.68,0,2.72,2.57,4,3.84,6,.37.6,1.87.69,2.85.67,1.72,0,3.43-.34,5.14-.54.45,1,1,1.87,1.69,1.94,4.88.53,9.78.91,14.68,1.3.9.07,1.66.16,1.78,1.25v.64h-8.07l-6.79-.65c-2.58-.8-5.14-1.69-7.74-2.38s-5.37-1.24-8.06-1.85c1.57,1.89,8.61,4,14.52,4.86L187,552l2.44,0a14.22,14.22,0,0,0,2.6.56c2.46.08,4.92,0,7.38,0,4,.68,8,1.34,12,2,2,.34,4,.73,6,1.09h0l3.72.6,3.69,0,5.63.59h8.71l3.77-.58,7.4-.64h2.49c-.05.87-.1,1.74-.14,2.48H240.38c-2.26.32-4.65-.7-6.83.62h-2.48a27.92,27.92,0,0,1-3.78-.14c-3.67-.63-7.3-1.16-10.78.74a2,2,0,0,1-2.73-.65c-.4-.55-.31-1.47-.5-2.61a26.15,26.15,0,0,1-3.83,0c-1.25-.18-2.42-.91-3.74-.35-2.26-2.54-4.54-1.21-6.68,0-2.89-1.87-5.9-.18-8.8-.57s-6,0-9.21,0c-.42-3.59-4.1-2.59-6.05-4a11.46,11.46,0,0,1-2,1.78,2.07,2.07,0,0,1-1.72-.06,5.78,5.78,0,0,1-2.38-2.13c-.75-1.92-2.39-1.62-3.74-1.82a2.47,2.47,0,0,0-3,2.69c0,1.3,0,2.6,0,4.35l3,1.17.06,1h-1.86c-1.57-.16-2.34-1.32-3.11-2.48v-6.22c1.72-1.21,1.78-3.25,2.49-5,.34-.19.69-.37,1-.58a.34.34,0,0,0,.13-.27C163.74,540.7,164.68,537.61,163.37,534.64Z"/><path class="cls-1" d="M169,581.24l-.63,1.24c-.44-.09-1-.37-1.33-.24-2.42.82-4.79,1.81-7.23,2.58-3.31,1-6.67,2-10,2.94-3.83,1.11-7.6,2.5-11.49,3.28a64.31,64.31,0,0,1-11.89,1.31c-6.37,0-12.74-.36-19.11-.61-.35,0-.69-.37-1-.56a8.22,8.22,0,0,1,2.31-.36c2.91.42,3.18.32,4.72-2.76a15.76,15.76,0,0,1-3.1-.06c-.54-.1-1-.76-1.45-1.17,2,0,4.13.28,5.91-1.18.24-.2.89.2,1.33.14,2-.27,3.79,1.4,5.81.42-1.17,2.31-2.51,2.61-5.6,1l.2,3.09h7.26v-4.14c.44,0,1.18,0,1.27.19,1,2.32,3.15,1.85,5,1.92a12.19,12.19,0,0,0,2.6-.46l1.69-3.27c2.93,1.32,3.74,1,5-1.49.66-.21,1.32-.45,2-.63,1.61-.42,3.24-.82,4.86-1.22l7.42-1.89,3.09-.61h1.88l-.72,2.37c-1.24.24-2.71-1.5-3.89.49,1.9.27,3.7,1.81,5.56-.24-.1-.82-.22-1.72-.33-2.62l1.86-.62c-.4.61-1.56,1.54-.35,1.88,2,.54,4.1.43,6.95.65-1.77-1.87-.54-3.57-1.46-5.23s-.8-7-.17-6.62l2.49,8.08c.2,1.45.41,2.9.62,4.35ZM141.42,588l.71.68c1.38-.44,3.48-.48,4-1.4,1.17-2.07,3.16-1.35,4.65-1.94s3.51-.27,5.81-.36c-.75-.91-1.05-1.66-1.47-1.73-2.58-.39-5.11-.31-7.28,1.8-1.16-2-2.81-2-4.63-1.72Z"/><path d="M70.21,526.56c1-.87,1.94-1.78,3-2.61,1.21-1,2.24-3.7,2.24-3.7l1.47-1.65c-.67,3.33-1.34,6.67-2,10l-.77,3.22s-.16,2.4.38,2.82c3.49,2.66,6.93,5.64,11.85,4.92,1.53-.18,2.78-.74,3.22-2.39l2-2.73c3.11-4.29,6.77-7.86,12.15-9.15,2.42-.14,4.84-.36,7.26-.41,1.9,0,4.16,1.86,4.86,3.75.12.33.54.57.86.8.62.45,1.32.79,1.88,1.29,1,.86,2.7,1.85,2.66,2.72-.1,2.1,2.07,1.26,2.43,2.45H119l.31-.66c-.91-1-1.79-2.05-2.75-3-.68-.69-1.9-1.13-2.12-1.91a3.53,3.53,0,0,0-3.18-2.84c-.72-.12-1.34-.83-1.9-1.19-.7.55-1.25,1.31-1.9,1.42a9.41,9.41,0,0,1-2.83-.44c-.39,2.5-1.84,3.32-4.17,3.1a2.75,2.75,0,0,0-2.08.93c-.65.8-.5,2-1.82,2.63-.79.37-1.11,1.73-2.43,1.07-1.09,1.78-3.85,2.56-3.08,5.48l1.77,1.44c-1.25.26-2.13.21-2.68.61-.75.54-1.3,1.41-2.34.82-.82-.47-1.55-1.08-2.44-1.71-1.19.64-2.44,1.36-3.73,2a19.59,19.59,0,0,1-2.15.77c-.11-.73-.18-1.48-.34-2.21a17.11,17.11,0,0,0-.79-2.93c-.1-.24-.88-.19-1.35-.27l-.81-1.48c-1.48,1.16-2-.37-2.92-1-.87-.07-1.55-.28-1.57-1.4,0-1.4-.19-2.8-.29-4.19.17-.87.35-1.74.55-2.76l-3,1.51C69.38,528.64,69.79,527.6,70.21,526.56Z"/><path d="M216.16,504.2l1.86,1.24c-.56,1.38-.27,1.81,1.25,1.87l1.24,1.24c-1,.62-.16,1.24,0,1.86l-2.83,1.12c.53-3.48-.19-5-2.28-5.24-2.31-.26-3,.57-3.33,4.13l-4.4-.64,2.61,1.81c-.1.24-.13.41-.18.42-.92.1-1.83.19-2.75.27s-3.73,1.43-3.89,1.87c-.53,1.43-1,2.88-1.62,4.62l-3.49.72c-.72,2.07-3.51,2.62-5.13,4.44-.15.17-.79,0-1.17-.12-3.63-1.11-7.17-1.1-10.08.7l-6.06-4.25a32.32,32.32,0,0,1,.61-5.93c.57-2,1.94.89,1.36,5.12,6.41,4.94,14.76,2.85,19-2.24l2.53-3.08a24,24,0,0,1,9.19-6.87C211.44,507,213.48,504.82,216.16,504.2Z"/><path class="cls-2" d="M40.39,268.74l0,.68c-2.36,1.65-4.72,3.29-7.07,4.95-4,2.85-8.29,5.41-11.63,9.13l-6.39,6.29-2.92,3.67A16,16,0,0,0,11,295a54.75,54.75,0,0,0-9,22.44A62.78,62.78,0,0,0,1.84,339c.44,2.53.72,5.09,1.34,7.57a43,43,0,0,0,9,17.8C19,372.35,28,376.7,38,379.2c4.09,1,8.31,1.55,12.48,2.22,11.61,1.84,23.29,1.52,34.92.68,9.25-.67,18.43-2.18,27.65-3.31l0,0c-.66,1.24-1.29,2.5-2,3.73-1,1.76-2,3.5-3,5.25l-6.88,12,0-.06c-.58,1.06-1.22,2.1-1.75,3.19-1.81,3.75-3.6,7.53-5.39,11.29l-.83-.07C98.3,402.44,103.94,391,111.56,380c-3.55.52-6.35,1-9.17,1.33-3.36.42-6.73.77-10.09,1.12-2.46.25-4.91.45-7.37.66s-4.91.5-7.37.56c-4,.09-8.08,0-12.11,0a98.47,98.47,0,0,1-14.14-1.1A84.44,84.44,0,0,1,37.08,380a77.21,77.21,0,0,1-9.9-3.32,48,48,0,0,1-15.11-11,43,43,0,0,1-9.52-17.79A62.17,62.17,0,0,1,.1,327.12c.59-9.91,2.37-19.56,7.43-28.41a63.63,63.63,0,0,1,15.63-18.13c4.48-3.6,9.38-6.68,14.11-10C38.27,269.93,39.35,269.36,40.39,268.74Z"/><path class="cls-2" d="M247.22,558.25h5.45c0-.74.09-1.61.14-2.48l1.86-.64c3.53-.52,7.07-1,10.6-1.57a39.83,39.83,0,0,0,5.1-1.08c.88-.26,2.2-.17,2.29-1.64l-2.46-.67c-.22-1.16.35-1.61,1.53-1.57l-2.15-2.77c.68.17,1.35.38,2,.5a15.63,15.63,0,0,0,1.68.12v.62c.21,2.48.42,5,.62,7.45a6.55,6.55,0,0,1-2.49,4.42,15.35,15.35,0,0,1-7.2,3.08,13.12,13.12,0,0,0-2.73,1.2,28,28,0,0,0-9.31,1.84,8.39,8.39,0,0,1-2.36.62c-4,.46-8,.85-11.93,1.27a88.71,88.71,0,0,1-26.09-3.11,2,2,0,0,1,1.9-2.35c1.38-.18,2.85-.56,4.09.68.65.65.76,2,2.48,1.5.78-.24,2,1,3,1.42.81.32,1.67.69,2.54-.23a1.9,1.9,0,0,1,1.87.13c1.4,2,3.1.77,4.7.66,2.24-.16,4.63-.87,6.69-.34,3.79,1,6.4,0,8.31-3.54l8.53,1c.28-1.17.58-2.38,1-4.1C253.26,560.35,250.24,559.23,247.22,558.25Z"/><path class="cls-3" d="M195.22,411.07l-.8-.06c4-11.92,9.63-23.08,15.71-34.48-1.26-.14-2-.3-2.8-.3-9,0-18,0-27-.05a4.53,4.53,0,0,0-4.81,3c-2.18,5-4.52,10-6.81,14.93-3.46,7.49-6.88,15-10.41,22.48-3.38,7.17-6.93,14.26-10.29,21.44s-6.69,14.65-10,22c-1.69,3.74-3.36,7.49-5.05,11.23q-6.51,14.38-13,28.76a11.34,11.34,0,0,1-1.18,1.71c0-.25-.09-.5-.14-.75a19.65,19.65,0,0,1,.67-2.05c5.14-11.38,10.25-22.78,15.46-34.13q10-21.8,20.16-43.54,8.42-18.11,16.9-36.17c1.49-3.17,3.1-6.28,4.66-9.42,1-.08,2.05-.24,3.08-.24q14.88,0,29.75,0a15.37,15.37,0,0,1,2.42.36.23.23,0,0,0,0,.38,143.69,143.69,0,0,0-11.14,22.26,12.76,12.76,0,0,0-.89,1.56C198.18,403.69,196.71,407.38,195.22,411.07Z"/><path d="M112.69,523.87c4.91,3.36,8.45,8.08,12.39,12.41.63.68,1.25,1.38,1.91,2,6,6,12,11.91,17.92,18,3,3.1,6.65,4.8,10.55,6.22,2.7,1,5.47,1.84,8.08,3,1.14.52,2,1.73,2.93,2.62l-.62.62a7.52,7.52,0,0,1-1.87-1c-2.07-2.07-4.87-2.69-7.44-3.61a7,7,0,0,0-2.26-.35c-.4,0-.8,0-1.21,0-.59,0-1.19,0-1.77,0H151c.07-.51.15-1,.22-1.52-2.22-.35-4.91-2.07-5.63-3.59l-1,.31a13.41,13.41,0,0,0-1.7-2.58c-3.25-3.11-7-5.79-9.08-9.92a.88.88,0,0,0-.75-.36c-1.24.35-1.57-.38-2-1.34-1.19-2.85-3.78-4.54-6-6.3a2.93,2.93,0,0,1-1.36-2.65c-.36-1.19-2.53-.35-2.43-2.45,0-.87-1.68-1.86-2.66-2.72-.56-.5-1.26-.84-1.88-1.29-.32-.23-.74-.47-.86-.8-.7-1.89-3-3.79-4.86-3.75-2.42,0-4.84.27-7.26.41l6.73-2.16C110.48,522,111.44,523,112.69,523.87Z"/><polygon points="151.99 562.32 164.88 566.89 162.65 570.6 148.88 565.07 151.99 562.32"/><path class="cls-4" d="M232.31,523.46c2.9,2.57,5.55,5.52,8.76,7.6,3.73,2.42,8,4.07,12,6.06a10.62,10.62,0,0,1,1,.63c-.64,1.09.43,1.09.93,1.37,1.12.62,2.27,1.16,3.42,1.74-1.79.66-3.81,1.17-5.17-.34-1.73-1.9-3.81-2.18-6.41-2.26.23-2.1-1-2.32-2.68-2.13a2.52,2.52,0,0,1-1.54-.56c-1.11-.79-2-2.1-3.26-2.4-1.64-.42-.29-2.83-2.46-2.83-1.24,0-2.49-1.12-3.73-1.77-.14-.07-.12-.41-.26-.54-1.7-1.62-3.42-3.23-5.39-5.07,0-.26.1-1,.18-1.9l-2.3.25c-.42-1.93-.78-3.62-1.14-5.31,1.06,1.1,2.08,2.23,3.2,3.26a22.54,22.54,0,0,0,2.39,1.71h0A2.58,2.58,0,0,0,232.31,523.46Z"/><path class="cls-5" d="M106.23,591.18c.35.19.69.55,1,.56,6.37.25,12.74.66,19.11.61A64.31,64.31,0,0,0,138.27,591c3.89-.78,7.66-2.17,11.49-3.28,3.34-1,6.7-1.89,10-2.94,2.44-.77,4.81-1.76,7.23-2.58.38-.13.89.15,1.33.24a62.82,62.82,0,0,1-15,5.63c-4.36,1.09-8.66,2.45-13,3.69l-3.73.62-5,.62-3.72.62H115.55l-4.35-.61-6.83-.63-5.59-.62-8.08-1.25,1.86-1.23c2.62.41,5.24.87,7.86,1.23,1.93.27,3.87.42,5.81.63Z"/><path class="cls-6" d="M160.26,555.77c.77,1.16,1.54,2.32,3.11,2.48,2,.82,4,2,6.16,2.39,5.2.87,10.47,1.36,15.72,2,2,.24,4,.41,6.07.61v.62h-3.73c-2.14,0-4.29,0-6.44,0a10.47,10.47,0,0,1-2.26-.59l-4.34-.62c-3.37-.66-6.79-1.13-10.08-2.07-2.08-.59-4.29-1.53-4.83-4.14Z"/><path class="cls-7" d="M211.81,563.84A88.71,88.71,0,0,0,237.9,567l1.25.62c0,.21,0,.41,0,.62H228l-3.72-.62c-1.6-.2-3.21-.34-4.8-.62-3.38-.58-6.74-1.24-10.11-1.87v-1.23Z"/><path class="cls-8" d="M70.21,526.56c-.42,1-.83,2.08-1.25,3.11a18.8,18.8,0,0,0-1.68,2.9c-2,5.37-3.93,10.76-5.77,16.18-.78,2.29-1.25,4.67-1.86,7-.21-.83-.41-1.66-.62-2.49,1.63-5.8,2.91-11.69,5.53-17.22,1-2.06,1.41-4.44,2.84-6.33C68.26,528.61,69.27,527.62,70.21,526.56Z"/><path class="cls-9" d="M77,588.69A57,57,0,0,1,58,583.15c-1.16-.59-2.84-1.15-2.07-3.15.2-.42.41-.83.62-1.24A3,3,0,0,0,58.79,582c1.51.62,3.05,1.14,4.58,1.71,2.18.76,4.32,1.67,6.54,2.24,2.54.65,5.16,1,7.75,1.48C77.45,587.86,77.24,588.28,77,588.69Z"/><path class="cls-10" d="M56.54,578.76c-.21.41-.42.82-.62,1.24-1.2-2.5-.62-5,.32-7.34a49.53,49.53,0,0,1,2.83-5.27c-.22-1.39-.45-2.78-.67-4.17V557l.63-3.73c.21.83.41,1.66.62,2.49V557a7,7,0,0,0,0,6.21c.52,1.8.45,3.91,2.48,5,0,.42,0,.83,0,1.24l-2.09-.84C58.05,571.67,56.32,574.85,56.54,578.76Z"/><path class="cls-11" d="M239.15,567.57,237.9,567c4-.42,7.95-.81,11.93-1.27a8.39,8.39,0,0,0,2.36-.62,28,28,0,0,1,9.31-1.84v.63c-3.34.82-6.68,1.69-10,2.46-1.39.32-2.83.43-4.25.64l-3.72.62h-4.34Z"/><path class="cls-4" d="M273.3,546.45a15.63,15.63,0,0,1-1.68-.12c-.69-.12-1.36-.33-2-.5l-4.32-.24c.1-1.17-.57-1.69-2-1.66-1.6,0-3.1-.3-3-2.45,2.14.8,4.28,1.64,6.44,2.38.25.09.67-.33,1-.52Z"/><path class="cls-7" d="M261.5,563.85v-.63a13.12,13.12,0,0,1,2.73-1.2,15.35,15.35,0,0,0,7.2-3.08,6.55,6.55,0,0,0,2.49-4.42l.63,1.25A8.45,8.45,0,0,1,268,562C265.82,562.56,263.67,563.24,261.5,563.85Z"/><path class="cls-12" d="M170.82,511.66c-.41,1.86-.83,3.72-1.24,5.59-1.74.68-1,2.63-1.86,3.72-.44,1-.87,2.09-1.3,3.14l-.57-.65.42-1.26c.47-1.44.94-2.88,1.42-4.32.57-1.74,1.15-3.47,1.76-5.19C169.61,512.24,170.35,512,170.82,511.66Z"/><path class="cls-13" d="M267.71,543.34c-.34.19-.76.61-1,.52-2.16-.74-4.3-1.58-6.44-2.38l-1.86-.62c-1.15-.58-2.3-1.12-3.42-1.74-.5-.28-1.57-.28-.93-1.37Z"/><path class="cls-14" d="M216.16,504.2c-2.68.62-4.72,2.82-7.55,3.06a21.77,21.77,0,0,0,2.67-1.84,7.44,7.44,0,0,0,1.1-1.89c1.24-2.71,2.49-5.42,3.73-8.14l.15.74-2.75,7.74Z"/><path class="cls-1" d="M93.19,414.12l.83.07c-.15.78-.29,1.56-.44,2.34a9.51,9.51,0,0,0-.57,1q-1.7,4.51-3.37,9l-.8-.06Z"/><path class="cls-7" d="M77,588.69c.2-.41.41-.83.62-1.24,3,0,5.94-.15,8.7,1.24l-1.25.62H83.25Z"/><path class="cls-15" d="M209.33,563.85v.62h-5a17.33,17.33,0,0,0-2.88-.59c-3.39-.07-6.77,0-10.16,0v-.62l18,.62Z"/><path class="cls-3" d="M191.32,563.84c3.39,0,6.77,0,10.16,0a17.33,17.33,0,0,1,2.88.59c-4.62,0-9.25,0-13.88,0a16.66,16.66,0,0,1-2.89-.59Z"/><path class="cls-16" d="M274.55,555.77l-.63-1.25c-.2-2.48-.41-5-.62-7.45.58.81,1.58,1.58,1.66,2.43C275.15,551.58,275.79,553.76,274.55,555.77Z"/><path class="cls-14" d="M229.83,521a22.54,22.54,0,0,1-2.39-1.71c-1.12-1-2.14-2.16-3.2-3.26v-1.86Q227,517.56,229.83,521Z"/><path class="cls-7" d="M165.85,568.81l.62-.62c1,2.84,2.33,5.61,2.49,8.7h-.62Z"/><path class="cls-17" d="M162.75,544.58c-.71,1.72-.77,3.76-2.49,5h-.62c.21-2.32,1.55-4,3.11-5.59Z"/><path class="cls-12" d="M159.64,549.55h.62v6.22l-.62.62-.62-1.25v-3.72C159.23,550.8,159.44,550.17,159.64,549.55Z"/><path class="cls-3" d="M116.17,593.66H128a5.41,5.41,0,0,1-1.64.59c-2.84.06-5.69.06-8.53,0A5.26,5.26,0,0,1,116.17,593.66Z"/><path class="cls-18" d="M162.75,544.58v-1.24c1.27-2,.34-4.15.62-6.21v-2.49c1.31,3,.37,6.06.54,9.09a.34.34,0,0,1-.13.27C163.44,544.21,163.09,544.39,162.75,544.58Z"/><path class="cls-14" d="M220.51,510.41c-.16-.62-1-1.24,0-1.86,1.24,1.86,2.48,3.73,3.73,5.59H223Z"/><path class="cls-19" d="M85.11,589.31l1.25-.62,6.2.63-1.86,1.23-2.48-.61Z"/><path class="cls-3" d="M228.58,568.19h9.94c-.44.2-.9.61-1.32.58C234.33,568.54,231.38,569.5,228.58,568.19Z"/><path class="cls-3" d="M163.37,537.13c-.28,2.06.65,4.25-.62,6.21C163,541.28,162.1,539.09,163.37,537.13Z"/><path class="cls-3" d="M58.4,557v6.21A7,7,0,0,1,58.4,557Z"/><path class="cls-3" d="M98.78,591.8l5.59.62C102.51,592.17,100.53,593,98.78,591.8Z"/><path class="cls-3" d="M85.11,589.31l3.11.63-5-.63Z"/><path class="cls-3" d="M169,576.89a3.59,3.59,0,0,1,0,4.35h0v-4.35Z"/><path class="cls-3" d="M174.55,562.6l4.34.62Z"/><path class="cls-3" d="M205,564.47h4.35v.61Z"/><path class="cls-14" d="M232.31,523.46a2.58,2.58,0,0,1-2.48-2.49Z"/><path class="cls-3" d="M111.2,593.05l4.35.61Z"/><path class="cls-14" d="M219.27,507.31c-1.52-.06-1.81-.49-1.25-1.87Z"/><path class="cls-3" d="M159,551.42v3.72A2.83,2.83,0,0,1,159,551.42Z"/><path class="cls-3" d="M243.49,567.57l3.72-.62Z"/><path class="cls-3" d="M239.15,567.57h3.72l-3.73.62C239.14,568,239.14,567.78,239.15,567.57Z"/><path class="cls-3" d="M224.24,567.57l3.72.62Z"/><path class="cls-3" d="M136.66,592.42l3.73-.62Z"/><path class="cls-3" d="M128,593.66l3.72-.62Z"/><path class="cls-20" d="M89.64,426.6q1.68-4.52,3.37-9a9.51,9.51,0,0,1,.57-1A8.65,8.65,0,0,0,95,414.8c1.36-2.86,2.33-5.95,4-8.59a12.65,12.65,0,0,0,2.13-6.5l0,.06a4.2,4.2,0,0,0,2.38-2.56,24.58,24.58,0,0,1,3.14-5.93,5.21,5.21,0,0,0,1.36-3.53c1-1.75,2-3.49,3-5.25.69-1.23,1.32-2.49,2-3.73,1.49-.22,2-1.45,2.54-2.56a8.34,8.34,0,0,1,5.82-2.26c.59-2,1.15-3.8,1.76-5.8h-1.35L120.68,367l-.79,1.74a4.77,4.77,0,0,1-1,1.09c-2.41,1.36-3.66,3.73-5.2,5.84-.64.87-1.25,1.89-.68,3.1-9.22,1.13-18.4,2.64-27.65,3.31-11.63.84-23.31,1.16-34.92-.68-4.17-.67-8.39-1.19-12.48-2.22-10-2.5-19-6.85-25.83-14.88a43,43,0,0,1-9-17.8c-.62-2.48-.9-5-1.34-7.57a7.55,7.55,0,0,0,.58-2.25c-.2-4.19-.51-8.37-.75-12,1.89-1.24,3.5-1.87,4.47-3,1.27-1.53.84-3.32-.07-5.15-1.26-2.58.12-5.18.59-7.76,1.78-.25,1.11-2.17,1.52-2.65l5.83.56c.31-2.14.37-3.62-.47-5.4s-1.32-4.24.68-6.09c.19-.18,0-.76,0-1.41-.84.37-1.78,1.28-1.84-.33,1-1.22,1.95-2.44,2.92-3.67a13.38,13.38,0,0,0,3-1.6,17.13,17.13,0,0,0,2.28-3c.39-.54.73-1.12,1.09-1.68,3.34-3.72,7.59-6.28,11.63-9.13,2.35-1.66,4.71-3.3,7.07-4.95l.66-.08a10.94,10.94,0,0,1,6.21,2.27l2.45,4.24c.12-.39.26-.82.53-1.7.71.65,1.7,1.16,1.68,1.63-.06,1.55,1.62.7,1.89,1.58s.38,1.55.66,2.74l4.54-.8c3.89,2.74,7.69,5.63,11.73,8.16,1.81,1.13,3.4,2.92,5.81,3l1.65.72c.47.39.9.83,1.4,1.17q7.39,5,14.81,10l3,3.1-3.3,1.68a9.37,9.37,0,0,0-2.5-1c-2.71-.2-5.37-1-8.18-.3-1.26.31-2.75-.34-4.15-.52a33.4,33.4,0,0,0-4.23-.38c-.38,0-.76.74-1.14,1.15.1,1.3,1.13,1.64,2.12,1.78,2.18.31,4.38.47,6.58.69l5,.62c.93.07,1.86.09,2.78.22,5.38.75,10.77,1.49,16.14,2.33a30.29,30.29,0,0,1,4.06,1.2c-.26.67-.72,1.4.55,1.54.5.05,1,.17,1.49.26l-.07.4H107.4c.34-1,.55-1.53.9-2.49l-2.55.31v6.18h4c4.86,0,9.72,0,14.58,0,2.73,0,2.86-.19,3-3.05,0-.21,0-.41,0-.62l3.11.58a14.91,14.91,0,0,1,2.82,1.68c2,1.86,2.47,1.94,4.64.17h0c.09.29.13.78.27.81,2.8.6,5.62,1.13,8.43,1.68l5.58,1.87c.18,1.05-2.66,1.57-.38,3.07,2.07-.68,4.27-1.47,6.59-.59a68.49,68.49,0,0,1,7.6,4.51c4,3.14,7.75,6.67,9.54,11.71.87,2.48,1.81,4.93,2.71,7.4q.33,7.14.64,14.28c0,.2,0,.4,0,.6a4.17,4.17,0,0,0-.55,1c-.64,3-1.27,6.08-1.87,9.13a10.33,10.33,0,0,0-.05,1.67l0,.67c-1.56,3.14-3.17,6.25-4.66,9.42q-8.47,18.06-16.9,36.17Q144.77,443,134.72,464.79c-5.21,11.35-10.32,22.75-15.46,34.13a19.65,19.65,0,0,0-.67,2.05q-3.66,8.71-7.33,17.42c-.19.46-.41.92-.62,1.37-3.9-.19-7.82-.22-11.69-.61a45.84,45.84,0,0,1-20.64-7.5c.49-6.09.92-12.17,1.47-18.25q1.08-11.89,2.34-23.78c.49-4.52,1.07-9.05,1.82-13.53,1.3-7.75,2.74-15.47,4.18-23.18C88.52,430.78,89.13,428.7,89.64,426.6Z"/><path class="cls-21" d="M368.93,85c5,.23,8.15,3.28,10.41,7.29.88,1.55.92,3.55,1.4,5.33A11.67,11.67,0,0,0,381.9,101a9.09,9.09,0,0,1,1.49,4.94,42.3,42.3,0,0,0,.78,6.74,8.17,8.17,0,0,1-.33,4.84c-1.39,3.44-2.75,6.91-3.91,10.44-1.38,4.2-4.48,6.84-7.87,9.29-.83.6-1.64,1.25-2.49,1.84-3.19,2.21-3.77,5.86-4.77,9.15-5.36,17.59-10.56,35.23-15.83,52.85-1.33,4.46-2.61,8.93-4.1,13.33a69,69,0,0,1-10.41,19c-1.66,2.23-3.52,4.32-5.33,6.45-2.24,2.64-5.12,3.2-8.41,2.56a124,124,0,0,1-28.88-9.16c-3.94-1.83-8-3.44-11.86-5.38-2.22-1.11-3.84-.68-5.59.83-3.2,2.76-6.49,5.45-9.8,8.09-1.85,1.49-3.89,2.74-5.71,4.26-3.38,2.85-7,2.6-10.77,1.11-9-3.59-18-7.28-27-10.91-1.38-.56-2.73-1.67-4.32-.51,0-.36,0-.72,0-1.08a12.64,12.64,0,0,0-2-1.65c-2.18-1.18-4.43-2.24-6.65-3.35-.29-2.53-2.26-1.73-3.74-1.87l-3.07-.64a16.58,16.58,0,0,0-1.78-1.12c-2.65-1.28-5.36-2.46-8-3.79-3.61-1.83-7.17-3.76-10.75-5.65a2.75,2.75,0,0,0-.53-.74c-4.49-3.24-9.09-6.31-13.45-9.7-6.38-5-12.56-10.2-18.9-15.22-1.35-1.08-2.5-2.67-4.92-2.93l1.78,2.5-1.87-.13c0,1.93,0,3.68,0,5.42s.39,2.82,2.35,2.81c1.42,0,2,.82,2,2.17,0,2.26.61,4.66-1.71,6.4l1.27.83c-1.82.68-3.63,1.43-5.48,2a102.76,102.76,0,0,1-22.08,4.54,16.86,16.86,0,0,0-8.58,0,20,20,0,0,1-8.81-2.35c-3.1-1.78-6.13-3.68-9.19-5.53,1.63-5.11,3.15-10.26,4.93-15.31a168.56,168.56,0,0,1,10.67-24.74,91.31,91.31,0,0,1,10.09-15.22c.79-.94,1.73-1.76,2.6-2.63l5.74-5.72c3.88-2.82,7.66-5.81,11.67-8.42s8.45-5,12.69-7.46c1.43,1,2.89,2,4.28,3,3.52,2.7,7.33,5.24,9.37,9.28a10.11,10.11,0,0,0,5.42,5.05l3.18,1.94,1.16.57,3.21,2.35a6.77,6.77,0,0,0,1.14,1.43c5,3.72,8.89,8.6,13.34,12.88,3.55,3.41,6.89,7,10.56,10.29,4.38,3.89,9,7.54,13.56,11.21a26.66,26.66,0,0,0,3.67,2.14l3.13,2.4a4,4,0,0,0,3.05,2.59l4.36,3.1c4.2,2.75,8.25,5.75,13,7.5a3.55,3.55,0,0,0,3.71-.23c4.74-3.22,9.57-6.34,14.41-9.42,2-1.26,4.06-2.31,6.1-3.45,1.49,1.12,3.05.64,4.92.33-.88-1.65-.31-2.9.67-4.05l.63-.62c1.21.86,2.37,2,4.23.72-.37-.83-.75-1.71-1.14-2.59a6.61,6.61,0,0,0,1.14-1c.16-.21.08-.62.11-.94v-.59l1.81-.14c1.85.11,3.21-.56,3.75-2.46l9.23-6.16a7.43,7.43,0,0,1,3.31,4.24c.42,1.4,1.4,1.61,2.9,1-.06-3.53.24-7,4.17-8.8-.12-.37-.24-.74-.34-1.12,0,0,.14-.09.34-.21,1.77.14,3.64,1.25,5.71.15,0-1.49,1.05-3.22-1.22-4.17-.16-.07,0-1,.06-1.52-1.58-.05-2.44,2.25-4.24,1.19l1.84-1.87a23.08,23.08,0,0,0,2.7-1.68c1.24-1,2.35-2.19,3.52-3.29l.7,1.76,2.38-1.74-1.84-1.26,2.49-2.49c.59.08.75.13.44.89-.91,2.21-.41,3.77,1.12,4.48,1.07.49,2.79.24,3-.59.45-1.55-.88-1.49-1.81-1.77a2.2,2.2,0,0,1-.51-.3c.59-2.3,1.32-4.47,4.2-4.24,1.05-2-1.16-2.26-1.51-3.44,1.78-1.69,3.14-3.84,5.37-5.32.18,1,.29,1.63.42,2.39,1.37-1.49-.31-3.65,1.64-4.88a36.73,36.73,0,0,0,4.07-3.33c-.52,1.07.41,1.32,1.37,1.86.57.33.05,2.24,2,1.35l-.6-7.79c.19-1.16.63-3.16.85-5.17.42-3.78.71-7.56,1-11.35a2.37,2.37,0,0,0-.09-1.22c-.9-1.78.18-3.27.4-4.89.73,1.22-.34,2.83,1.08,4a3.09,3.09,0,0,0,.4-.73c.18-1.52.35-3,.52-4.57-2.28-1.75,1.3-2.19.82-3.6a2.13,2.13,0,0,1,.22-1.49c.14-.28.66-.39,1-.57l-.33,2.21.58.32,3.48-4.41,1.72,2.91h3.9l2.14-7.25a16.24,16.24,0,0,0,3,0c.57-.12,1.39-.61,1.5-1.07.27-1.11-.64-1.26-1.53-1.37-1.31-.14-2.61-.4-3.91-.61.86-.84,1.7-1.71,2.58-2.52,1.39-1.28,3.22-2.19,3.62-4.3,2.8,0,5.59,0,8.21,1.18l2.54,2.43c-3.41,1.45-7.43,5.27-7.75,7.56A32.8,32.8,0,0,0,368.93,85Zm-46.49,94.47-.2,1c-2.84,3-5.69,6-8.51,9s-5.88,5.63-8.47,9l6,4.88,4-7.26c.69-.52,1.66-.9,2-1.59,2.49-4.59,4.81-9.28,7.29-13.87a3.25,3.25,0,0,0,0-3.27Zm29.74-31.82c.44-.4.85-.84,1.32-1.19,2.24-1.69,4.51-3.35,6.76-5a15.32,15.32,0,0,0,3.2-2.36c2.43-3,4.71-6.19,7-9.37,1.78-2.5,3.44-5.1,5.16-7.66,2.18-3.24,4.39-6.46,6.52-9.73a6.23,6.23,0,0,0,.48-2l-.86-.48a12.69,12.69,0,0,1-.74,1.36c-2.44,3.69-4.86,7.39-7.36,11-4.33,6.33-8,13.15-13.87,18.32a1.17,1.17,0,0,0-.15.27c-1.45.93-2.9,1.87-4.36,2.78a38.6,38.6,0,0,0-9.61,8.91c-5.08,6.33-10.33,12.51-15.49,18.77-1.16,1.4-2.24,2.87-3.49,4.49l1.29.48h4.39c1.06-2,1.34-3.77.58-5.6q3.1-4,6.23-7.93c.1-.12.39-.1.59-.15a3.15,3.15,0,0,0,1.2-.08c1.31-.66,3.47,1.12,4-.88.37-1.37-.51-3.07-.83-4.62l3.72-5c.91,0,1.05.54.61,1.2-.65,1-1.38,1.89-2.13,2.9h4.53C351.31,153.08,351.75,150.34,352.18,147.6Zm16.43-47.75c4.77-3.46,7.88-6.82,8.44-8.93C374.73,92,369.77,97.05,368.61,99.85Zm4.85,8.56c3.53-2.39,6.2-5.83,6.35-8C377.35,103.09,374.46,105,373.46,108.41Zm-55.68,45.67c0,.24,0,.48,0,.73,1.42.19,2.89.77,4.63-.73Z"/><path class="cls-20" d="M176.44,375.66l0-.67c.4-.26,1.05-.45,1.15-.79.72-2.62,1.33-5.27,2-7.9.13-.16.38-.31.38-.47q0-8.06,0-16.11a2.57,2.57,0,0,0-.37-.84c-1.1-5.06-2.6-10-5.58-14.28l.57-1.67-1.73-3.71c-1.21-.51-2.13-.31-2.59,1l-3.7-2.53,1.11-2.39h-2.5c.07-1.93-1.24-2.12-2.8-1.86a7.9,7.9,0,0,0-1.41.55h0l-2.35-2.32.77-.68c-.92-.48-1.73-1.26-2.53-1.24-2,.06-3.75-.88-5.62-1.27s-3.38-1.1-3.92-3.44l-5.32,1.19c-.46-.18-1.38-1.87-2.77-.3h-.61c.13-1.57-.75-1.82-2.1-1.9a48.46,48.46,0,0,1-8.45-.93c-1.58-.39-2.92-1.81-4.36-2.77.18-1.53-.69-2-2-1.93,5-2.05,10.1-4.13,15.18-6.14a20.69,20.69,0,0,1,3-.75q22.32,4.5,44.64,9c9.41,1.89,18.85,3.69,28.25,5.62,8,1.65,16,3.29,23.92,5.18a47.78,47.78,0,0,1,17.95,8.11A33.4,33.4,0,0,1,268.25,355,59.29,59.29,0,0,1,265.77,375a351.56,351.56,0,0,1-14.86,41.7c-6.65,15.88-13.68,31.61-20.65,47.37-4,9-8.11,17.84-12.19,26.75a6,6,0,0,1-.7,1c-1,1.85-2.08,3.7-3.14,5.54-.8,1.4-1.37,3-2.47,4.12-2.6,2.58-6.07,1.64-9.59,2.09-1.89,1.69-4,1.84-7.07.22l1.16-.95c-1.5.25-2.35.45-3.22.51a7,7,0,0,1-2.38-.09c-2.35-.68-4.69-1.43-7-2.28-1.82-.67-1.83-.88-1.08-3a2,2,0,0,0,0-.81c-.21-1.6-.44-3.2-.67-4.8.66-5.43,1.25-10.86,2-16.28,1.33-9.61,2.76-19.21,4.16-28.82.14-.9.43-1.78.65-2.66.43.21.86.43,1.31.6-.67,2.05-.61,2.56.5,2.83l1-1.13c-.59-.66-1-1.18-1.54-1.7.12-.73.23-1.51.4-2.27.48-2.11-1.07-4.38.53-6.45.25.78.5,1.54.75,2.3a6.13,6.13,0,0,0,.22-2.35,12.8,12.8,0,0,1,.68-2.27c.05-.17,0-.49-.06-.54-1.67-.93-1.09-2.61-1.36-4l0,.06c.45-1.32.92-2.63,1.33-3.95,1.47-4.69,1.23-9.92,4.53-14a1.73,1.73,0,0,0,.16-1.14c-.36-3.36,1.78-5.95,2.73-8.91.09-.29.78-.38,1-.5l-.43-2.65a143.69,143.69,0,0,1,11.14-22.26l1.34,0c-1.47,2.1-3.12,4.11-3.64,6.56l5.41-.52a13,13,0,0,1,1.81-2.59c1.77-1.49,1.77-2-.21-3.48-.25-.19-.19-.8-.27-1.21a23.79,23.79,0,0,0,3.67-1.29c1.27-.69,3-.88,3.63-2.75-.48-.09-.81-.27-1-.18-3.34,1.23-6.68,2.48-10,3.8-.36.15-.5.82-.75,1.25a15.37,15.37,0,0,0-2.42-.36q-14.86,0-29.75,0C178.49,375.42,177.46,375.58,176.44,375.66Z"/><path class="cls-22" d="M119.21,209.54A102.76,102.76,0,0,0,141.29,205c1.85-.58,3.66-1.33,5.48-2,4.33-1.37,8.58-2.92,12.27-5.66l11.21,8.5c1.46,1.33,3.17,2.47,4.3,4a4,4,0,0,0,3.75,1.71h0a9,9,0,0,0,6.35,3.69c1.12.5,2.24,1,3.35,1.5,3.81,1.79,7.61,3.6,11.41,5.4a5,5,0,0,1,.06.56H196l1,2.82,3.32-.53-.95-2.29c2.71,1.17,5.41,2.38,8.14,3.51,3,1.25,5.8,3.15,9.18,3.43,0,.36,0,.72,0,1.08a117.8,117.8,0,0,1-15,16c-4.07,3.47-8.25,6.84-12.62,9.9-5.54,3.87-10,8.86-14.83,13.47-1.56,1.49-3.18,2.91-4.78,4.36-7.46,0-14.61-1.83-21.76-3.66-1.12-.66-2.18-1.73-3.37-1.9-4.53-.64-8.48-2.95-12.81-4.09-2.26-.59-4.56-1-6.84-1.55l0,0c.93-2.44.93-2.44-1.82-3.65-.18.56-.37,1.12-.55,1.68a49.06,49.06,0,0,1-13.1-7.22l-2,.48-12.85-8A4.68,4.68,0,0,0,90.52,244l-1.75-1c-.59-1.9-2-2.55-3.85-2.69l-6.67-5c4.34-6.31,7.19-13.35,9.75-20.5,1.31-3.67,2.43-7.4,3.67-11.09a13.23,13.23,0,0,1,1-1.92c3.06,1.85,6.09,3.75,9.19,5.53a20,20,0,0,0,8.81,2.35Z"/><path class="cls-23" d="M251.74,31.36a65.38,65.38,0,0,1,5.94,31.92c-.94,17.25-1.64,34.51-2.45,51.76-.09,1.83-.2,3.66-.32,5.87l-22.59-8.83c-.65-1,.15-1.45.65-2.06a50.37,50.37,0,0,0,10.57-20.71,18.37,18.37,0,0,0,1.81-8.81l.06-2.32a11.78,11.78,0,0,0,.38-2.09c.06-5.38.08-10.76.1-16.13,0-.4-.34-4.55-.87-8.42-.4-3-.9-5.76-1.44-6.61-.89-1.68-1.66-3.44-2.69-5A29.41,29.41,0,0,0,234,32.72c-4.23-4.54-9.47-7.68-14.72-10.78l-5.51,5.21a2.47,2.47,0,0,1,1.15-2.62,11.65,11.65,0,0,0,1.89-2.45l-.46-.64-2.82.67c.1.83.37,1.58.19,1.71-1.63,1.19-.77,2.25.06,3.34-1.43,1.85-2.8,3.75-4.29,5.56-4.59,5.57-9.22,11.11-13.83,16.66L194,50.73c-2,1.1-3.78,2.43-3.84,5.05l-1.35,2.32q-3.09,4.34-6.16,8.69c-.93.18-1.28-.28-1.25-1.14.07-1.45.1-2.89-1.41-3.74a13.48,13.48,0,0,1-1.22-2.1c-1.54-4.16-5.95-4.65-9-1.59a9.32,9.32,0,0,0-2.34,3.56c-2,5.86-.6,11.45,2,16.74a8.31,8.31,0,0,0,6.4,4.86,29.29,29.29,0,0,0,3.86,0c3.32,11.49,6.68,23.11,10.2,35.27l-14.72-3.32c-1.47-1.41-3.3-1.39-5.15-1.25l-3-.51c.71-1.45,1.91-1,3-.56.13-.65.21-1.05.25-1.27l3.82-.73,2,2.45,2.63-.36c.08-.68.15-1.18.18-1.68a6.39,6.39,0,0,0,0-1.24c-.24-1.73-.85-2.28-2.61-2.37-.73,0-1.45,0-2.17,0-5.49,0-11,0-16.45,0-2.59,0-2.85-.32-3-2.82,0-1-.09-2-.15-3.46a9.47,9.47,0,0,0-3,.73c-.38.26-.16,1.41-.22,2.31l1.88-.83c.36,3.28.08,3.7-3.46,5.18a12.55,12.55,0,0,1-.65-2.27,75.93,75.93,0,0,1-.51-8.24,24,24,0,0,0-.36-5.54,21.12,21.12,0,0,1-.52-6.12,40.92,40.92,0,0,0-.35-10.19c-.61-4,.7-8.14-.06-12.22a1.76,1.76,0,0,1,.14-1.21,1.69,1.69,0,0,0,.17-2.17c-.25-.44.67-1.42.61-2.12-.39-5,1.05-9.5,3.23-13.86.23-.46.74-.92.7-1.34-.29-2.66,1.06-4.75,2.26-6.83l3.39-.69c-2-2-2.13-2.38-1.14-4.63a8.22,8.22,0,0,1,1-1.56c.95-1.27,1.95-2.51,2.92-3.76-.59,3.26-.57,6.65-2.35,9.93h4.4c.08-.77.17-1.27.18-1.77,0-1.76.06-3.52,0-5.28s.19-3.47-.49-4.81c-1.09-2.13,1.94-2.85,1.13-4.63,5.11-7.34,11.5-13.29,19.71-16.91,7.79-3.43,15.81-3.85,23.61.16,1.5.77,2.56-.46,3.83-.16a14.38,14.38,0,0,0,2,.1c2.41-.16,4.82-.51,7.24-.54a49.61,49.61,0,0,1,5.41.48L228,3.92a5.26,5.26,0,0,0,.81.88c2.12,1.48,3.52,3.16,2.34,6a2,2,0,0,0,.62,1.81c1.77.86,1.77,2.36,1.77,3.93v3c2.6,2,5.26,1,7.54,1.25a43.35,43.35,0,0,0,.39,5.89c.35,1.79,1.58,2.67,3.1,2.14C247.79,27.67,249.82,29.22,251.74,31.36Z"/><polygon class="cls-21" points="228.81 53.09 227.32 55.32 229.09 58.34 245.75 58.13 244.88 50.52 228.81 53.09"/><path class="cls-21" d="M195.64,49.38c4.61-5.55,9.24-11.09,13.83-16.66,1.49-1.81,2.86-3.71,4.29-5.56h0l5.51-5.21c5.25,3.1,10.49,6.24,14.72,10.78-.62,1.85-1.65,3.69-.13,5.62.15.2.1.59.09.89-.12,3.06-.22,6.12-.41,9.18a19.8,19.8,0,0,1-.6,2.89,21.31,21.31,0,0,0-2.77.06c-2,.3-2.61,1.18-2.72,3.28a7.94,7.94,0,0,1-1,2.66,9.93,9.93,0,0,1-1,1.46c-.19,2.86-.46,5.72-.57,8.59-.1,2.68-.07,5.37,0,8.05,0,1.3.59,2.14,2.45,1.6V73l2.17-2.31L230,71c-.1.62-.19,1.24-.33,2.16l3.57-.78c-.06,1.17-.12,2.31-.18,3.58a11.65,11.65,0,0,0,1.79.17c2-.15,3.89,0,5.25,1.84.27.37.95.41,1.31.74a3.89,3.89,0,0,1,1.25,1.62c.39,1.9.56,3.84.82,5.76-.21.41-.41.83-.62,1.24-.57.57-1.6,1.14-1.61,1.72a5,5,0,0,1-1.16,3.68c-.17.19.14.77.1,1.15-.09.77,0,1.74-.49,2.23-.29.32-1.34,0-1.56,0-1.67.56.31,2.22-1.44,2.66a12.91,12.91,0,0,0,.18,2.5l-3.88,3a3.47,3.47,0,0,1-.59,4.68c-1.16,1.05-2.4,2.53-4.77,1.16.43,1.51.7,2.48,1,3.45-4.64,4.21-9.88,3.28-15.2,1.8-1.13-.31-2.31-1.26-3.39.12l-.09-1.34-5.11-4.63-2.34.88-3.11-1.85c.21-.9.43-1.81.62-2.6-1.62-.88-2.58-.71-3.11.74l-4.95-3.74c-.05-.9-.09-1.8-.13-2.78H188.1l1.35,2.15,1.26,3.09c-.07,1.08-.13,2.16-.22,3.59l2.08-.48A18.71,18.71,0,0,1,194,110a35,35,0,0,0,11.89,10.87,2.1,2.1,0,0,0,2.24,0c-.32,1.71-.58,3.44-1,5.13a46.12,46.12,0,0,0-.86,12.33l2.47,1.11c.05.55-.08,1.2.17,1.62,2.52,4.14,5.21,8.19,7.63,12.39,1.68,2.92,3,6,4.51,9.07l-3.14.74c.19,2.3.38,4.65.6,7.26,2.14-1.71.92-3.95,1.78-6,1.89,2.32-1,4.72.6,6.73l.72-.65-1.78,9.27c-1.44.77-2.24-.31-3.17-1.07-1.87-1.55-3.79-3.05-5.64-4.63s-3.6-3.24-5.4-4.86c.13-1.8-.7-2.63-2.5-2.48l-.6,0,1.39-2.45-3.26.6c-3.54-3.46-7.1-6.91-10.62-10.4a4,4,0,0,1-.57-1.4c.86-.88.95-1.64-.17-2.47a17.28,17.28,0,0,1-2.06-2l-2.72.13c-1.12-1-2.18-2.1-3.38-3a35.71,35.71,0,0,0-3.33-2l-2-3.08c-3.67-6.15-7.71-12-13.21-16.71,1,.48,1.92,1,2.92,1.41.33.13.81-.1,1.36-.19l-1.26-1.6,2.92-.85c-.25-1.31-.19-2.63-.75-3.59-.9-1.53-2.68-1.32-4.2-1.17-.41-1.38,1.79-2.22.37-3.49l.06-1.67,3,.71,3,.51,5.15,1.25,14.72,3.32c-3.52-12.16-6.88-23.78-10.2-35.27a29.29,29.29,0,0,1-3.86,0,8.31,8.31,0,0,1-6.4-4.86c-2.64-5.29-4-10.88-2-16.74a9.32,9.32,0,0,1,2.34-3.56c3.07-3.06,7.48-2.57,9,1.59a13.48,13.48,0,0,0,1.22,2.1l1.41,3.74c0,.86.32,1.32,1.25,1.14.29.53.59,1,1,1.84,2-1.37.42-4.88,3.36-5.27-.42,1.6-.85,3.22-1.42,5.35,1.55-.19,2.61-.26,3.66-.46s2.1-.65,3.17-.77c1.22-.14,2.49.08,3.71-.07a12.27,12.27,0,0,0,2.5-.89v2.86l2.72.38,1.83,2.43c1.38,1.74,3.24.81,4.92.85a3.53,3.53,0,0,0,2.46-2.91c.29-1.9.64-3.79,1-5.91-1-1.52-2.73-1.94-4.59-1.74-.1-2-1.43-1.82-2.31-1.81-.38,1.06-.64,1.77-.9,2.48l-1.28,1c-.08-1-.15-1.94-.32-4-1.21,2.55-2.52,4-4.89,1.53l-1.43,2.63-3.28-2.93-4,2-.44-.53a16.26,16.26,0,0,1,.82-1.8,2.16,2.16,0,0,0-.18-3l1.35-2.32L191.2,55l.83.81c.16,1.66,1.62,1.5,2.59,1.57,5.12.38,10.26.72,15.4.84,3.25.07,4.16-1.29,3.59-5.06-4.2-.4-8.47-1-12.75-1.17a40.57,40.57,0,0,0-6.37.64l-.84-.76h0A2.48,2.48,0,0,0,195.64,49.38ZM175.17,73l.75,2,.4-.08.09-2a20.41,20.41,0,0,0,0-3.41,28.41,28.41,0,0,0-1.3-5.33,2.43,2.43,0,0,0-3.26-1.61C173,66.23,174.07,69.63,175.17,73Zm33.27,21.57A5,5,0,0,0,214.22,97a38.56,38.56,0,0,1,14.9-1c1.31.18,3,.73,4.48-1.4-2.71-.37-5-.67-7.27-1-6-.9-11.73,1.82-17.69.86C208.59,94.38,208.51,94.53,208.44,94.61ZM229,100.32v-1c-.71-.07-1.52-.41-2.1-.17a12.19,12.19,0,0,1-9.28.43c-.1,0-.21-.13-.28-.1-.52.19-1,.42-1.53.63.29.47.48,1.14.9,1.36a7.29,7.29,0,0,0,2.37.63A14.92,14.92,0,0,0,229,100.32ZM217,87c1.63.6,3,1.45,4.56.51C219.87,84.94,219,84.81,217,87Zm7.34.11A4.44,4.44,0,0,0,228.46,86C225.93,84.48,225.93,84.48,224.33,87.11Z"/><path class="cls-21" d="M78.25,235.21l6.67,5,3.85,2.69,1.75,1,3.87,2.57,12.85,8c1.65,1,3.23,2.16,5,3,3.75,1.8,7.58,3.44,11.38,5.14l1.17.58,0,0a63,63,0,0,0,5.9,2.48c5.68,1.77,11.41,3.38,17.12,5.06,7.15,1.83,14.3,3.69,21.76,3.66q-10,8.81-20.12,17.62a3.08,3.08,0,0,1-.82.38c-2,.65-6.08,4-7.56,6.32-.3,1-2.37,1.16-1.32,2.8a20.69,20.69,0,0,0-3,.75c-5.08,2-10.13,4.09-15.18,6.14l-3,.58-6.69,0L106.81,308l-5.58-2.48a6.77,6.77,0,0,0-1.3-1.41c-3.68-2.21-7.47-4.25-11.08-6.57-3.16-2-6.12-4.36-9.21-6.49-.3-.21-.94.07-1.42.12l-1.65-.71a22.21,22.21,0,0,0-2.25-2.1c-3.78-2.67-7.56-5.32-11.41-7.88-2-1.36-4.22-2.52-6.33-3.77l-9.3-5.07a10.94,10.94,0,0,0-6.21-2.27c5.16-4,10.44-7.92,15.46-12.12,4.64-3.88,9-8.09,13.48-12.15,1.73-1.55,3.49-3.06,5.15-4.68.38-.36.38-1.09.55-1.66Q77,237,78.25,235.21Zm46.19,62.47-.63-.6c-2.11.7-3,2.38-3.36,4.48-.15.8-.53,1.66.9,1.71a16.78,16.78,0,0,1,1.06-3.09A17.09,17.09,0,0,1,124.44,297.68Z"/><path class="cls-21" d="M278.27,176.17v.59a10.46,10.46,0,0,0-2.27.77q-6.83,4.23-13.56,8.58c-5.69,3.67-11.36,7.39-17.12,11.14-2.53-1.25-5-2.44-7.49-3.74a19.89,19.89,0,0,1-2.42-1.79c0-.61.18-1.45-.14-1.78-2.07-2.11-3.75-4.8-7.21-5.31l-1.27,1.45c0-.42-.08-.85-.11-1.27.09-1.33.18-2.66.29-4,.37-4.29.8-8.58,1.1-12.87a14.68,14.68,0,0,0-2.44-9c-1.63-2.6-3.06-5.32-4.57-8l-2.39-5.26,4.36-.57c7.72,3.24,15.47,6.39,23.12,9.74s14,8.47,20.53,13.31c3.08,2.26,6,4.69,9.12,7A11.15,11.15,0,0,0,278.27,176.17Z"/><path class="cls-22" d="M221.06,150.92c1.51,2.66,2.94,5.38,4.57,8a14.68,14.68,0,0,1,2.44,9c-.3,4.29-.73,8.58-1.1,12.87-.11,1.33-.2,2.66-.29,4-.59.88-1.15,1.72-2.31.62a4.86,4.86,0,0,0-1.33-.66l-3.13-2.4c0-.82-.07-1.65-.1-2.47q.88-4.64,1.78-9.27c.3-2.73.56-5.47-.56-8.1-1.49-3-2.83-6.15-4.51-9.07-2.42-4.2-5.11-8.25-7.63-12.39-.25-.42-.12-1.07-.17-1.62l5,1.91Z"/><path class="cls-24" d="M167,113.6l-3-.71-15.4-3.38c-.18-1.11-.45-2.3-.55-3.5q-1.8-20.69-1.54-41.45a67.62,67.62,0,0,1,7.34-29.16c2.34-4.8,5.24-9.33,7.94-13.95a12.42,12.42,0,0,1,1.58-1.83c.81,1.78-2.22,2.5-1.13,4.63.68,1.34.43,3.19.49,4.81s0,3.52,0,5.28c0,.5-.1,1-.18,1.77h-4.4c1.78-3.28,1.76-6.67,2.35-9.93-1,1.25-2,2.49-2.92,3.76a8.22,8.22,0,0,0-1,1.56c-1,2.25-.89,2.67,1.14,4.63l-3.39.69c-1.2,2.08-2.55,4.17-2.26,6.83,0,.42-.47.88-.7,1.34-2.18,4.36-3.62,8.88-3.23,13.86.06.7-.86,1.68-.61,2.12a1.69,1.69,0,0,1-.17,2.17,1.76,1.76,0,0,0-.14,1.21c.76,4.08-.55,8.2.06,12.22a40.92,40.92,0,0,1,.35,10.19,21.12,21.12,0,0,0,.52,6.12,24,24,0,0,1,.36,5.54,75.93,75.93,0,0,0,.51,8.24,12.55,12.55,0,0,0,.65,2.27c3.54-1.48,3.82-1.9,3.46-5.18l-1.88.83c.06-.9-.16-2,.22-2.31a9.47,9.47,0,0,1,3-.73c.06,1.44.11,2.45.15,3.46.11,2.5.37,2.8,3,2.82,5.48,0,11,0,16.45,0,.72,0,1.44,0,2.17,0,1.76.09,2.37.64,2.61,2.37a6.39,6.39,0,0,1,0,1.24c0,.5-.1,1-.18,1.68l-2.63.36-2-2.45-3.82.73L170,113C168.92,112.56,167.72,112.15,167,113.6Z"/><path class="cls-24" d="M251.74,31.36c-1.92-2.14-4-3.69-7.16-2.56-1.52.53-2.75-.35-3.1-2.14a43.35,43.35,0,0,1-.39-5.89c-2.28-.23-4.94.78-7.54-1.25v-3c0-1.57,0-3.07-1.77-3.93a2,2,0,0,1-.62-1.81c1.18-2.83-.22-4.51-2.34-6a5.26,5.26,0,0,1-.81-.88c3.36.72,5.85,3,8.32,5.06,5.07,4.31,8.86,9.7,12.11,15.46C249.69,26.66,250.65,29.05,251.74,31.36Z"/><path class="cls-22" d="M162.58,124c5.5,4.71,9.54,10.56,13.21,16.71l-1.36,1.32-1.16-.57c-.57-1.44-1.8-1.81-3.18-1.94a10.11,10.11,0,0,1-5.42-5.05c-2-4-5.85-6.58-9.37-9.28-1.39-1.06-2.85-2-4.28-3l3.62-2.09c2.26-.3,3.75,1.35,5.55,2.18Z"/><path class="cls-25" d="M209.94,114.07l.09,1.34c-.65,1.82-1.29,3.65-1.94,5.47a2.1,2.1,0,0,1-2.24,0A35,35,0,0,1,194,110a18.71,18.71,0,0,0-1.39-1.58l-1.86-3.11-1.26-3.09c.28-.22.7-.69.81-.63a14.43,14.43,0,0,1,1.68,1.26l4.95,3.74,2.49,1.86,3.11,1.85A18.62,18.62,0,0,0,209.94,114.07Z"/><path class="cls-26" d="M315.54,147.59l-2.49,2.49-1.24,1.24c-1.17,1.1-2.28,2.27-3.52,3.29a23.08,23.08,0,0,1-2.7,1.68q7.85-7.95,15.67-15.91c3.4-3.48,6.72-7,10.15-10.49a11.17,11.17,0,0,0,3.39-7.75c.19-4.75.33-9.51.66-14.25a15.68,15.68,0,0,1,1.2-5.36c1.89-4.13,4.07-8.12,6.14-12.16l.11.11c-.13.79-.28,1.58-.39,2.37s-.19,1.71-.28,2.56L341,97.27c-.34.18-.86.29-1,.57a2.13,2.13,0,0,0-.22,1.49c.48,1.41-3.1,1.85-.82,3.6-.17,1.53-.34,3-.52,4.57a3.09,3.09,0,0,1-.4.73c-1.42-1.13-.35-2.74-1.08-4-.22,1.62-1.3,3.11-.4,4.89a2.37,2.37,0,0,1,.09,1.22c-.32,3.79-.61,7.57-1,11.35-.22,2-.66,4-.85,5.17l.6,7.79c-1.94.89-1.42-1-2-1.35-1-.54-1.89-.79-1.37-1.86a36.73,36.73,0,0,1-4.07,3.33c-1.95,1.23-.27,3.39-1.64,4.88-.13-.76-.24-1.4-.42-2.39-2.23,1.48-3.59,3.63-5.37,5.32Z"/><path class="cls-27" d="M303.75,158.16c1.8,1.06,2.66-1.24,4.24-1.19,0,.54-.22,1.45-.06,1.52,2.27.95,1.21,2.68,1.22,4.17-2.07,1.1-3.94,0-5.71-.15-.2.12-.35.19-.34.21.1.38.22.75.34,1.12-3.93,1.75-4.23,5.27-4.17,8.8-1.5.62-2.48.41-2.9-1a7.43,7.43,0,0,0-3.31-4.24l2.46-1.86a13,13,0,0,0,5.73-5Z"/><path class="cls-28" d="M228.62,113.49c-.27-1-.54-1.94-1-3.45,2.37,1.37,3.61-.11,4.77-1.16a3.47,3.47,0,0,0,.59-4.68l3.88-3a12.91,12.91,0,0,1-.18-2.5c1.75-.44-.23-2.1,1.44-2.66.22,0,1.27.37,1.56,0,.44-.49.4-1.46.49-2.23,0-.38-.27-1-.1-1.15a5,5,0,0,0,1.16-3.68c0-.58,1-1.15,1.61-1.72.22.66.44,1.32.67,2A50.37,50.37,0,0,1,233,110c-.5.61-1.3,1.11-.65,2.06C230.79,111.76,229.77,112.8,228.62,113.49Z"/><path class="cls-20" d="M182,492.3c.23,1.6.46,3.2.67,4.8a2,2,0,0,1,0,.81c-.75,2.14-.74,2.35,1.08,3,2.3.85,4.64,1.6,7,2.28a7,7,0,0,0,2.38.09c.87-.06,1.72-.26,3.22-.51l-1.16.95c3.05,1.62,5.18,1.47,7.07-.22,3.52-.45,7,.49,9.59-2.09,1.1-1.1,1.67-2.72,2.47-4.12,1.06-1.84,2.1-3.69,3.14-5.54l-1.26,3.62c-1.24,2.72-2.49,5.43-3.73,8.14-3.14.54-6.28,1.11-9.43,1.62a31.38,31.38,0,0,1-20.6-3.61,8.8,8.8,0,0,1-1.67-1.67Z"/><path class="cls-29" d="M162.58,124l-2.39-1.75c.49-.79,1-1.59,1.53-2.49-1.06-.61-2.59-1.06-1.49-2.81l3.71-2.43c1.42,1.27-.78,2.11-.37,3.49,1.52-.15,3.3-.36,4.2,1.17.56,1,.5,2.28.75,3.59l-2.92.85,1.26,1.6c-.55.09-1,.32-1.36.19C164.5,125.05,163.55,124.52,162.58,124Z"/><path class="cls-30" d="M366,82.31c-2.62-1.22-5.41-1.22-8.21-1.18-1.27.75-2.58,1.46-3.8,2.28s-2.42,1.78-3.62,2.68c-2.53-.75-4.17.7-5.72,2.34-.61.65-1.14,1.36-1.7,2l-.11-.11a6.18,6.18,0,0,1,3.25-4.3,40.09,40.09,0,0,0,4.17-2.69c3.37-2.69,7.19-3.41,11.36-3C363.29,80.54,364.85,80.89,366,82.31Z"/><path class="cls-31" d="M221.06,150.92l-7.33-9.56,9.3,3.73-4.36.57Z"/><path class="cls-32" d="M368.93,85a32.8,32.8,0,0,1-8.18,7.35c.32-2.29,4.34-6.11,7.75-7.56A.49.49,0,0,1,368.93,85Z"/><path class="cls-33" d="M160.23,117c-1.1,1.75.43,2.2,1.49,2.81-.56.9-1,1.7-1.53,2.49-1.8-.83-3.29-2.48-5.55-2.18Z"/><path class="cls-34" d="M225.13,2.75a49.61,49.61,0,0,0-5.41-.48c-2.42,0-4.83.38-7.24.54a14.38,14.38,0,0,1-2-.1A20.82,20.82,0,0,1,225.13,2.75Z"/><path class="cls-35" d="M141.07,298.74c1.48-2.29,5.53-5.67,7.56-6.32Z"/><path class="cls-36" d="M75.71,238.73c-.17.57-.17,1.3-.55,1.66-1.66,1.62-3.42,3.13-5.15,4.68Z"/><path class="cls-37" d="M126.66,138.08l-5.74,5.72Z"/><path class="cls-38" d="M301.25,160.59a13,13,0,0,1-5.73,5Z"/><path class="cls-39" d="M283.83,173.57c-.54,1.9-1.9,2.57-3.75,2.46Z"/><path d="M220.51,510.41l2.48,3.73c-.8,1.52-.73,1.63,1.25,1.86.36,1.69.72,3.38,1.14,5.31l2.3-.25c-.08.89-.15,1.64-.18,1.9,2,1.84,3.69,3.45,5.39,5.07.14.13.12.47.26.54,1.24.65,2.49,1.77,3.73,1.77,2.17,0,.82,2.41,2.46,2.83,1.21.3,2.15,1.61,3.26,2.4a2.52,2.52,0,0,0,1.54.56c1.65-.19,2.91,0,2.68,2.13,2.6.08,4.68.36,6.41,2.26,1.36,1.51,3.38,1,5.17.34l1.86.62c-.09,2.15,1.41,2.49,3,2.45,1.42,0,2.09.49,2,1.66l4.32.24c.7.9.4,3.18.62,4.34H269c-3.53,0-7.07.07-10.61,0a13.65,13.65,0,0,0-7.17,1.32l4.12,1.19c-.55.19-1.12.6-1.64.53-2.3-.3-4.55-.76-6.77.46-.53.29-1.38,0-2.08,0-1-.09-2-.31-3.05-.32-4.48-.07-8.95.32-13.44,0-3.31-.22-6.64,0-10.18,0-.62-2.92-3.07-3.29-5.81-3.1-2.24.17-4.48.41-6.72.62-1.65-1-3.31-1.31-5,0l-2.48-.62c-.62.25-1.24-1.94-1.86,0h-.62c-.12-1.09-.88-1.18-1.78-1.25-4.9-.39-9.8-.77-14.68-1.3-.66-.07-1.24-.9-1.69-1.94-1.71.2-3.42.5-5.14.54-1,0-2.48-.07-2.85-.67-1.27-2-3.84-3.26-3.84-6,.69-.58,1.62-1,1.89-1.68.19-.49-.66-1.3-.76-2-.18-1.23-.65-2.88-.07-3.66,1.36-1.84.86-3.68.72-5.77h3.07l.28-5.48c-.43-.61,1.11-2.53-1.24-1.86v-1.86c.2.06.51.24.57.18.44-.46,1-1.46,1.22-1.38,1.61.47,1.44-1,1.63-1.61a6.07,6.07,0,0,0-.26-2.38c0-.1,0-.21,0,0l3.66-3.13c.07,1.75.7,3.41.13,5.36a32.32,32.32,0,0,0-.61,5.93l6.06,4.25c2.91-1.8,6.45-1.81,10.08-.7.38.12,1,.29,1.17.12,1.62-1.82,4.41-2.37,5.13-4.44l3.49-.72c.6-1.74,1.09-3.19,1.62-4.62.16-.44,3.11-1.8,3.89-1.87s1.83-.17,2.75-.27c.05,0,.08-.18.18-.42l-2.61-1.81,4.4.64c.29-3.56,1-4.39,3.33-4.13,2.09.25,2.81,1.76,2.28,5.24Zm-45.1,7.81c-.49-.36-.83-.77-1-.71s-.56.5-.84.77c.26.25.51.68.76.69S174.89,518.59,175.41,518.22Z"/><path class="cls-3" d="M211.81,563.84h-2.48c.23-1,.45-1.92.7-3-.42,0-1.05-.15-1.17,0-1.84,2.87-3.94,1.4-6.08.49a6.91,6.91,0,0,0-2.64-.6c-3.3,0-6.6.21-9.89.12a19.66,19.66,0,0,1-4.69-1c-2.23-.63-4.37-1-6.18.94-1.81-2.31-1.81-2.3-4.71-2.65-.6-.07-1.19-.38-1.79-.42-1.59-.09-3.16-.6-4.75.51-.64.45-1.91,0-2.9-.06l-.06-1-3-1.17c0-1.75,0-3,0-4.35a2.47,2.47,0,0,1,3-2.69c1.35.2,3-.1,3.74,1.82a5.78,5.78,0,0,0,2.38,2.13A2.07,2.07,0,0,0,173,553a11.46,11.46,0,0,0,2-1.78c1.95,1.45,5.63.45,6.05,4,3.19,0,6.25-.43,9.21,0s5.91-1.3,8.8.57c2.14-1.19,4.42-2.52,6.68,0,1.32-.56,2.49.17,3.74.35a26.15,26.15,0,0,0,3.83,0c.19,1.14.1,2.06.5,2.61a2,2,0,0,0,2.73.65c3.48-1.9,7.11-1.37,10.78-.74a27.92,27.92,0,0,0,3.78.14,2.91,2.91,0,0,0,.06,1.19,7.39,7.39,0,0,0,1,1.23,8.28,8.28,0,0,0,1.33-1.24c.19-.27,0-.78.06-1.18,2.27-.32,4.66.7,6.83-.62h6.84c3,1,6,2.1,9.73.37-.42,1.72-.72,2.93-1,4.1l-8.53-1c-1.91,3.58-4.52,4.52-8.31,3.54-2.06-.53-4.45.18-6.69.34-1.6.11-3.3,1.29-4.7-.66a1.9,1.9,0,0,0-1.87-.13c-.87.92-1.73.55-2.54.23-1.07-.42-2.25-1.66-3-1.42-1.72.53-1.83-.85-2.48-1.5-1.24-1.24-2.71-.86-4.09-.68A2,2,0,0,0,211.81,563.84Z"/><path class="cls-4" d="M165.23,558.25c1,0,2.26.51,2.9.06,1.59-1.11,3.16-.6,4.75-.51.6,0,1.19.35,1.79.42,2.9.35,2.9.34,4.71,2.65,1.81-2,4-1.57,6.18-.94a19.66,19.66,0,0,0,4.69,1c3.29.09,6.59-.13,9.89-.12a6.91,6.91,0,0,1,2.64.6c2.14.91,4.24,2.38,6.08-.49.12-.18.75,0,1.17,0-.25,1.07-.47,2-.7,3l-18-.62c-2-.2-4-.37-6.07-.61-5.25-.61-10.52-1.1-15.72-2-2.13-.36-4.11-1.57-6.16-2.39Z"/><path class="cls-40" d="M217.4,555.77c-2-.36-4-.75-6-1.09-4-.69-8-1.35-12-2a10.46,10.46,0,0,0-2.28-.58c-2.56-.07-5.13,0-7.7,0L187,552l.62-.61,8.13,0h7.38l1.87,0c1.34.41,2.68.85,4,1.23,3,.84,6,1.65,9.06,2.47Z"/><path class="cls-41" d="M217.4,555.77l.66-.64c2.73.2,5.46.52,8.2.57,4.9.1,9.81,0,14.72.06l4.37-.61,1.82,0,3.15.65-7.4.64-3.77.58h-8.71l-5.63-.59-3.69,0-3.72-.6Z"/><path class="cls-42" d="M179.52,550.79c-5.91-.83-13-3-14.52-4.86l.68.15c2.46.55,4.94,1,7.38,1.7,2.6.69,5.16,1.58,7.74,2.38Z"/><path class="cls-43" d="M179.52,550.79l1.28-.63,6.79.65v.61L187,552Z"/><path class="cls-44" d="M250.32,555.77l-3.15-.65,7.5-1.21v1.22l-1.86.64Z"/><path class="cls-45" d="M189.41,552.06c2.57,0,5.14-.06,7.7,0a10.46,10.46,0,0,1,2.28.58c-2.46,0-4.92.05-7.38,0A14.22,14.22,0,0,1,189.41,552.06Z"/><path class="cls-2" d="M233.55,558.87c0,.4.13.91-.06,1.18a8.28,8.28,0,0,1-1.33,1.24,7.39,7.39,0,0,1-1-1.23,2.91,2.91,0,0,1-.06-1.19Z"/><path class="cls-4" d="M203.1,551.38h-7.38a2.78,2.78,0,0,1-.06-.58v-.64h.62q.93,1.2,1.86,0l2.48.62Z"/><path class="cls-45" d="M195.66,550.81a2.78,2.78,0,0,0,.06.58l-8.13,0v-.61Z"/><path class="cls-2" d="M240.38,558.25c-2.17,1.32-4.56.3-6.83.62C235.73,557.55,238.12,558.57,240.38,558.25Z"/><path class="cls-4" d="M169.58,517.25v1.86L169,521h-1.24C168.63,519.88,167.84,517.93,169.58,517.25Z"/><path class="cls-46" d="M224.81,556.41l5.63.59Z"/><path class="cls-4" d="M169.58,519.11c2.35-.67.81,1.25,1.24,1.86h-1.24Z"/><path class="cls-3" d="M169.58,519.11V521l-.13,1.95h-.36c-.05-.65-.09-1.3-.13-1.95Z"/><path class="cls-44" d="M239.15,557l3.77-.58Z"/><path class="cls-46" d="M217.4,555.77l3.72.6Z"/><path d="M123.62,535.89a2.93,2.93,0,0,0,1.36,2.65c2.27,1.76,4.86,3.45,6,6.3.41,1,.74,1.69,2,1.34a.88.88,0,0,1,.75.36c2.13,4.13,5.83,6.81,9.08,9.92a13.41,13.41,0,0,1,1.7,2.58l1-.31c.72,1.52,3.41,3.24,5.63,3.59-.07.51-.15,1-.22,1.52a26.76,26.76,0,0,0,4,3.1c.6.14,1.2.25,1.78.43s.93.37,1.39.56l1.77-1.53c.77,1.53,8.43.68,4.73,3.44s-2.7,4.76-3.71,5.81h-1.21c-1.87.43-1.67-1.55-2.45-2.31l-3.5.77c-.33,1.46-.62,2.72-.91,4l-1.27.63-1.82,0a8,8,0,0,0-5.75-.16A18.08,18.08,0,0,1,142,579a17.9,17.9,0,0,0-3.54.55,6.1,6.1,0,0,1-3.09.75,2.2,2.2,0,0,0-2.45,2.2l-1.23,0a7.29,7.29,0,0,0-6.85.61l-11.17-.63-5-.63-2.51-1.24c-1-.92-2-2.69-2.86-2.57-1.84.26-3-1.13-4.61-1.13h0c-.08-1.16-.15-2.31-.23-3.51a11.72,11.72,0,0,0-7.19.31l-.65-.54c.15-.89.29-1.79.47-2.86-1.16,0-2.38-.33-3.28.07-2.27,1-4.55.4-6.76.26-2.42-.17-4.79-.7-7.2,0l-1.47-2.38H68.08c.18-1.17.33-2.1.49-3.11-2.5.36-2.5.36-2.75,2.73l-3.7-2.37c.12-1.09.73-2.6.26-3.11C59.85,559.65,61,557,62,553.87c2.46,2.5,4.57.75,7.08.16-1.28-1.72.07-3.94-1.9-5.4l-2.49,2c-2.05-2.31-1.77-3.61,1.11-5.55.08-1,.15-2,.24-3.15l2.4-1.08c-.11-1.66-.27-3.29-.31-4.92a3.34,3.34,0,0,1,.39-2,33,33,0,0,1,3-3.06c.1,1.39.27,2.79.29,4.19,0,1.12.7,1.33,1.57,1.4.26,3.26.63,3.51,3.73,2.48.47.08,1.25,0,1.35.27a17.11,17.11,0,0,1,.79,2.93c.16.73.23,1.48.34,2.21a19.59,19.59,0,0,0,2.15-.77c1.29-.64,2.54-1.36,3.73-2,.89.63,1.62,1.24,2.44,1.71,1,.59,1.59-.28,2.34-.82.55-.4,1.43-.35,2.68-.61l-1.77-1.44c-.77-2.92,2-3.7,3.08-5.48,1.32.66,1.64-.7,2.43-1.07,1.32-.62,1.17-1.83,1.82-2.63a2.75,2.75,0,0,1,2.08-.93c2.33.22,3.78-.6,4.17-3.1a9.41,9.41,0,0,0,2.83.44c.65-.11,1.2-.87,1.9-1.42.56.36,1.18,1.07,1.9,1.19a3.53,3.53,0,0,1,3.18,2.84c.22.78,1.44,1.22,2.12,1.91,1,1,1.84,2,2.75,3-.11.22-.21.44-.31.66Z"/><path class="cls-3" d="M108.71,586.83c.48.41.91,1.07,1.45,1.17a15.76,15.76,0,0,0,3.1.06c-1.54,3.08-1.81,3.18-4.72,2.76a8.22,8.22,0,0,0-2.31.36h0c-1.41-.84-3.35-1-3.65-3-3.3,0-6.38,0-9.46,0-.64,0-1.58-.15-1.84-.57-1.82-2.94-4.76-2.54-7.35-2.24a48.9,48.9,0,0,1-11.47,0c-.74-1.55-1-3.49-3.43-2.72-.21.07-.73-.34-.88-.64-.68-1.43-1.9-1.24-2.72-1.24-.83.94-1.44,1.64-2.06,2.33-.32-.79-1.41-.63-1.65-1.92s-.92-3.42-3.28-3.4c.25-1.72.47-3.18.69-4.63l.37.06.53,2c.92-2.34,2-3.84,4-4.54.46.85.67,1.83,2.11,1.65,2-.25,4,.93,6,.2h0c.69,1.32,1.51,1.67,3.18,1.44a26.87,26.87,0,0,1,9.9.42l1.83,0c.68.49,1.1,1.67,1.48,1.82,2.51,1,4.93,2.59,7.85,1.87h0c-.31.69-.58,1.7.43,1.65,1.68-.09,1.79.93,2.05,2,.09.39.24.75.41,1.28,2.92-.67,5.65.2,8.44.48Z"/><path class="cls-4" d="M108.71,586.83l-1.07-3.28c-2.79-.28-5.52-1.15-8.44-.48-.17-.53-.32-.89-.41-1.28-.26-1.1-.37-2.12-2.05-2-1,0-.74-1-.43-1.65l11.76,4.43c2.31,1.36,4.9,1.55,7.49,1.78l1.81,0c2.82,1.23,5.79.39,8.68.56a6.67,6.67,0,0,0,2-.56c2.32-.21,4.64-.4,7-.65,1.4-.15,2.79-.41,4.19-.62-1.24,2.53-2.05,2.81-5,1.49l-1.69,3.27a12.19,12.19,0,0,1-2.6.46c-1.84-.07-3.95.4-5-1.92-.09-.21-.83-.14-1.27-.19q-.93-1.2-1.86,0c-2,1-3.84-.69-5.81-.42-.44.06-1.09-.34-1.33-.14C112.84,587.11,110.75,586.81,108.71,586.83Z"/><path class="cls-3" d="M141.42,588l1.79-4.67c1.82-.27,3.47-.25,4.63,1.72,2.17-2.11,4.7-2.19,7.28-1.8.42.07.72.82,1.47,1.73-2.3.09-4.24-.26-5.81.36s-3.48-.13-4.65,1.94c-.52.92-2.62,1-4,1.4Z"/><path class="cls-44" d="M139.15,583.1c-1.4.21-2.79.47-4.19.62-2.31.25-4.63.44-7,.65l-2.53-.64,2.51-.62,3.72-.62,1.23,0,11.18-1.85,1.89.63c-1.62.4-3.25.8-4.86,1.22C140.47,582.65,139.81,582.89,139.15,583.1Z"/><path class="cls-3" d="M121.76,586.21q.93-1.2,1.86,0v4.14h-7.26l-.2-3.09C119.25,588.82,120.59,588.52,121.76,586.21Z"/><path class="cls-47" d="M151.54,578.74l1.27-.63,6.86-2.45h1.21c-.14.48-.15,1.23-.46,1.4-1.25.66-2.59,1.14-3.9,1.7l-3.09.61Z"/><path class="cls-48" d="M151.54,578.74l1.89.62L146,581.25l-1.89-.63,5.6-1.84Z"/><path class="cls-3" d="M159,578.75c.11.9.23,1.8.33,2.62-1.86,2-3.66.51-5.56.24,1.18-2,2.65-.25,3.89-.49l.72-2.37Z"/><path class="cls-49" d="M159,578.75h-2.5c1.31-.56,2.65-1,3.9-1.7.31-.17.32-.92.46-1.4,1.07-.54,1.26.35,1.14.93s-.74,1-1.14,1.55Z"/><path class="cls-11" d="M169,576.89v4.35c-.21-1.45-.42-2.9-.62-4.35Z"/><path class="cls-21" d="M78.31,511.65A45.84,45.84,0,0,0,99,519.15c3.87.39,7.79.42,11.69.61l-.24,3.37-6.73,2.16c-5.38,1.29-9,4.86-12.15,9.15l-2,2.73-3.22,2.39c-4.92.72-8.36-2.26-11.85-4.92-.54-.42-.56-1.91-.38-2.82.8-4.13,1.77-8.22,2.64-12.33C77.31,516.88,77.8,514.26,78.31,511.65Z"/><path d="M71.45,530.92a33,33,0,0,0-3,3.06,3.34,3.34,0,0,0-.39,2c0,1.63.2,3.26.31,4.92L66,542c-.09,1.12-.16,2.14-.24,3.15-2.88,1.94-3.16,3.24-1.11,5.55l2.49-2c2,1.46.62,3.68,1.9,5.4-2.51.59-4.62,2.34-7.08-.16-.92,3.09-2.11,5.78.42,8.56.47.51-.14,2-.26,3.11l3.7,2.37c.25-2.37.25-2.37,2.75-2.73-.16,1-.31,1.94-.49,3.11h4.38l1.47,2.38H72.68c-2.53-.65-5.06-1.31-7.6-1.93-1-.24-2-.38-2.95-.57-2-1-2-3.16-2.48-5v-7.45c.61-2.35,1.08-4.73,1.86-7,1.84-5.42,3.78-10.81,5.77-16.18a18.8,18.8,0,0,1,1.68-2.9l3-1.51C71.8,529.18,71.62,530.05,71.45,530.92Z"/><path d="M77,539c-3.1,1-3.47.78-3.73-2.48.87.63,1.44,2.16,2.92,1Z"/><path class="cls-50" d="M86.35,539.56l3.22-2.39C89.13,538.82,87.88,539.38,86.35,539.56Z"/><path class="cls-21" d="M180.68,499.87a8.8,8.8,0,0,0,1.67,1.67,31.38,31.38,0,0,0,20.6,3.61c3.15-.51,6.29-1.08,9.43-1.62a7.44,7.44,0,0,1-1.1,1.89,21.77,21.77,0,0,1-2.67,1.84,24,24,0,0,0-9.19,6.87l-2.53,3.08c-4.25,5.09-12.6,7.18-19,2.24.58-4.23,1.18-8.59,1.8-12.94C180,504.29,180.35,502.08,180.68,499.87Z"/><path class="cls-20" d="M200.58,398.45l.43,2.65c-.26.12-.95.21-1,.5-.95,3-3.09,5.55-2.73,8.91a1.73,1.73,0,0,1-.16,1.14c-3.3,4.1-3.06,9.33-4.53,14-.41,1.32-.88,2.63-1.33,3.95q1.75-8.24,3.5-16.48c.15-.7.33-1.38.5-2.07,1.49-3.69,3-7.38,4.47-11.06A12.76,12.76,0,0,1,200.58,398.45Z"/><path class="cls-20" d="M191.25,429.56c.27,1.39-.31,3.07,1.36,4,.09.05.11.37.06.54a12.8,12.8,0,0,0-.68,2.27,6.13,6.13,0,0,1-.22,2.35c-.25-.76-.5-1.52-.75-2.3-1.6,2.07-.05,4.34-.53,6.45-.17.76-.28,1.54-.41,2.31l-1.3-.64Q190,437,191.25,429.56Z"/><path class="cls-51" d="M196.89,517.21l2.53-3.08Z"/><path class="cls-20" d="M12.4,293.46c.06,1.61,1,.7,1.84.33,0,.65.17,1.23,0,1.41-2,1.85-1.55,4.23-.68,6.09s.78,3.26.47,5.4l-5.83-.56c-.41.48.26,2.4-1.52,2.65-.47,2.58-1.85,5.18-.59,7.76.91,1.83,1.34,3.62.07,5.15-1,1.17-2.58,1.8-4.47,3,.24,3.6.55,7.78.75,12A7.55,7.55,0,0,1,1.84,339,62.78,62.78,0,0,1,2,317.46,54.75,54.75,0,0,1,11,295,16,16,0,0,1,12.4,293.46Z"/><path class="cls-20" d="M101.16,399.71a12.65,12.65,0,0,1-2.13,6.5c-1.68,2.64-2.65,5.73-4,8.59a8.65,8.65,0,0,1-1.44,1.73c.15-.78.29-1.56.44-2.34,1.79-3.76,3.58-7.54,5.39-11.29C99.94,401.81,100.58,400.77,101.16,399.71Z"/><path class="cls-20" d="M108,387.75a5.21,5.21,0,0,1-1.36,3.53,24.58,24.58,0,0,0-3.14,5.93,4.2,4.2,0,0,1-2.38,2.56Z"/><path class="cls-20" d="M21.71,283.5c-.36.56-.7,1.14-1.09,1.68a17.13,17.13,0,0,1-2.28,3,13.38,13.38,0,0,1-3,1.6Z"/><path class="cls-4" d="M254.67,553.91l-7.5,1.21-1.82,0-4.37.61c-4.91,0-9.82,0-14.72-.06-2.74-.05-5.47-.37-8.2-.57-3-.82-6.05-1.63-9.06-2.47-1.35-.38-2.69-.82-4-1.23l.63-.63c2.24-.21,4.48-.45,6.72-.62,2.74-.19,5.19.18,5.81,3.1,3.54,0,6.87-.18,10.18,0,4.49.3,9-.09,13.44,0,1,0,2,.23,3.05.32.7.06,1.55.32,2.08,0,2.22-1.22,4.47-.76,6.77-.46.52.07,1.09-.34,1.64-.53,1.8,0,0-1.24.7-1.84.95.11,2.05.29,3.15.36a27.33,27.33,0,0,0,9.81-1h1.25l2.46.67L264,552.35Z"/><path class="cls-52" d="M254.67,553.91l9.31-1.56,8.68-1.51c-.09,1.47-1.41,1.38-2.29,1.64a39.83,39.83,0,0,1-5.1,1.08c-3.53.56-7.07,1.05-10.6,1.57Z"/><path class="cls-53" d="M211.69,375.81c.25-.43.39-1.1.75-1.25,3.3-1.32,6.64-2.57,10-3.8.23-.09.56.09,1,.18-.6,1.87-2.36,2.06-3.63,2.75a23.79,23.79,0,0,1-3.67,1.29l-3.1,1.24-1.34,0A.23.23,0,0,1,211.69,375.81Z"/><path class="cls-1" d="M63.37,583.1c.62-.69,1.23-1.39,2.06-2.33.82,0,2-.19,2.72,1.24.15.3.67.71.88.64,2.41-.77,2.69,1.17,3.43,2.72a48.9,48.9,0,0,0,11.47,0c2.59-.3,5.53-.7,7.35,2.24.26.42,1.2.56,1.84.57,3.08.06,6.16,0,9.46,0,.3,2,2.24,2.16,3.65,3-1.94-.21-3.88-.36-5.81-.63-2.62-.36-5.24-.82-7.86-1.23l-6.2-.63c-2.76-1.39-5.74-1.25-8.7-1.24-2.59-.48-5.21-.83-7.75-1.48-2.22-.57-4.36-1.48-6.54-2.24Z"/><path class="cls-54" d="M63.37,583.1v.63c-1.53-.57-3.07-1.09-4.58-1.71a3,3,0,0,1-2.25-3.26c-.22-3.91,1.51-7.09,3.52-10.18l2.09.84,1.84.64v.62c-1.91.7-3,2.2-4,4.54l-.53-2-.37-.06c-.22,1.45-.44,2.91-.69,4.63,2.36,0,3,2,3.28,3.4S63.05,582.31,63.37,583.1Z"/><path class="cls-52" d="M64,570.06l-1.84-.64c0-.41,0-.82,0-1.24,1,.19,2,.33,2.95.57,2.54.62,5.07,1.28,7.6,1.93a4.85,4.85,0,0,0,1.36.58c3,.25,5.94.34,8.88.68,2,.22,4,.78,5.93,1.18l-1.26,1.22a6,6,0,0,1-.61.09l-1.83,0c-.5-.4-1-1.12-1.49-1.16-3.86-.31-7.72-.48-11.59-.7h0Z"/><path class="cls-8" d="M59.65,557v6.21A7,7,0,0,1,59.65,557Z"/><path class="cls-4" d="M224.24,516c-2-.23-2.05-.34-1.25-1.86h1.25Z"/><path class="cls-20" d="M127.34,315.38c0,.21,0,.41,0,.62-.15,2.86-.28,3-3,3.05-4.86,0-9.72,0-14.58,0h-4v-6.18l2.55-.31c-.35,1-.56,1.53-.9,2.49h5.15l.07-.4c-.5-.09-1-.21-1.49-.26-1.27-.14-.81-.87-.55-1.54a30.43,30.43,0,0,1,3.7.12c3.53.52,7,1.14,10.58,1.73Z"/><path class="cls-53" d="M127.34,315.38l-2.48-.67v-.64a24.87,24.87,0,0,1,8.51,1.07,35,35,0,0,0,5.15.82h.61a19.7,19.7,0,0,0,2.76,1.2,128.67,128.67,0,0,1,19,6.86h0l5.6,3.7,3.7,2.53,3.75,4.34c3,4.32,4.48,9.22,5.58,14.28l-1.26-.61c-.9-2.47-1.84-4.92-2.71-7.4-1.79-5-5.5-8.57-9.54-11.71a68.49,68.49,0,0,0-7.6-4.51l-6.21-2.48-5.58-1.87c-2.62-1.83-5.71-2-8.7-2.49h0L130.45,316Z"/><path class="cls-20" d="M101.23,305.49l5.59,2.48c-.83.64-1.36,1.36-.59,2.39l-2.43-.29-12.46-1.58-7.47-1.23L73.93,306c.38-.41.76-1.15,1.14-1.15a33.4,33.4,0,0,1,4.23.38c1.4.18,2.89.83,4.15.52,2.81-.69,5.47.1,8.18.3a9.37,9.37,0,0,1,2.5,1l3.3-1.68-3-3.1Z"/><path class="cls-53" d="M91.34,308.49l12.46,1.58,2.43.29,1.84,0c.25.17.48.45.75.5,4.21.68,8.44,1.3,12.64,2a22.8,22.8,0,0,1,3.41,1.15v.64c-3.53-.59-7-1.21-10.58-1.73a30.43,30.43,0,0,0-3.7-.12,30.29,30.29,0,0,0-4.06-1.2c-5.37-.84-10.76-1.58-16.14-2.33-.92-.13-1.85-.15-2.78-.22Z"/><path class="cls-20" d="M47.28,271.61l9.3,5.07L59,279.3l-4.54.8c-.28-1.19-.43-2-.66-2.74s-1.95,0-1.89-1.58c0-.47-1-1-1.68-1.63-.27.88-.41,1.31-.53,1.7Z"/><path class="cls-55" d="M101.23,305.49l-6.8-3.16q-7.41-5-14.81-10c-.5-.34-.93-.78-1.4-1.17.48-.05,1.12-.33,1.42-.12,3.09,2.13,6,4.47,9.21,6.49,3.61,2.32,7.4,4.36,11.08,6.57A6.77,6.77,0,0,1,101.23,305.49Z"/><path class="cls-20" d="M59,279.3l-2.45-2.62c2.11,1.25,4.29,2.41,6.33,3.77,3.85,2.56,7.63,5.21,11.41,7.88a22.21,22.21,0,0,1,2.25,2.1c-2.41-.05-4-1.84-5.81-3C66.72,284.93,62.92,282,59,279.3Z"/><path class="cls-53" d="M178.25,348.27l1.26.61a2.57,2.57,0,0,1,.37.84q0,8.05,0,16.11c0,.16-.25.31-.38.47l0,0-.62-3.71Q178.58,355.41,178.25,348.27Z"/><path class="cls-53" d="M113,378.79c-.57-1.21,0-2.23.68-3.1,1.54-2.11,2.79-4.48,5.2-5.84a4.77,4.77,0,0,0,1-1.09l1.86-.6h0c.29,2-1.54,2.5-2.62,3.37a10.69,10.69,0,0,0-3.6,4.69c-.59,1.11-1,2.34-2.54,2.56Z"/><path class="cls-20" d="M115.52,376.21a10.69,10.69,0,0,1,3.6-4.69c1.08-.87,2.91-1.36,2.62-3.37h1.36c-.61,2-1.17,3.84-1.76,5.8A8.34,8.34,0,0,0,115.52,376.21Z"/><path class="cls-53" d="M73.93,306l9.94,1.24-1.24,1.23c-2.2-.22-4.4-.38-6.58-.69C75.06,307.66,74,307.32,73.93,306Z"/><path class="cls-53" d="M179.53,366.3c-.64,2.63-1.25,5.28-2,7.9-.1.34-.75.53-1.15.79a10.33,10.33,0,0,1,.05-1.67c.6-3.05,1.23-6.09,1.87-9.13a4.17,4.17,0,0,1,.55-1l.63,3.11Z"/><path class="cls-20" d="M152.19,322.17l6.21,2.48c-2.32-.88-4.52-.09-6.59.59C149.53,323.74,152.37,323.22,152.19,322.17Z"/><path class="cls-20" d="M130.45,316l7.46,1.85c-2.17,1.77-2.62,1.69-4.64-.17A14.91,14.91,0,0,0,130.45,316Z"/><path class="cls-53" d="M82.63,308.49l1.24-1.23,7.47,1.23-3.74.62Z"/><path class="cls-20" d="M137.91,317.81c3,.5,6.08.66,8.7,2.49-2.81-.55-5.63-1.08-8.43-1.68C138,318.59,138,318.1,137.91,317.81Z"/><path class="cls-20" d="M121.75,368.16l-1.86.6.79-1.74Z"/><path class="cls-53" d="M179.51,366.26l-.63-3.11c0-.2,0-.4,0-.6C179.1,363.79,179.3,365,179.51,366.26Z"/><path class="cls-56" d="M159,197.33c-3.69,2.74-7.94,4.29-12.27,5.66l-1.27-.83c2.32-1.74,1.69-4.14,1.71-6.4,0-1.35-.58-2.18-2-2.17-2,0-2.4-1.13-2.35-2.81s0-3.49,0-5.42l1.87.13c1.43,1.12,2.89,2.21,4.28,3.38s2.54,2.29,3.8,3.44c.29,1,.57,1.93.88,3l2.23-.47C157,195.64,158,196.48,159,197.33Z"/><path class="cls-57" d="M315.32,196l-4,7.26-6-4.88c2.59-3.4,5.69-6.08,8.47-9s5.67-6,8.51-9l.84.83Q319.21,188.6,315.32,196Z"/><path class="cls-58" d="M219.81,179.9c0,.82.06,1.65.1,2.47a26.66,26.66,0,0,1-3.67-2.14c-4.57-3.67-9.18-7.32-13.56-11.21-3.67-3.26-7-6.88-10.56-10.29-4.45-4.28-8.33-9.16-13.34-12.88a6.77,6.77,0,0,1-1.14-1.43,1.38,1.38,0,0,1,.14-.59,35.71,35.71,0,0,1,3.33,2c1.2.91,2.26,2,3.38,3,1.12,1.22,2.2,2.48,3.39,3.63a5,5,0,0,0,1.56.73,4,4,0,0,0,.57,1.4c3.52,3.49,7.08,6.94,10.62,10.4l1.87,1.85.6,0,2.5,2.48c1.8,1.62,3.57,3.28,5.4,4.86s3.77,3.08,5.64,4.63C217.57,179.59,218.37,180.67,219.81,179.9Z"/><path class="cls-58" d="M235.41,191.72a19.89,19.89,0,0,0,2.42,1.79c2.45,1.3,5,2.49,7.49,3.74,5.76-3.75,11.43-7.47,17.12-11.14q6.75-4.35,13.56-8.58a10.46,10.46,0,0,1,2.27-.77c0,.32.05.73-.11.94a6.61,6.61,0,0,1-1.14,1l-3.09,1.87-.63.62-5.59,3.72c-2,1.14-4.13,2.19-6.1,3.45-4.84,3.08-9.67,6.2-14.41,9.42a3.55,3.55,0,0,1-3.71.23c-4.79-1.75-8.84-4.75-13-7.5l.64-.63Z"/><path class="cls-59" d="M360.26,141.39c-2.25,1.67-4.52,3.33-6.76,5-.47.35-.88.79-1.32,1.19l-4.35,4.34-3.72,5-4.37,5.58c-.2,0-.49,0-.59.15q-3.13,4-6.23,7.93l-5,5.6-1.29-.48c1.25-1.62,2.33-3.09,3.49-4.49,5.16-6.26,10.41-12.44,15.49-18.77a38.6,38.6,0,0,1,9.61-8.91c1.46-.91,2.91-1.85,4.36-2.78Z"/><path class="cls-60" d="M351.55,88c1.3.21,2.6.47,3.91.61.89.11,1.8.26,1.53,1.37-.11.46-.93.95-1.5,1.07a16.24,16.24,0,0,1-3,0l-2.14,7.25h-3.9l-1.72-2.91C346.21,92.18,348.22,89.46,351.55,88Z"/><path class="cls-61" d="M159,197.33c-1-.85-2.07-1.69-3.11-2.53l-3.11-2.49c-1.26-1.15-2.49-2.34-3.8-3.44s-2.85-2.26-4.28-3.38L143,183c2.42.26,3.57,1.85,4.92,2.93,6.34,5,12.52,10.25,18.9,15.22,4.36,3.39,9,6.46,13.45,9.7a2.75,2.75,0,0,1,.53.74l-1.33,0-1.15-.07h0l-8.05-5.74Z"/><path class="cls-58" d="M360.26,141.39l-.65-.65a1.17,1.17,0,0,1,.15-.27c5.86-5.17,9.54-12,13.87-18.32,2.5-3.65,4.92-7.35,7.36-11a12.69,12.69,0,0,0,.74-1.36l.86.48a6.23,6.23,0,0,1-.48,2c-2.13,3.27-4.34,6.49-6.52,9.73-1.72,2.56-3.38,5.16-5.16,7.66-2.26,3.18-4.54,6.34-7,9.37A15.32,15.32,0,0,1,360.26,141.39Z"/><path class="cls-62" d="M351.55,88c-3.33,1.51-5.34,4.23-6.83,7.44l-3.48,4.41-.58-.32.33-2.21,1.25-1.86a2.72,2.72,0,0,0,.74-.52,31.89,31.89,0,0,1,7.06-8c.2-.14.2-.56.29-.85,1.2-.9,2.37-1.85,3.62-2.68s2.53-1.53,3.8-2.28c-.4,2.11-2.23,3-3.62,4.3C353.25,86.24,352.41,87.11,351.55,88Z"/><path class="cls-63" d="M315.54,147.59l5-5c.35,1.18,2.56,1.42,1.51,3.44-2.88-.23-3.61,1.94-4.2,4.24a2.2,2.2,0,0,0,.51.3c.93.28,2.26.22,1.81,1.77-.24.83-2,1.08-3,.59-1.53-.71-2-2.27-1.12-4.48C316.29,147.72,316.13,147.67,315.54,147.59Z"/><path class="cls-64" d="M179.43,211.63l1.33,0c3.58,1.89,7.14,3.82,10.75,5.65,2.62,1.33,5.33,2.51,8,3.79a16.58,16.58,0,0,1,1.78,1.12h-1.88c-3.8-1.8-7.6-3.61-11.41-5.4-1.11-.52-2.23-1-3.35-1.5Z"/><path class="cls-65" d="M347.83,151.94l4.35-4.34c-.43,2.74-.87,5.48-1.34,8.44h-4.53c.75-1,1.48-1.93,2.13-2.9C348.88,152.48,348.74,152,347.83,151.94Z"/><path class="cls-66" d="M199.39,222.15h1.88l3.07.64c1.09.93,2.11,2,3.74,1.87,2.22,1.11,4.47,2.17,6.65,3.35a12.64,12.64,0,0,1,2,1.65c-3.38-.28-6.16-2.18-9.18-3.43-2.73-1.13-5.43-2.34-8.14-3.51h0A5,5,0,0,0,199.39,222.15Z"/><path class="cls-67" d="M315.32,196q3.89-7.4,7.76-14.78c.37-.68.75-1.36,1.34-2.45l-2,.66,2.25-2.16a3.25,3.25,0,0,1,0,3.27c-2.48,4.59-4.8,9.28-7.29,13.87C317,195.09,316,195.47,315.32,196Z"/><path class="cls-65" d="M339.74,162.49l4.37-5.58c.32,1.55,1.2,3.25.83,4.62-.53,2-2.69.22-4,.88A3.15,3.15,0,0,1,339.74,162.49Z"/><path class="cls-68" d="M328,176.17l5-5.6c.76,1.83.48,3.57-.58,5.6Z"/><path class="cls-61" d="M368.61,99.85c1.16-2.8,6.12-7.88,8.44-8.93C376.49,93,373.38,96.39,368.61,99.85Z"/><path class="cls-32" d="M373.46,108.41c1-3.4,3.89-5.32,6.35-8C379.66,102.58,377,106,373.46,108.41Z"/><path class="cls-68" d="M267.71,184.86l5.59-3.72c-1,1.15-1.55,2.4-.67,4.05C270.76,185.5,269.2,186,267.71,184.86Z"/><path class="cls-68" d="M273.93,180.52l3.09-1.87c.39.88.77,1.76,1.14,2.59C276.3,182.51,275.14,181.38,273.93,180.52Z"/><path class="cls-69" d="M231.09,189.83l-.64.63-4.36-3.1.65-.66,2.47,1.26,1.23.64Z"/><path class="cls-63" d="M317.78,154.08h4.65c-1.74,1.5-3.21.92-4.63.73C317.79,154.56,317.78,154.32,317.78,154.08Z"/><path class="cls-63" d="M311.81,151.32l1.24-1.24,1.84,1.26-2.38,1.74Z"/><path class="cls-22" d="M177.78,143.83a1.38,1.38,0,0,0-.14.59l-3.21-2.35,1.36-1.32Z"/><path class="cls-70" d="M119.21,209.54l-8.58,0A16.86,16.86,0,0,1,119.21,209.54Z"/><path class="cls-71" d="M226.74,186.7l-.65.66a4,4,0,0,1-3.05-2.59,4.86,4.86,0,0,1,1.33.66c1.16,1.1,1.72.26,2.31-.62,0,.42.07.85.11,1.27C226.77,186.29,226.76,186.5,226.74,186.7Z"/><path class="cls-72" d="M208.08,224.65c-1.63.13-2.65-.94-3.74-1.87C205.82,222.92,207.79,222.12,208.08,224.65Z"/><path class="cls-73" d="M322.44,179.42l2-.66c-.59,1.09-1,1.77-1.34,2.45l-.84-.83C322.31,180.06,322.37,179.74,322.44,179.42Z"/><path class="cls-22" d="M170.09,139.56c1.38.13,2.61.5,3.18,1.94Z"/><path class="cls-20" d="M124.87,314.07a22.8,22.8,0,0,0-3.41-1.15c-4.2-.74-8.43-1.36-12.64-2-.27-.05-.5-.33-.75-.5,1.48.1,2.9,0,3.88-1.33l6.69,0c-1.85,1.67-4.14.74-6.77.86,2.19,1.61,4.14,1.08,6,1s3.84-.33,5.76-.52c1.44,1,2.78,2.38,4.36,2.77a48.46,48.46,0,0,0,8.45.93c1.35.08,2.23.33,2.1,1.9a35,35,0,0,1-5.15-.82A24.87,24.87,0,0,0,124.87,314.07Z"/><path class="cls-20" d="M160.88,324a128.67,128.67,0,0,0-19-6.86,19.7,19.7,0,0,1-2.76-1.2c1.39-1.57,2.31.12,2.77.3l5.32-1.19c.54,2.34,2,3,3.92,3.44s3.59,1.33,5.62,1.27c.8,0,1.61.76,2.53,1.24l-.77.68Z"/><path class="cls-20" d="M213.06,376.22l3.1-1.24c.08.41,0,1,.27,1.21,2,1.47,2,2,.21,3.48a13,13,0,0,0-1.81,2.59l-5.41.52C209.94,380.33,211.59,378.32,213.06,376.22Z"/><path class="cls-20" d="M123.62,310.36c-1.92.19-3.84.45-5.76.52s-3.8.6-6-1c2.63-.12,4.92.81,6.77-.86l3-.58C122.93,308.4,123.8,308.83,123.62,310.36Z"/><path class="cls-20" d="M173.93,334.6l-3.75-4.34c.46-1.35,1.38-1.55,2.59-1l1.73,3.71Z"/><path class="cls-20" d="M166.48,327.73l-5.6-3.7a7.9,7.9,0,0,1,1.41-.55c1.56-.26,2.87-.07,2.8,1.86h2.5Z"/><path class="cls-20" d="M190.1,445.11l1.53,1.73-1,1.13C189.48,447.7,189.42,447.19,190.1,445.11Z"/><path class="cls-22" d="M147.81,270.76c-5.71-1.68-11.44-3.29-17.12-5.06a63,63,0,0,1-5.9-2.48c2.28.51,4.58,1,6.84,1.55,4.33,1.14,8.28,3.45,12.81,4.09C145.63,269,146.69,270.1,147.81,270.76Z"/><path class="cls-22" d="M123.58,262.67c-3.8-1.7-7.63-3.34-11.38-5.14-1.73-.83-3.31-2-5-3l2-.48a49.06,49.06,0,0,0,13.1,7.22Z"/><path class="cls-22" d="M170.25,205.83l8.05,5.74a4,4,0,0,1-3.75-1.71C173.42,208.3,171.71,207.16,170.25,205.83Z"/><path class="cls-22" d="M199.44,222.71l.95,2.29-3.32.53-1-2.82h3.4Z"/><path class="cls-22" d="M123.58,262.67l-1.2-1.39c.18-.56.37-1.12.55-1.68,2.75,1.21,2.75,1.21,1.82,3.65Z"/><path class="cls-22" d="M179.43,211.63l5.2,3.62a9,9,0,0,1-6.35-3.69Z"/><path class="cls-22" d="M88.77,242.92l-3.85-2.69C86.73,240.37,88.18,241,88.77,242.92Z"/><path class="cls-22" d="M94.39,246.53,90.52,244A4.68,4.68,0,0,1,94.39,246.53Z"/><path class="cls-28" d="M225.48,58.76a9.93,9.93,0,0,0,1-1.46,7.94,7.94,0,0,0,1-2.66c.11-2.1.67-3,2.72-3.28a21.31,21.31,0,0,1,2.77-.06c1.66,1.38,2.55.43,3.1-1.07l1.87.44c1.66.16,3.31.84,5,0l1.52.29c0-.54.09-1.37-.2-1.57-1.89-1.31-1.47-2.83-.61-4.46a9.3,9.3,0,0,1,1.6,6.59L228.8,53.09a4.17,4.17,0,0,0,1.07,4.82c.39.28.78.77,1.19.79,3.55.17,7.11.54,10.66,0,1.06-.15,2.12-.36,3.69-.64v20.1l-.06,2.32c-.21.64-.41,1.29-.62,1.93l-1.24,3.66c-.26-1.92-.43-3.86-.82-5.76a3.89,3.89,0,0,0-1.25-1.62c-.36-.33-1-.37-1.31-.74-1.36-1.82-3.23-2-5.25-1.84a11.65,11.65,0,0,1-1.79-.17c.06-1.27.12-2.41.18-3.58l-3.57.78c.14-.92.23-1.54.33-2.16l-.49-.27L227.35,73c.2-3.8.4-7.59.59-11.39a9.62,9.62,0,0,0,0-1.86C227.68,58.15,226.74,58.06,225.48,58.76Zm13.64,4.41c-.88-.39-1.86-1.23-2.64-1.08-1.63.34-3.43.65-3.93,2.9s-1.05,4.4,1,6.18l.6.66,2.28,2.54.23-.73a18.68,18.68,0,0,0,2.24-.52c1-.35,1.86-.81,2.76-1.21L243,73.5c.25-1.62.44-2.88.67-4.38l-1.39.89c0-1,0-1.92,0-2.82,0-2.81-.13-2.92-3.17-4Z"/><path class="cls-74" d="M237.9,50.67,236,50.23c-.55,1.5-1.44,2.45-3.1,1.07a19.8,19.8,0,0,0,.6-2.89c.19-3.06.29-6.12.41-9.18,0-.3.06-.69-.09-.89-1.52-1.93-.49-3.77.13-5.62a29.41,29.41,0,0,1,6.91,7.17c1,1.6,1.8,3.36,2.69,5-.86,1.63-1.28,3.15.61,4.46.29.2.15,1,.2,1.57l-1.52-.29A4.73,4.73,0,0,0,237.9,50.67Zm-3.6-14.85c-.31,1.37.34,2,1.55,2.53a12.35,12.35,0,0,1,2.77,2.33c1.32,1.21-.35,2.33-.4,4.07l3.06-2.35C239.09,39.71,237.55,36.91,234.3,35.82Z"/><path class="cls-74" d="M201.34,69.76l-2.72-.38V66.52a12.27,12.27,0,0,1-2.5.89c-1.22.15-2.49-.07-3.71.07-1.07.12-2.11.57-3.17.77s-2.11.27-3.66.46c.57-2.13,1-3.75,1.42-5.35-2.94.39-1.35,3.9-3.36,5.27-.44-.79-.74-1.31-1-1.84q3.07-4.35,6.16-8.69a2.16,2.16,0,0,1,.18,3,16.26,16.26,0,0,0-.82,1.8l.44.53,4-2,3.28,2.93,1.43-2.63c2.37,2.51,3.68,1,4.89-1.53.17,2,.24,3,.32,4A8.36,8.36,0,0,0,201.34,69.76Z"/><path class="cls-21" d="M245.41,78.18V58.08c-1.57.28-2.63.49-3.69.64-3.55.52-7.11.15-10.66,0-.41,0-.8-.51-1.19-.79,3.71,0,7.42,0,11.13-.1,1.51,0,3-.17,4.69-.27.08,1,.2,1.72.2,2.42,0,5.37,0,10.75-.1,16.13A11.78,11.78,0,0,1,245.41,78.18Z"/><path class="cls-75" d="M213.76,27.16c-.83-1.09-1.69-2.15-.06-3.34.18-.13-.09-.88-.19-1.71l2.82-.67.46.64a11.65,11.65,0,0,1-1.89,2.45,2.47,2.47,0,0,0-1.15,2.62Z"/><path class="cls-76" d="M243.49,86.09l1.24-3.66c.21-.64.41-1.29.62-1.93a18.37,18.37,0,0,1-1.81,8.81c-.23-.66-.45-1.32-.67-2C243.08,86.92,243.28,86.5,243.49,86.09Z"/><path class="cls-77" d="M191.2,55l-1.08.83c.06-2.62,1.8-4,3.84-5.05l-.29,1.1h0Z"/><path class="cls-24" d="M175.15,115.36,170,114.11C171.85,114,173.68,114,175.15,115.36Z"/><path class="cls-78" d="M181.36,65.65,180,61.91C181.46,62.76,181.43,64.2,181.36,65.65Z"/><path class="cls-79" d="M193.67,51.83l.29-1.1,1.68-1.35A2.48,2.48,0,0,1,193.67,51.83Z"/><path class="cls-21" d="M194.49,52.58a40.57,40.57,0,0,1,6.37-.64c4.28.22,8.55.77,12.75,1.17.57,3.77-.34,5.13-3.59,5.06-5.14-.12-10.28-.46-15.4-.84-1-.07-2.43.09-2.59-1.57Z"/><path class="cls-21" d="M201.34,69.76a8.36,8.36,0,0,1,1.13-5.57l1.28-1c.31,0,.62,0,.92-.09A4,4,0,0,1,209.16,65a4.61,4.61,0,0,1,.06,5.22c-.38.61-.75,1.22-1.13,1.82a6.28,6.28,0,0,1-4.92.19Z"/><path class="cls-21" d="M208.44,94.61c.07-.08.15-.23.2-.22,6,1,11.73-1.76,17.69-.86,2.27.34,4.56.64,7.27,1-1.46,2.13-3.17,1.58-4.48,1.4a38.56,38.56,0,0,0-14.9,1A5,5,0,0,1,208.44,94.61Z"/><path class="cls-21" d="M225.48,58.76c1.26-.7,2.2-.61,2.43,1a9.62,9.62,0,0,1,0,1.86c-.19,3.8-.39,7.59-.59,11.39v4c-1.86.54-2.42-.3-2.45-1.6-.06-2.68-.09-5.37,0-8.05C225,64.48,225.29,61.62,225.48,58.76Z"/><path class="cls-21" d="M229,100.32a14.92,14.92,0,0,1-9.92,1.74,7.29,7.29,0,0,1-2.37-.63c-.42-.22-.61-.89-.9-1.36.51-.21,1-.44,1.53-.63.07,0,.18.06.28.1a12.19,12.19,0,0,0,9.28-.43c.58-.24,1.39.1,2.1.17Z"/><path class="cls-80" d="M175.17,73c-1.1-3.41-2.2-6.81-3.35-10.35a2.43,2.43,0,0,1,3.26,1.61,28.41,28.41,0,0,1,1.3,5.33,20.41,20.41,0,0,1,0,3.41Z"/><path class="cls-21" d="M208.09,72c.38-.6.75-1.21,1.13-1.82a4.61,4.61,0,0,0-.06-5.22,4,4,0,0,0-4.49-1.89c-.3.06-.61.06-.92.09.26-.71.52-1.42.9-2.48.88,0,2.21-.24,2.31,1.81,1.86-.2,3.57.22,4.59,1.74-.36,2.12-.71,4-1,5.91A3.53,3.53,0,0,1,208.09,73Z"/><path class="cls-81" d="M221,162.53c1.12,2.63.86,5.37.56,8.1l-.72.65c-1.55-2,1.29-4.41-.6-6.73-.86,2,.36,4.27-1.78,6-.22-2.61-.41-5-.6-7.26Z"/><path class="cls-68" d="M189.44,153.19a5,5,0,0,1-1.56-.73c-1.19-1.15-2.27-2.41-3.39-3.63l2.72-.13a17.28,17.28,0,0,0,2.06,2C190.39,151.55,190.3,152.31,189.44,153.19Z"/><path class="cls-82" d="M209.94,114.07a18.62,18.62,0,0,1-7.45-3.75l2.34-.88Z"/><path class="cls-21" d="M217,87c2-2.19,2.88-2.06,4.56.51C220,88.45,218.62,87.6,217,87Z"/><path class="cls-83" d="M199.38,108.47l-2.49-1.86c.53-1.45,1.49-1.62,3.11-.74C199.81,106.66,199.59,107.57,199.38,108.47Z"/><path class="cls-21" d="M224.33,87.11c1.6-2.63,1.6-2.63,4.13-1.07A4.44,4.44,0,0,1,224.33,87.11Z"/><path class="cls-68" d="M191.94,102.87a14.43,14.43,0,0,0-1.68-1.26c-.11-.06-.53.41-.81.63l-1.35-2.15h3.71C191.85,101.07,191.89,102,191.94,102.87Z"/><path class="cls-84" d="M190.71,105.33l1.86,3.11-2.08.48C190.58,107.49,190.64,106.41,190.71,105.33Z"/><path class="cls-85" d="M194.49,52.58,192,55.76,191.2,55l2.45-3.13Z"/><path class="cls-68" d="M202.5,166.84,200.63,165l3.26-.6Z"/><path class="cls-86" d="M208.09,72V73c-1.68,0-3.54.89-4.92-.85A6.32,6.32,0,0,0,208.09,72Z"/><path class="cls-68" d="M205.6,169.34l-2.5-2.48C204.9,166.71,205.73,167.54,205.6,169.34Z"/><path class="cls-87" d="M175.17,73h1.24l-.09,2-.4.08Z"/><path class="cls-20" d="M112,309.05c-1,1.36-2.4,1.43-3.88,1.33l-1.84,0c-.77-1-.24-1.75.59-2.39Z"/><path class="cls-61" d="M124.44,297.68a17.09,17.09,0,0,0-2,2.5,16.78,16.78,0,0,0-1.06,3.09c-1.43,0-1-.91-.9-1.71.37-2.1,1.25-3.78,3.36-4.48Z"/><path class="cls-21" d="M226.74,186.7c0-.2,0-.41,0-.62l1.27-1.45c3.46.51,5.14,3.2,7.21,5.31.32.33.11,1.17.14,1.78l-4.32-1.89-.65-1.23.33-1.5-1.56.86Z"/><path class="cls-21" d="M350.33,86.09c-.09.29-.09.71-.29.85a31.89,31.89,0,0,0-7.06,8,2.72,2.72,0,0,1-.74.52c.09-.85.17-1.71.28-2.56s.26-1.58.39-2.37c.56-.69,1.09-1.4,1.7-2C346.16,86.79,347.8,85.34,350.33,86.09Z"/><path class="cls-2" d="M269,550.17a27.33,27.33,0,0,1-9.81,1c-1.1-.07-2.2-.25-3.15-.36-.68.6,1.1,1.79-.7,1.84l-4.12-1.19a13.65,13.65,0,0,1,7.17-1.32C261.88,550.24,265.42,550.17,269,550.17Z"/><path class="cls-1" d="M205.6,550.8l-.63.63-1.87,0-2.47-.59C202.29,549.49,204,549.79,205.6,550.8Z"/><path class="cls-4" d="M175.41,518.22c-.52.37-.82.75-1.12.75s-.5-.44-.76-.69c.28-.27.52-.68.84-.77S174.92,517.86,175.41,518.22Z"/><path class="cls-1" d="M198.15,550.17q-.93,1.2-1.86,0C196.91,548.23,197.53,550.42,198.15,550.17Z"/><path class="cls-44" d="M241,555.76l4.37-.61Z"/><path class="cls-44" d="M87.59,574.34l1.26-1.22,1.85,0,.65.54,7.42,3.2h0a16.2,16.2,0,0,0,2.4,1.71c1.65.76,3.38,1.34,5.07,2l2.51,1.24-.67.7-11.76-4.43h0A19.45,19.45,0,0,0,87.59,574.34Z"/><path d="M149.72,578.78l-5.6,1.84-11.18,1.85a2.2,2.2,0,0,1,2.45-2.2,6.1,6.1,0,0,0,3.09-.75A17.9,17.9,0,0,1,142,579a18.08,18.08,0,0,0,1.95-.35A8,8,0,0,1,149.72,578.78Z"/><path d="M90.7,573.17l-1.85,0c-2-.4-3.93-1-5.93-1.18-2.94-.34-5.92-.43-8.88-.68a4.85,4.85,0,0,1-1.36-.58h1.25c2.41-.73,4.78-.2,7.2,0,2.21.14,4.49.75,6.76-.26.9-.4,2.12-.07,3.28-.07C91,571.38,90.85,572.28,90.7,573.17Z"/><path d="M159.67,575.66l-6.86,2.45c.29-1.27.58-2.53.91-4l3.5-.77C158,574.11,157.8,576.09,159.67,575.66Z"/><path d="M98.77,576.91l-7.42-3.2a11.72,11.72,0,0,1,7.19-.31C98.62,574.6,98.69,575.75,98.77,576.91Z"/><path class="cls-88" d="M108.07,582.54l.67-.7,5,.63,1.87.62,1.89.61-1.89.62C113,584.09,110.38,583.9,108.07,582.54Z"/><path d="M117.45,583.7l-1.89-.61-1.87-.62,11.17.63H128l-2.51.62h-6.21Z"/><path d="M106.23,580.6c-1.69-.65-3.42-1.23-5.07-2a16.2,16.2,0,0,1-2.4-1.71c1.6,0,2.77,1.39,4.61,1.13C104.19,577.91,105.27,579.68,106.23,580.6Z"/><path d="M128,583.11h-3.13a7.29,7.29,0,0,1,6.85-.61Z"/><path class="cls-4" d="M87.59,574.34a19.45,19.45,0,0,1,8.72,3.78c-2.92.72-5.34-.92-7.85-1.87-.38-.15-.8-1.33-1.48-1.82A6,6,0,0,0,87.59,574.34Z"/><path class="cls-89" d="M72.07,572.53c3.87.22,7.73.39,11.59.7.52,0,1,.76,1.49,1.16a26.87,26.87,0,0,0-9.9-.42C73.58,574.2,72.76,573.85,72.07,572.53Z"/><path class="cls-89" d="M64,570.06l8.09,2.47c-2,.73-4-.45-6-.2-1.44.18-1.65-.8-2.11-1.65Z"/><path class="cls-90" d="M119.27,583.73h6.21l2.53.64a6.67,6.67,0,0,1-2,.56c-2.89-.17-5.86.67-8.68-.56Z"/><path class="cls-91" d="M119.27,583.73l-1.9.64-1.81,0,1.89-.62Z"/><path class="cls-92" d="M152.82,192.31l3.11,2.49-2.23.47C153.39,194.24,153.11,193.28,152.82,192.31Z"/><path class="cls-21" d="M229.21,188l1.56-.86-.33,1.5Z"/><path class="cls-21" d="M234.16,71.83l-.6-.66c-.06-.29-.09-.6-.18-.89-1.56-5.06.5-7.63,5.74-7.11l0,0c1.41,1.53,2.71,3.14,2.26,5.4C240.62,72.23,238.11,73.35,234.16,71.83Z"/><path class="cls-93" d="M234.16,71.83c4,1.52,6.46.4,7.18-3.29.45-2.26-.85-3.87-2.26-5.4,3,1.13,3.13,1.24,3.17,4,0,.9,0,1.8,0,2.82l1.39-.89c-.23,1.5-.42,2.76-.67,4.38l-1.3-1.59c-.9.4-1.81.86-2.76,1.21a18.68,18.68,0,0,1-2.24.52l-.23.73Z"/><path class="cls-21" d="M239.12,63.17c-5.24-.52-7.3,2-5.74,7.11.09.29.12.6.18.89-2.06-1.78-1.51-3.91-1-6.18s2.3-2.56,3.93-2.9C237.26,61.94,238.24,62.78,239.12,63.17Z"/><path class="cls-21" d="M237.9,50.67a4.73,4.73,0,0,1,5,0C241.21,51.51,239.56,50.83,237.9,50.67Z"/><path class="cls-21" d="M234.3,35.82c3.25,1.09,4.79,3.89,7,6.58l-3.06,2.35c.05-1.74,1.72-2.86.4-4.07a12.35,12.35,0,0,0-2.77-2.33C234.64,37.78,234,37.19,234.3,35.82Z"/><path class="cls-12" d="M166.89,522.6l-1,.86-.49,1-.21.51-.31.8-.19.57-.39,1.36-.42,2-.25,1.74-.15,1.77-.05.83,0,.56v2.49l0,1.56.11,2,0,.57-.08.59-.33,1-.25.45v1.24l2.25,1.35a5,5,0,0,1-1.59-2.69l0-.45c0-.86.12-2.78.2-4.74.11-2.49.22-5,.26-5.45A29.43,29.43,0,0,1,166.89,522.6Z"/><polygon id="Corpo" points="164.08 544.8 163.89 543.84 163.91 542.13 164 540.44 164.08 538.58 163.81 535.95 163.74 535.56 163.84 533.41 163.92 532.27 164.25 530.14 164.87 527.71 165.13 526.88 166.13 524.25 166.6 523.21 166.88 522.6 167.88 520.6 168.26 519.43 169.88 515.6 170.34 513.82 170.88 512.6 173.88 510.6 176.39 508.97 177.88 507.6 179.86 505.25 179.15 510.23 178.42 515.53 177.88 519.45 184.87 523.32 203.12 518.97 211.72 514.13 208.61 507.26 210.19 506.25 211.28 505.42 211.72 504.85 212.05 504.2 212.38 503.53 213.51 503.87 215.09 504.07 216.16 504.2 218.03 505.44 220.51 508.55 224.24 514.14 225.86 516.12 227.03 517.56 228.16 518.94 229.82 520.97 231.23 522.38 232.31 523.46 234.87 525.83 235.55 526.49 236.07 526.98 236.68 527.54 237.55 528.33 238.64 529.26 239.26 529.76 240.13 530.42 241.32 531.22 242.66 532.03 243.58 532.55 244.49 533.03 245.6 533.59 246.94 534.24 247.99 534.73 249.25 535.32 250.32 535.82 251.97 536.59 253.04 537.12 254.05 537.75 256.48 538.75 259.35 539.92 261.14 540.65 263.57 541.64 266.78 542.96 267.71 543.34 268.83 543.96 270.34 544.8 271.48 545.43 273.3 546.45 272.1 547.07 271.27 548 270.96 548.66 270.2 550.17 270 551.3 265.79 552.03 262.44 552.61 258.8 553.22 252.45 554.27 248.2 554.96 245.35 555.15 240.98 555.75 234.51 555.76 225.78 555.69 222.65 555.51 220.31 555.31 218.06 555.13 198.41 551.39 196.29 551.42 188.94 550.78 180.8 550.16 173.49 547.88 168.5 546.76 166.03 546.16 165 545.93 164.08 544.8"/><polygon class="cls-94" points="97.5 528.16 100.17 528.16 103.06 528.75 104.31 530.02 106.23 531.5 108.06 533.07 109.96 534.64 111.34 536.51 113.26 538.02 116.16 539.67 119.27 541.51 120.84 542.6 122.13 543.96 125.48 545.93 126.77 546.76 128.01 548.36 129.52 548.96 130.62 548.96 132.94 548.96 134.63 548.03 135.75 547.03 134.43 545.72 130.41 541.73 126.31 537.62 123.99 535.06 120.5 531.09 118.44 528.86 115.89 526.39 114.75 525.42 112.69 523.87 111.58 523.07 111.01 522.71 110.64 522.63 110.4 523.13 109.23 523.52 105.99 524.55 103.67 525.29 102.37 525.73 100.75 526.28 99.42 526.92 97.5 528.16"/><path class="cls-3" d="M99.2,563.16l13.65-13.82a17.13,17.13,0,0,1,3.73-.21,5.62,5.62,0,0,1,1.17,3.24l-14.82,14.26a6.66,6.66,0,0,1-3-.22A3.7,3.7,0,0,1,99.2,563.16Z"/><path class="cls-3" d="M73.18,524l3.58-4.46Z"/><path class="cls-3" d="M188.32,540.24,202,526.41a17.78,17.78,0,0,1,3.73-.2,5.59,5.59,0,0,1,1.17,3.24l-14.82,14.26a7,7,0,0,1-3-.22A3.72,3.72,0,0,1,188.32,540.24Z"/><polygon class="cls-3" points="108.06 533.07 109.5 531.5 110.64 530.02 111.89 528.6 113.23 527.86 114.89 527.6 115.89 527.6 117.14 527.6 117.96 528.39 118.59 529.02 116.89 528.6 115.89 528.6 114.89 528.6 113.33 529.45 111.89 530.6 110.89 531.6 109.89 532.6 108.78 533.66 108.06 533.07"/><polygon class="cls-3" points="112.6 537.5 113.67 535.79 114.92 534.64 116.03 533.66 117.17 532.8 118.89 532.6 120.7 532.51 121.76 532.51 123.19 534.14 120.89 533.6 119.63 533.66 118.59 533.81 116.89 534.6 115.89 535.6 114.89 536.6 113.89 537.6 113.44 538.12 112.6 537.5"/><polygon class="cls-3" points="120.84 542.6 121.61 540.83 122.5 539.67 123.62 538.91 124.98 538.54 126.25 538.54 127.21 538.54 128.08 539.39 126.89 539.6 125.89 539.6 124.89 539.6 123.29 540.57 122.89 541.6 121.88 543.7 120.84 542.6"/><path class="cls-3" d="M85.11,559.75l13.66-13.82a17.09,17.09,0,0,1,3.73-.21,5.62,5.62,0,0,1,1.17,3.24L88.85,563.22a6.66,6.66,0,0,1-3-.22A3.74,3.74,0,0,1,85.11,559.75Z"/><path class="cls-3" d="M203.32,543.24,217,529.41a17.78,17.78,0,0,1,3.73-.2,5.59,5.59,0,0,1,1.17,3.24l-14.82,14.26a7,7,0,0,1-3-.22A3.72,3.72,0,0,1,203.32,543.24Z"/><polygon class="cls-94" points="203.53 510.19 207.67 509.78 211.72 511.65 214.09 514.14 218.52 518.6 223.38 523.46 228.58 528.75 232.31 531.5 236.11 531.5 239.26 529.76 234.87 525.83 229.82 520.97 227.03 517.56 224.24 514.14 220.51 508.55 218.03 505.44 216.16 504.2 212.38 503.53 203.53 510.19"/><polygon class="cls-3" points="214.09 514.14 215.18 511.66 215.88 509.6 217.37 508.55 219.27 507.31 220.51 508.55 221.87 510.59 220.51 510.41 219.26 510.72 217.68 511.53 216.25 514.13 215.94 516 214.09 514.14"/><polygon class="cls-3" points="220.11 520.19 220.51 518.24 221.12 516.5 222.51 515.67 223.38 515.07 224.23 514.89 224.85 514.89 225.46 515.64 224.88 515.6 224.19 515.77 223.71 516 222.88 516.6 222.13 517.3 221.4 518.1 220.88 519.6 220.89 520.97 220.11 520.19"/><path class="cls-3" d="M223.37,523.46l.52-.86.77-1.63.8-.78,1.43-.59h1.81l.87,1.06-1.2.31-.69.09a4.94,4.94,0,0,0-1.52.47l-.7.73-.73,1.2-.56.81Z"/></g></g></g></svg>