<svg xmlns="http://www.w3.org/2000/svg" viewBox="0 0 552.47 669.11"><defs><style>.cls-1{fill:#d8ae8b;}.cls-2{fill:#5b5a5d;}.cls-3{fill:#fff;}.cls-4{fill:#999;}.cls-5{fill:#a9dff4;}</style></defs><g id="Camada_2" data-name="Camada 2"><g id="New_Person_Jump_Jack"><g id="Parado"><g id="Perna_Direita"><circle class="cls-1" cx="256.01" cy="615.38" r="11"/><path class="cls-1" d="M267,615.38H245c1-23.8.38-46.16-3-66h25Z"/><ellipse class="cls-1" cx="254.51" cy="549.38" rx="12.5" ry="11"/><path class="cls-2" d="M239,549.38h30l1-13s1-10.14,1-15.07a124.23,124.23,0,0,0-1.13-13.06L268,471.38H238l1.26,52.25s-.09,7.23-.16,13.75C239.06,542.06,239,549.38,239,549.38Z"/><circle class="cls-2" cx="253.01" cy="471.38" r="15"/><polygon class="cls-2" points="238.01 471.38 268.01 471.38 274.01 358.88 225.01 358.88 238.01 471.38"/><circle class="cls-2" cx="249.51" cy="358.88" r="24.5"/><g id="Tenis_Dir"><polygon id="Sola" class="cls-3" points="237.49 655.9 240 661.57 241.05 662.38 245.01 664.38 250.94 665.05 253.06 664.5 255.32 663.57 258 663.11 259.71 663.39 260.98 664.16 263.01 665.55 265.5 665.55 267.85 664.73 271.49 663.01 272.01 662.82 272.29 661.57 272.29 664.16 271.27 664.94 269.11 666.49 267.77 667.3 265.08 668.05 262.14 668.57 260.15 668.9 258 668.9 254.04 668.57 251.51 668.36 248.1 667.72 245.01 667.23 242.14 665.89 239.51 664.16 238.07 659.74 237.49 655.9"/><polygon id="Corpo" points="244.33 618.93 245.49 620.34 247.01 621.24 249.4 621.93 253.39 620.12 260.98 620.09 265.08 620.91 267.25 620.91 267.25 619.58 270.02 623.89 270.64 627.75 272.01 632.4 273.25 639.95 273.6 647.38 273.25 652.87 272.99 658.38 272.01 662.82 268.82 664.4 265.5 665.55 263.01 665.55 261.98 664.9 260.98 664.16 259.71 663.39 258 663.11 255.32 663.57 253.06 664.5 251.4 664.94 249.5 665.27 247.01 664.98 244.33 664.4 242.01 663.54 240.38 662.19 239.43 660.37 238.53 658.4 237.94 656.84 237.49 655.9 237.49 654.39 237.49 651.53 240.65 632.94 240.93 631.31 241.65 626.35 242.77 621.88 244.33 618.93"/><polygon id="Lateral_Inf_Dir" class="cls-3" points="246.04 629.44 247.71 630.15 248.01 631.31 245.49 632.64 242.01 634.86 240.18 635.73 240.65 632.94 246.04 629.44"/><polygon id="Lateral_Sup_Dir" class="cls-3" points="245.01 635.67 246.68 636.38 246.98 637.54 244.46 638.87 240.98 641.09 239.15 641.96 239.62 639.17 245.01 635.67"/><polygon id="Lateral_Inf_Esq" class="cls-3" points="267.63 635.79 265.96 636.5 265.66 637.66 268.18 638.99 271.66 641.2 273.49 642.07 273.02 639.29 267.63 635.79"/><polygon id="Lateral_Sup_Esq" class="cls-3" points="266.6 629.56 264.93 630.27 264.63 631.43 267.15 632.76 270.63 634.97 272.46 635.84 271.99 633.06 266.6 629.56"/><polygon class="cls-4" points="249.4 621.93 250.01 625.38 250.77 628.38 251.25 632.84 251.25 636.42 251.25 639.42 251.25 641.96 251.88 644.22 252.65 645.88 254.51 646.4 256.98 646.62 258.86 645.88 260.15 644.52 260.49 641.96 260.98 638.76 261.01 635.45 261.01 631.42 261.16 627.32 261.98 625.17 262.45 622.85 263.01 621.11 260.98 620.09 256.98 620.09 253.39 620.12 249.4 621.93"/><g id="Cadarço"><polygon class="cls-3" points="250.77 628.38 253.21 627.47 255.32 627.06 257.37 627.06 258.44 627.32 260.08 627.72 261.16 628.55 261.16 630.45 259.09 629.64 257.05 629.44 255.54 629.44 254.04 629.38 252.65 629.38 251.51 629.89 250.95 630.07 250.77 628.38"/><polygon class="cls-3" points="251.25 632.84 253.01 632.38 254.89 632.18 256.27 632.18 257.94 632.4 259.05 632.91 260.15 633.36 261.01 634.14 261.01 635.45 259.78 634.81 258.61 634.6 256.98 634.14 255.48 634.14 253.77 634.43 252.54 634.6 251.25 635.16 251.25 632.84"/><polygon class="cls-3" points="251.25 639.42 252.51 638.94 254.25 638.36 255.54 638.36 256.82 638.36 257.94 638.76 259.01 639.42 260.01 639.95 260.7 640.56 260.57 641.43 258.7 640.75 257.05 640.29 255.96 639.97 254.96 639.97 254.25 639.97 253.18 640.29 252.13 640.55 251.51 640.83 251.25 641.07 251.25 639.42"/></g></g></g><g id="Perna_Esquerda"><circle class="cls-1" cx="292.81" cy="615.1" r="11"/><path class="cls-1" d="M281.81,615.1h22c-1-23.81-.38-46.17,3-66h-25Z"/><ellipse class="cls-1" cx="294.31" cy="549.1" rx="12.5" ry="11"/><path class="cls-2" d="M309.81,549.1h-30l-1-13s-1-10.14-1-15.07A124.53,124.53,0,0,1,278.94,508l1.87-36.86h30l-1.25,52.25s.08,7.23.15,13.75C309.76,541.77,309.81,549.1,309.81,549.1Z"/><circle class="cls-2" cx="295.81" cy="471.1" r="15"/><polygon class="cls-2" points="310.81 471.1 280.81 471.1 274.81 358.6 323.81 358.6 310.81 471.1"/><circle class="cls-2" cx="299.31" cy="358.6" r="24.5"/><g id="Tenis_Esq"><polygon id="Sola-2" data-name="Sola" class="cls-3" points="310.89 656.11 308.39 661.78 307.34 662.59 303.38 664.59 297.44 665.26 295.33 664.72 293.07 663.79 290.39 663.33 288.68 663.6 287.41 664.37 285.38 665.76 282.89 665.76 280.53 664.94 276.89 663.22 276.37 663.04 276.1 661.78 276.1 664.37 277.12 665.15 279.28 666.71 280.61 667.51 283.3 668.26 286.25 668.79 288.24 669.11 290.39 669.11 294.35 668.79 296.88 668.58 300.29 667.94 303.38 667.45 306.24 666.1 308.87 664.37 310.31 659.96 310.89 656.11"/><polygon id="Corpo-2" data-name="Corpo" points="304.06 619.14 302.9 620.55 301.37 621.45 298.99 622.15 295 620.33 287.41 620.31 283.3 621.12 281.13 621.12 281.13 619.79 278.37 624.1 277.75 627.97 276.37 632.62 275.14 640.16 274.79 647.6 275.14 653.08 275.39 658.59 276.37 663.04 279.57 664.61 282.89 665.76 285.38 665.76 286.41 665.11 287.41 664.37 288.68 663.6 290.39 663.33 293.07 663.79 295.33 664.72 296.98 665.15 298.89 665.49 301.37 665.19 304.06 664.61 306.37 663.76 308 662.4 308.96 660.58 309.85 658.61 310.45 657.05 310.89 656.11 310.9 654.6 310.9 651.75 307.74 633.15 307.46 631.53 306.74 626.56 305.61 622.1 304.06 619.14"/><polygon id="Lateral_Inf_Dir-2" data-name="Lateral_Inf_Dir" class="cls-3" points="302.35 629.66 300.67 630.37 300.38 631.53 302.9 632.85 306.37 635.07 308.21 635.94 307.74 633.15 302.35 629.66"/><polygon id="Lateral_Sup_Dir-2" data-name="Lateral_Sup_Dir" class="cls-3" points="303.38 635.89 301.7 636.6 301.41 637.76 303.93 639.08 307.4 641.3 309.24 642.17 308.76 639.38 303.38 635.89"/><polygon id="Lateral_Inf_Esq-2" data-name="Lateral_Inf_Esq" class="cls-3" points="280.75 636 282.43 636.71 282.72 637.87 280.21 639.2 276.73 641.42 274.89 642.29 275.37 639.5 280.75 636"/><polygon id="Lateral_Sup_Esq-2" data-name="Lateral_Sup_Esq" class="cls-3" points="281.78 629.77 283.46 630.48 283.75 631.64 281.24 632.97 277.76 635.19 275.92 636.06 276.4 633.27 281.78 629.77"/><polygon class="cls-4" points="298.99 622.15 298.37 625.59 297.62 628.59 297.14 633.05 297.14 636.64 297.14 639.63 297.14 642.17 296.51 644.43 295.73 646.1 293.87 646.61 291.41 646.84 289.53 646.1 288.24 644.74 287.9 642.17 287.41 638.97 287.37 635.66 287.37 631.63 287.23 627.54 286.41 625.38 285.94 623.06 285.38 621.33 287.41 620.31 291.41 620.31 295 620.33 298.99 622.15"/><g id="Cadarço-2" data-name="Cadarço"><polygon class="cls-3" points="297.62 628.59 295.18 627.68 293.07 627.27 291.01 627.27 289.95 627.54 288.31 627.93 287.23 628.76 287.23 630.66 289.3 629.85 291.33 629.66 292.84 629.66 294.35 629.59 295.73 629.59 296.88 630.11 297.44 630.28 297.62 628.59"/><polygon class="cls-3" points="297.14 633.05 295.37 632.59 293.5 632.39 292.12 632.39 290.45 632.62 289.33 633.12 288.24 633.57 287.37 634.35 287.37 635.66 288.61 635.02 289.78 634.81 291.41 634.35 292.91 634.35 294.62 634.65 295.85 634.81 297.14 635.37 297.14 633.05"/><polygon class="cls-3" points="297.14 639.63 295.88 639.15 294.14 638.58 292.84 638.58 291.56 638.58 290.45 638.97 289.37 639.63 288.37 640.16 287.69 640.77 287.82 641.64 289.68 640.96 291.33 640.5 292.43 640.18 293.42 640.18 294.14 640.18 295.21 640.5 296.26 640.76 296.88 641.04 297.14 641.28 297.14 639.63"/></g></g></g><g id="Quadril"><path class="cls-2" d="M324,359.38H225l2-33s6-37,7-41,79-4,81,0,7,39,7,39Z"/></g><g id="Tronco"><path class="cls-1" d="M315,285.38H234a155.12,155.12,0,0,0,6-51.79c-1.3-23.12-7.33-49.59-8-70.69-.19-6.12-10.4-11.78-10-16.78,1-12.36-2-17.74,12-21.74a104.08,104.08,0,0,1,16.67-2.5,335.74,335.74,0,0,1,43.61-1c9.52.5,17.3,1.59,20.72,3.46,26.45,2.91,19.15,16.26,11,22-5.17,3.64-7.36,10.4-8,16.5-2.22,21.22-9.09,47.76-10,70.71A154.4,154.4,0,0,0,315,285.38Z"/></g><g id="Braço_Direito"><polygon class="cls-1" points="48.01 152.38 48.22 152.38 49.01 152.38 48.91 152.38 49.45 152.38 51.69 152.38 60.01 152.38 60.01 139.38 37.01 135.38 18.94 131.19 17.04 131.37 17.39 133.33 19.79 134.92 25.28 138.74 25.01 139.38 4.17 139.18 3.59 139.56 3.33 139.94 3.49 140.67 4.29 141.22 7.89 141.93 14.28 143 15.65 144 15.01 144.38 2.41 145.09 0.48 145.92 0 146.86 0.66 147.76 2.78 148.29 11.09 148.36 14.54 148.37 15.01 149.38 12.54 149.87 1.01 152.38 0.52 153.46 1.9 154.22 5.98 154.27 13.54 153.93 16.01 154.38 16.01 155.38 9.01 157.88 8.57 158.76 9.2 159.31 10.16 159.31 12.18 159.17 17.01 158.63 21.27 157.9 27.25 156.87 31.78 156.1 33.45 155.77 34.22 155.56 37.15 154.86 38.67 154.3 41.65 153.62 48.01 152.38"/><path class="cls-1" d="M66,145.86a6.5,6.5,0,0,0-6.5-6.5,6.49,6.49,0,0,0-6.5,6.5,6.5,6.5,0,0,0,13,0Z"/><path class="cls-1" d="M146.51,137.86c-13.5,2.5-86.5,1.5-86.5,1.5v13s78,9,88,5S160,135.36,146.51,137.86Z"/><circle class="cls-1" cx="147.51" cy="147.86" r="9.5"/><path class="cls-1" d="M225,128.36c-8,0-73,8-79,10s2,19,2,19l77,1S233,128.36,225,128.36Z"/><circle class="cls-1" cx="225.01" cy="143.36" r="15"/></g><g id="Braço_Esq"><polygon class="cls-1" points="504.46 151.98 504.25 151.98 503.46 151.98 503.56 151.98 503.02 151.98 500.78 151.98 492.46 151.98 492.46 138.98 515.46 134.98 533.53 130.79 535.44 130.96 535.08 132.92 532.69 134.52 527.19 138.34 527.46 138.98 548.3 138.78 548.88 139.16 549.15 139.54 548.98 140.26 548.18 140.82 544.59 141.53 538.19 142.6 536.82 143.59 537.46 143.98 550.07 144.68 551.99 145.52 552.47 146.45 551.82 147.35 549.69 147.89 541.39 147.96 537.93 147.97 537.46 148.98 539.94 149.47 551.46 151.98 551.95 153.06 550.58 153.82 546.49 153.87 538.93 153.52 536.46 153.98 536.46 154.98 543.47 157.47 543.91 158.35 543.27 158.9 542.32 158.9 540.29 158.77 535.46 158.22 531.2 157.5 525.22 156.47 520.69 155.69 519.03 155.37 518.25 155.16 515.32 154.46 513.8 153.9 510.82 153.22 504.46 151.98"/><path class="cls-1" d="M486.46,145.45A6.5,6.5,0,1,1,493,152,6.5,6.5,0,0,1,486.46,145.45Z"/><path class="cls-1" d="M406,137.45c13.5,2.5,86.5,1.5,86.5,1.5v13s-78,9-88,5S392.46,135,406,137.45Z"/><circle class="cls-1" cx="404.96" cy="147.45" r="9.5"/><path class="cls-1" d="M327.46,128c8,0,73,8,79,10s-2,19-2,19l-77,1S319.46,128,327.46,128Z"/><circle class="cls-1" cx="327.46" cy="142.95" r="15"/></g><path id="Camisa" class="cls-5" d="M237.27,272.11l3-29.62-5.55-52.66L234,124.38A77.17,77.17,0,0,1,249,122l3.17,25.23L264,157.38h19l10.93-10.14,6.57-25.94s13.5,1.08,14.5,3.08-.53,64.31-.53,64.31l-6.53,54,3.52,29.41Z"/><polygon id="Pescoço" class="cls-1" points="260.01 118.37 261.01 117.38 262.01 115.38 262.01 112.38 262.01 107.38 262.01 105.38 259.01 103.82 252.62 100.84 249.01 96.38 243.01 92.38 239.6 75.47 240.61 72.92 241.98 71.24 245.67 66.34 248.53 60.11 252.81 48.55 255.22 42.51 256.78 40.16 257.17 41.09 257.82 42.62 259.41 46.35 263.7 54.05 268.53 59.6 277.5 65.67 286.15 68.6 294.45 69.8 300.33 70.17 306.42 70.44 310.09 71.19 311 73.63 310.8 77.39 311.09 87.29 308.01 87.29 306.82 88.67 301.42 95.07 296.25 99.75 291.06 102.57 288.52 104.39 287.6 105.2 287.83 108.38 288.63 114.86 289.06 118.37 290.84 119.65 294.29 120.92 249.51 121.99 260.01 118.37"/><g id="Cabelo"><polygon points="254.52 102.51 256.31 118.75 256.59 119.04 257.28 119.31 259.65 118.37 261.01 116.38 261.69 114.36 262.01 112.38 262.01 108.93 262.01 105.38 255.69 102.27 254.52 102.51"/><polygon points="290.84 119.65 289.06 118.37 287.63 105.64 288.52 104.39 290.52 102.95 291.61 102.27 292.55 102.07 293.08 102.18 293.67 102.91 293.94 103.38 293.24 109.16 292.18 117.38 292.01 118.38 290.84 119.65"/><polygon points="311.09 87.29 311 73.63 310.09 71.19 308.16 70.56 304.33 70.34 296.99 69.96 289.08 69.02 286.15 68.6 281.81 67.13 277.5 65.67 272.96 62.6 268.53 59.6 263.7 54.05 259.41 46.35 257.17 41.09 256.78 40.16 255.22 42.51 252.81 48.55 248.53 60.11 245.67 66.34 241.98 71.24 240.61 72.92 239.6 75.47 243.01 92.38 242.18 92.2 241.2 91.66 239.6 89.78 235.03 83.47 233.29 80.55 230.8 75.39 229.12 70.54 228.03 66.87 227.09 61.39 226.45 56.09 226.21 51.71 226.4 46.44 226.72 43.53 227.14 39.34 227.78 33.79 228.81 28.45 229.71 25.5 230.42 23.68 231.75 21.17 232.65 19.86 233.62 18.49 234.47 17.66 236.01 16.38 238.01 15.38 239.6 14.32 240.65 13.55 242.01 13.38 243.01 13.38 244.13 13.38 245.01 13.38 246.14 13.04 246.97 12.52 248.5 11.04 249.25 10.01 249.82 9.12 250.36 8.18 251.14 7.26 252.54 6.17 254.01 5.36 255.19 4.89 258.01 3.99 260.51 3.3 261.67 3 263.45 2.51 265.12 2.12 266.32 1.81 267.47 1.52 268.65 1.2 270.05 0.83 271.75 0.48 273.39 0.24 275.04 0 276.65 0 278.41 0.01 279.51 0.06 281.12 0.18 282.74 0.35 284.11 0.55 286.12 0.89 287.43 1.14 289.01 1.38 290.56 1.89 292.94 2.51 294.13 3.03 295.74 3.65 297.21 4.3 298.55 4.94 299.87 5.64 300.98 6.27 302.39 7.15 303.76 7.87 304.28 8.46 305.64 9.5 306.8 10.46 307.76 11.3 308.7 12.17 309.59 13.05 310.69 14.2 311.45 15.04 312.39 16.17 313.55 17.68 314.47 18.98 315.12 19.97 315.71 20.93 316.23 21.83 316.82 22.93 317.26 23.81 317.58 24.46 318.04 25.48 318.36 26.26 318.81 27.41 319.33 28.88 319.72 30.11 320 31.11 320.25 32.05 320.39 32.69 320.52 34.89 320.63 37.06 320.69 38.46 320.8 40.51 320.88 42.26 321.05 45.71 321.19 48.78 321.31 51.3 321.41 53.51 321.49 55.22 321.57 56.96 321.62 58.21 321.62 59.76 321.76 61.48 321.86 63.92 321.97 65.66 321.97 66.75 321.97 67.75 321.01 69.38 320.01 71.38 318.97 73.63 318.25 75.51 317.47 77.19 317.49 77.68 316.54 79.61 314.87 82.74 313.89 84.55 313.22 85.82 313.01 86.38 311.09 87.29"/></g></g></g></g></svg>