<svg xmlns="http://www.w3.org/2000/svg" viewBox="0 0 309.95 656.48"><defs><style>.cls-1{fill:#d8ae8b;}.cls-2{fill:#5b5a5d;}.cls-3{fill:#fff;}.cls-4{fill:#999;}.cls-5{fill:#a9dff4;}</style></defs><g id="Camada_2" data-name="Camada 2"><g id="New_Person_Jump_Jack"><g id="Mov_Aberto_Jump_Jack"><g id="Perna_Direita"><g id="Joelho_Tornozelo"><path class="cls-1" d="M33.42,608.55l-20.24-8.63C23.42,578.41,31.63,557.61,36.3,538l23,9.81Z"/><ellipse class="cls-1" cx="47.8" cy="542.94" rx="11" ry="12.5" transform="translate(-470.39 373.99) rotate(-66.91)"/><path class="cls-2" d="M33.55,536.86l27.59,11.76,6-11.56s4.9-8.94,6.83-13.47a125.18,125.18,0,0,0,4.08-12.47l12.74-34.64-27.6-11.77L43.87,513.27l-5.53,12.59C36.46,530.14,33.55,536.86,33.55,536.86Z"/><circle class="cls-2" cx="77.01" cy="470.6" r="15"/></g><g id="Coxa"><polygon class="cls-2" points="64.2 464.18 90.38 478.83 150.57 383.59 107.81 359.66 64.2 464.18"/><circle class="cls-2" cx="129.19" cy="371.63" r="24.5"/></g><g id="Tenis_Dir"><circle class="cls-1" cx="24.99" cy="603" r="11"/><polygon id="Sola" class="cls-3" points="0.06 639.92 1.6 645.92 2.5 646.9 6.08 649.52 11.82 651.16 14 650.97 16.38 650.42 19.1 650.41 20.74 650.96 21.86 651.93 23.64 653.63 26.09 654.04 28.55 653.62 32.43 652.52 32.97 652.43 33.45 651.23 33.03 653.79 31.89 654.39 29.5 655.57 28.05 656.14 25.28 656.44 22.29 656.48 20.27 656.47 18.15 656.12 14.3 655.14 11.84 654.52 8.57 653.33 5.61 652.34 3 650.54 0.69 648.4 0 643.81 0.06 639.92"/><polygon id="Corpo" points="12.88 604.58 13.79 606.16 15.15 607.3 17.39 608.38 21.62 607.24 29.11 608.47 33.03 609.94 35.17 610.3 35.38 608.99 37.41 613.69 37.38 617.61 37.97 622.42 37.95 630.06 37.07 637.46 35.82 642.81 34.67 648.21 32.97 652.43 29.56 653.45 26.09 654.04 23.64 653.63 22.73 652.83 21.86 651.93 20.74 650.96 19.1 650.41 16.38 650.42 14 650.97 12.29 651.12 10.36 651.14 7.96 650.44 5.41 649.43 3.26 648.21 1.88 646.6 1.24 644.65 0.68 642.56 0.34 640.92 0.06 639.92 0.3 638.43 0.77 635.62 6.95 617.8 7.49 616.24 9.02 611.46 10.86 607.24 12.88 604.58"/><polygon id="Lateral_Inf_Dir" class="cls-3" points="12.84 615.23 14.37 616.21 14.47 617.4 11.77 618.29 7.98 619.91 6.02 620.47 6.95 617.8 12.84 615.23"/><polygon id="Lateral_Sup_Dir" class="cls-3" points="10.8 621.21 12.33 622.18 12.43 623.38 9.73 624.27 5.94 625.89 3.98 626.44 4.91 623.77 10.8 621.21"/><polygon id="Lateral_Inf_Esq" class="cls-3" points="33.09 625.04 31.33 625.47 30.85 626.56 33.11 628.28 36.17 631.04 37.84 632.2 37.83 629.38 33.09 625.04"/><polygon id="Lateral_Sup_Esq" class="cls-3" points="33.1 618.73 31.34 619.15 30.86 620.25 33.12 621.97 36.19 624.73 37.85 625.89 37.84 623.06 33.1 618.73"/><polygon class="cls-4" points="17.39 608.38 17.43 611.88 17.68 614.96 17.42 619.44 16.83 622.97 16.34 625.93 15.92 628.43 16.17 630.76 16.66 632.53 18.41 633.35 20.8 633.97 22.78 633.55 24.28 632.43 25.03 629.95 26.04 626.88 26.62 623.62 27.29 619.64 28.1 615.63 29.26 613.64 30.11 611.42 30.95 609.8 29.11 608.47 25.16 607.81 21.62 607.24 17.39 608.38"/><g id="Cadarço"><polygon class="cls-3" points="17.68 614.96 20.23 614.46 22.39 614.4 24.41 614.74 25.42 615.18 26.97 615.84 27.9 616.84 27.59 618.71 25.68 617.57 23.7 617.04 22.21 616.79 20.74 616.48 19.37 616.25 18.16 616.58 17.58 616.66 17.68 614.96"/><polygon class="cls-3" points="17.42 619.44 19.23 619.27 21.12 619.38 22.48 619.61 24.09 620.11 25.11 620.79 26.11 621.41 26.84 622.32 26.62 623.62 25.51 622.78 24.39 622.38 22.86 621.66 21.38 621.41 19.64 621.42 18.4 621.38 17.04 621.72 17.42 619.44"/><polygon class="cls-3" points="16.34 625.93 17.66 625.66 19.47 625.38 20.75 625.59 22.01 625.8 23.05 626.38 24 627.21 24.9 627.89 25.47 628.61 25.2 629.45 23.47 628.46 21.92 627.74 20.9 627.24 19.91 627.08 19.21 626.96 18.1 627.1 17.02 627.18 16.36 627.36 16.07 627.55 16.34 625.93"/></g></g></g><g id="Perna_Esquerda"><g id="Joelho_Tornozelo-2" data-name="Joelho_Tornozelo"><path class="cls-1" d="M276.53,608.55l20.24-8.63c-10.24-21.51-18.45-42.31-23.13-61.89l-23,9.81Z"/><ellipse class="cls-1" cx="262.15" cy="542.94" rx="12.5" ry="11" transform="translate(-191.92 146.3) rotate(-23.09)"/><path class="cls-2" d="M276.4,536.86l-27.59,11.76-6-11.56s-4.9-8.94-6.83-13.47a125.18,125.18,0,0,1-4.08-12.47l-12.74-34.64,27.6-11.77,19.33,48.56s2.92,6.62,5.54,12.59C273.49,530.14,276.4,536.86,276.4,536.86Z"/><circle class="cls-2" cx="232.94" cy="470.6" r="15"/></g><g id="Coxa-2" data-name="Coxa"><polygon class="cls-2" points="245.75 464.18 219.57 478.83 159.38 383.59 202.14 359.66 245.75 464.18"/><circle class="cls-2" cx="180.76" cy="371.63" r="24.5"/></g><g id="Tenis_Dir-2" data-name="Tenis_Dir"><circle class="cls-1" cx="284.96" cy="603" r="11"/><polygon id="Sola-2" data-name="Sola" class="cls-3" points="309.89 639.92 308.35 645.92 307.45 646.9 303.87 649.52 298.13 651.16 295.95 650.97 293.57 650.42 290.85 650.41 289.21 650.96 288.08 651.93 286.31 653.63 283.85 654.04 281.39 653.62 277.52 652.52 276.98 652.43 276.5 651.23 276.92 653.79 278.06 654.39 280.44 655.57 281.89 656.14 284.67 656.44 287.66 656.48 289.68 656.47 291.8 656.12 295.65 655.14 298.11 654.52 301.38 653.33 304.34 652.34 306.94 650.54 309.25 648.4 309.95 643.81 309.89 639.92"/><polygon id="Corpo-2" data-name="Corpo" points="297.07 604.58 296.15 606.16 294.8 607.3 292.56 608.38 288.33 607.24 280.84 608.47 276.92 609.94 274.78 610.3 274.56 608.99 272.54 613.69 272.57 617.61 271.98 622.42 272 630.06 272.88 637.46 274.13 642.81 275.28 648.21 276.98 652.43 280.39 653.45 283.85 654.04 286.31 653.63 287.22 652.83 288.08 651.93 289.21 650.96 290.85 650.41 293.57 650.42 295.95 650.97 297.65 651.12 299.59 651.14 301.99 650.44 304.54 649.43 306.69 648.21 308.07 646.6 308.71 644.65 309.27 642.56 309.61 640.92 309.89 639.92 309.64 638.43 309.18 635.62 303 617.8 302.46 616.24 300.93 611.46 299.09 607.24 297.07 604.58"/><polygon id="Lateral_Inf_Dir-2" data-name="Lateral_Inf_Dir" class="cls-3" points="297.11 615.23 295.58 616.21 295.48 617.4 298.18 618.29 301.97 619.91 303.93 620.47 303 617.8 297.11 615.23"/><polygon id="Lateral_Sup_Dir-2" data-name="Lateral_Sup_Dir" class="cls-3" points="299.15 621.21 297.62 622.18 297.51 623.38 300.22 624.27 304.01 625.89 305.96 626.44 305.04 623.77 299.15 621.21"/><polygon id="Lateral_Inf_Esq-2" data-name="Lateral_Inf_Esq" class="cls-3" points="276.85 625.04 278.62 625.47 279.1 626.56 276.84 628.28 273.77 631.04 272.11 632.2 272.12 629.38 276.85 625.04"/><polygon id="Lateral_Sup_Esq-2" data-name="Lateral_Sup_Esq" class="cls-3" points="276.84 618.73 278.61 619.15 279.09 620.25 276.83 621.97 273.76 624.73 272.1 625.89 272.11 623.06 276.84 618.73"/><polygon class="cls-4" points="292.56 608.38 292.52 611.88 292.27 614.96 292.53 619.44 293.12 622.97 293.61 625.93 294.03 628.43 293.78 630.76 293.29 632.53 291.54 633.35 289.15 633.97 287.17 633.55 285.67 632.43 284.92 629.95 283.91 626.88 283.33 623.62 282.67 619.64 281.85 615.63 280.69 613.64 279.84 611.42 279 609.8 280.84 608.47 284.79 607.81 288.33 607.24 292.56 608.38"/><g id="Cadarço-2" data-name="Cadarço"><polygon class="cls-3" points="292.27 614.96 289.72 614.46 287.56 614.4 285.54 614.74 284.53 615.18 282.98 615.84 282.05 616.84 282.36 618.71 284.27 617.57 286.25 617.04 287.74 616.79 289.21 616.48 290.57 616.25 291.79 616.58 292.37 616.66 292.27 614.96"/><polygon class="cls-3" points="292.53 619.44 290.71 619.27 288.83 619.38 287.47 619.61 285.86 620.11 284.84 620.79 283.84 621.41 283.11 622.32 283.33 623.62 284.44 622.78 285.56 622.38 287.09 621.66 288.57 621.41 290.31 621.42 291.55 621.38 292.91 621.72 292.53 619.44"/><polygon class="cls-3" points="293.61 625.93 292.29 625.66 290.48 625.38 289.2 625.59 287.94 625.8 286.9 626.38 285.95 627.21 285.05 627.89 284.48 628.61 284.75 629.45 286.48 628.46 288.03 627.74 289.05 627.24 290.04 627.08 290.74 626.96 291.85 627.1 292.93 627.18 293.58 627.36 293.88 627.55 293.61 625.93"/></g></g></g><g id="Quadril"><path class="cls-2" d="M206,374.26H107l2-33s6-37,7-41,79-4,81,0,7,39,7,39Z"/></g><g id="Tronco"><path class="cls-1" d="M197,300.26H116a155.12,155.12,0,0,0,6-51.79c-1.31-23.12-7.33-49.59-8-70.69-.19-6.12-10.41-11.78-10-16.78,1-12.36-2-17.74,12-21.74,3.44-1,9.43-1.85,16.67-2.5a334,334,0,0,1,43.61-1c9.52.5,17.3,1.59,20.72,3.46,26.45,2.91,19.15,16.26,11,22-5.17,3.64-7.36,10.4-8,16.5-2.22,21.22-9.09,47.76-10,70.71A154.11,154.11,0,0,0,197,300.26Z"/></g><g id="Braço_Direito"><g id="Antebraco_Mao"><polygon class="cls-1" points="53.01 45.33 52.94 45.53 52.69 46.28 52.72 46.18 52.55 46.7 51.83 48.82 49.16 56.7 61.48 60.87 72.64 40.36 82.39 24.59 82.84 22.72 80.87 22.43 78.59 24.19 73.21 28.17 72.69 27.71 79.56 8.04 79.38 7.36 79.11 6.99 78.37 6.91 77.59 7.49 75.77 10.67 72.7 16.39 71.32 17.37 71.16 16.64 74.53 4.47 74.36 2.38 73.63 1.62 72.56 1.95 71.37 3.8 68.65 11.64 67.53 14.91 66.42 15.04 66.75 12.53 68.07 0.81 67.2 0 66.04 1.06 64.68 4.91 62.59 12.19 61.37 14.38 60.42 14.06 60.3 6.62 59.61 5.92 58.88 6.35 58.58 7.25 58.05 9.21 57.02 13.96 56.35 18.24 55.4 24.23 54.69 28.77 54.47 30.45 54.42 31.25 54.14 34.25 54.18 35.87 53.87 38.91 53.01 45.33"/><path class="cls-1" d="M53.42,64.47a6.5,6.5,0,1,0-2.7-10.56,6.43,6.43,0,0,0-1.37,2.32A6.5,6.5,0,0,0,53.42,64.47Z"/><path class="cls-1" d="M35.2,143.29c2-13.59,26.3-82.42,26.3-82.42L49.19,56.71s-33.53,71-32.94,81.75S33.24,156.88,35.2,143.29Z"/><circle class="cls-1" cx="25.41" cy="141.04" r="9.5"/></g><g id="Braço"><path class="cls-1" d="M107,140.86c-7.74-2-72.65-10.7-79-10.29s-2.87,18.89-2.87,18.89l74.25,20.42S114.71,142.88,107,140.86Z"/><circle class="cls-1" cx="103.18" cy="155.37" r="15"/></g></g><g id="Braço_Esq"><g id="Antebraco_Mao-2" data-name="Antebraco_Mao"><polygon class="cls-1" points="257.72 45.56 257.79 45.76 258.04 46.51 258.01 46.41 258.18 46.93 258.9 49.05 261.57 56.93 249.25 61.1 238.09 40.59 228.34 24.82 227.89 22.95 229.86 22.66 232.13 24.42 237.51 28.4 238.04 27.94 231.17 8.27 231.34 7.59 231.62 7.22 232.36 7.14 233.14 7.72 234.96 10.9 238.02 16.62 239.41 17.6 239.57 16.87 236.2 4.7 236.37 2.61 237.1 1.85 238.16 2.19 239.36 4.03 242.08 11.87 243.19 15.14 244.3 15.27 243.98 12.76 242.66 1.04 243.52 0.23 244.69 1.29 246.04 5.14 248.14 12.42 249.36 14.61 250.31 14.29 250.43 6.85 251.12 6.16 251.84 6.58 252.15 7.48 252.67 9.45 253.7 14.2 254.38 18.47 255.32 24.46 256.04 29 256.26 30.68 256.31 31.48 256.59 34.48 256.55 36.1 256.86 39.14 257.72 45.56"/><path class="cls-1" d="M257.31,64.71A6.5,6.5,0,1,1,260,54.14a6.39,6.39,0,0,1,1.37,2.33A6.5,6.5,0,0,1,257.31,64.71Z"/><path class="cls-1" d="M275.53,143.52c-2-13.59-26.3-82.42-26.3-82.42l12.31-4.16s33.52,71,32.94,81.76S277.49,157.11,275.53,143.52Z"/><circle class="cls-1" cx="285.32" cy="141.27" r="9.5"/></g><g id="Braço-2" data-name="Braço"><path class="cls-1" d="M203.76,141.09c7.74-2,72.65-10.7,79-10.28s2.87,18.88,2.87,18.88l-74.25,20.42S196,143.11,203.76,141.09Z"/><circle class="cls-1" cx="207.55" cy="155.6" r="15"/></g></g><path id="Camisa" class="cls-5" d="M119.29,287l3-29.62-5.55-52.66L116,139.26a77.17,77.17,0,0,1,15-2.37l3.16,25.22L146,172.26h19L176,162.11l6.58-25.94s13.5,1.09,14.5,3.09-.53,64.31-.53,64.31l-6.53,54L193.49,287Z"/><polygon id="Pescoço" class="cls-1" points="142.03 133.25 143.03 132.26 144.03 130.26 144.03 127.26 144.03 122.26 144.02 120.26 141.03 118.7 134.64 115.72 131.03 111.26 125.03 107.26 121.62 90.35 122.62 87.8 124 86.12 127.68 81.22 130.55 74.99 134.83 63.42 137.24 57.39 138.8 55.04 139.19 55.97 139.83 57.49 141.42 61.23 145.72 68.93 150.55 74.48 159.52 80.55 168.17 83.48 176.46 84.68 182.35 85.04 188.43 85.31 192.11 86.07 193.01 88.51 192.82 92.27 193.1 102.17 190.03 102.17 188.84 103.54 183.43 109.95 178.27 114.63 173.08 117.45 170.53 119.27 169.61 120.08 169.85 123.26 170.65 129.74 171.08 133.25 172.86 134.53 176.31 135.8 131.53 136.87 142.03 133.25"/><g id="Cabelo"><polygon points="136.54 117.39 138.33 133.63 138.6 133.91 139.29 134.19 141.66 133.25 143.03 131.26 143.71 129.24 144.03 127.26 144.03 123.81 144.02 120.26 137.71 117.15 136.54 117.39"/><polygon points="172.86 134.53 171.08 133.25 169.65 120.52 170.53 119.27 172.54 117.83 173.63 117.15 174.56 116.95 175.09 117.06 175.69 117.79 175.95 118.26 175.25 124.04 174.2 132.26 174.03 133.26 172.86 134.53"/><polygon points="193.1 102.17 193.01 88.51 192.11 86.07 190.18 85.44 186.35 85.22 179.01 84.84 171.09 83.9 168.17 83.48 163.82 82.01 159.52 80.55 154.98 77.47 150.55 74.48 145.72 68.93 141.42 61.23 139.19 55.97 138.8 55.04 137.24 57.39 134.83 63.42 130.55 74.99 127.68 81.22 124 86.12 122.62 87.8 121.62 90.35 125.03 107.26 124.19 107.07 123.21 106.53 121.62 104.65 117.05 98.34 115.3 95.43 112.82 90.27 111.14 85.42 110.04 81.75 109.11 76.27 108.46 70.97 108.22 66.58 108.41 61.31 108.74 58.41 109.15 54.22 109.79 48.67 110.83 43.33 111.73 40.38 112.44 38.56 113.76 36.05 114.67 34.73 115.64 33.37 116.48 32.54 118.03 31.26 120.03 30.26 121.62 29.2 122.67 28.43 124.03 28.26 125.03 28.26 126.15 28.26 127.03 28.26 128.16 27.92 128.98 27.39 130.51 25.91 131.27 24.89 131.83 23.99 132.37 23.06 133.15 22.14 134.55 21.05 136.03 20.24 137.2 19.76 140.03 18.87 142.53 18.18 143.69 17.87 145.47 17.39 147.14 17 148.34 16.69 149.49 16.39 150.66 16.08 152.07 15.71 153.76 15.36 155.41 15.12 157.05 14.88 158.66 14.88 160.43 14.89 161.53 14.94 163.14 15.06 164.75 15.23 166.12 15.42 168.13 15.76 169.44 16.02 171.03 16.26 172.58 16.77 174.95 17.39 176.14 17.91 177.76 18.53 179.23 19.18 180.56 19.82 181.89 20.52 183 21.15 184.41 22.03 185.78 22.75 186.29 23.33 187.65 24.38 188.81 25.33 189.77 26.18 190.72 27.05 191.61 27.93 192.71 29.08 193.46 29.92 194.41 31.05 195.57 32.55 196.49 33.85 197.13 34.85 197.73 35.81 198.25 36.71 198.84 37.81 199.28 38.69 199.59 39.34 200.05 40.36 200.38 41.14 200.83 42.28 201.35 43.75 201.74 44.99 202.02 45.99 202.27 46.93 202.41 47.57 202.54 49.76 202.64 51.94 202.71 53.34 202.81 55.39 202.9 57.14 203.06 60.59 203.21 63.66 203.33 66.18 203.43 68.39 203.51 70.1 203.58 71.83 203.64 73.09 203.64 74.64 203.78 76.36 203.87 78.8 203.99 80.54 203.98 81.63 203.99 82.63 203.03 84.26 202.03 86.26 200.99 88.51 200.27 90.39 199.48 92.06 199.5 92.56 198.55 94.49 196.88 97.61 195.91 99.43 195.23 100.7 195.03 101.26 193.1 102.17"/></g></g></g></g></svg>