<svg xmlns="http://www.w3.org/2000/svg" viewBox="0 0 331.5 180.47"><defs><style>.cls-1{fill:#666;}.cls-2{opacity:0.69;}.cls-3,.cls-4{fill:#fff;}.cls-3,.cls-4,.cls-5,.cls-6{stroke:#fff;stroke-miterlimit:10;}.cls-3{stroke-width:4px;}.cls-4,.cls-6{stroke-width:2px;}.cls-5,.cls-6,.cls-7{fill:none;}.cls-5{stroke-width:0.5px;}.cls-8{fill:#d8ae8b;}.cls-9{fill:#a9dff4;}</style></defs><g id="Camada_2" data-name="Camada 2"><g id="Card_template"><g id="Card_2_Intermedio_edit_1"><g id="A_Enviar"><g id="Fundo_card"><rect class="cls-1" x="0.5" width="331" height="180" rx="16"/><g id="Textura_esq" class="cls-2"><rect class="cls-3" x="21.09" y="10.59" width="2.83" height="2.83"/><polygon class="cls-4" points="38.5 6 40.26 6.57 41.35 8.07 41.35 9.93 40.26 11.43 38.5 12 36.74 11.43 35.65 9.93 35.65 8.07 36.74 6.57 38.5 6"/><polygon class="cls-4" points="51.5 13 51.5 16 54.5 16 51.5 16 51.5 19 51.5 16 48.5 16 51.5 16 51.5 13"/><polygon class="cls-5" points="13.13 24.35 10.63 29.35 15.63 29.35 13.13 24.35"/><polygon class="cls-5" points="35.13 27.35 36.9 27.92 37.99 29.42 37.99 31.28 36.9 32.78 35.13 33.35 33.37 32.78 32.28 31.28 32.28 29.42 33.37 27.92 35.13 27.35"/><rect class="cls-3" x="150.47" y="20.92" width="2.83" height="2.83"/><polygon class="cls-5" points="34.88 42.5 32.38 47.5 37.38 47.5 34.88 42.5"/><rect class="cls-3" x="70.85" y="7.04" width="2.83" height="2.83"/><polygon class="cls-5" points="81.26 16.46 83.02 17.03 84.11 18.53 84.11 20.39 83.02 21.89 81.26 22.46 79.5 21.89 78.41 20.39 78.41 18.53 79.5 17.03 81.26 16.46"/><polygon class="cls-5" points="28.26 54.46 30.02 55.03 31.11 56.53 31.11 58.38 30.02 59.88 28.26 60.46 26.5 59.88 25.41 58.38 25.41 56.53 26.5 55.03 28.26 54.46"/><polygon class="cls-4" points="13.5 39 13.5 42 16.5 42 13.5 42 13.5 45 13.5 42 10.5 42 13.5 42 13.5 39"/><polygon class="cls-5" points="73.26 28.11 70.76 33.11 75.76 33.11 73.26 28.11"/><polygon class="cls-4" points="98.26 13.46 98.26 16.46 101.26 16.46 98.26 16.46 98.26 19.46 98.26 16.46 95.26 16.46 98.26 16.46 98.26 13.46"/><rect class="cls-3" x="146.63" y="90.22" width="2.83" height="2.83"/><polygon class="cls-5" points="48.04 70.29 45.54 75.29 50.54 75.29 48.04 70.29"/><polygon class="cls-5" points="14.04 54.5 11.54 59.5 16.54 59.5 14.04 54.5"/><rect class="cls-5" x="26.54" y="87.14" width="5" height="5"/><polygon class="cls-4" points="35.04 75.64 35.04 78.64 38.04 78.64 35.04 78.64 35.04 81.64 35.04 78.64 32.04 78.64 35.04 78.64 35.04 75.64"/><polygon class="cls-4" points="90.26 142.46 92.02 143.03 93.11 144.53 93.11 146.38 92.02 147.88 90.26 148.46 88.5 147.88 87.41 146.38 87.41 144.53 88.5 143.03 90.26 142.46"/><polygon class="cls-6" points="44.06 57.93 42.33 60.93 45.8 60.93 44.06 57.93"/><rect class="cls-3" x="56.52" y="87.88" width="2.83" height="2.83"/><polygon class="cls-5" points="74.31 77.41 76.07 77.99 77.16 79.49 77.16 81.34 76.07 82.84 74.31 83.41 72.55 82.84 71.46 81.34 71.46 79.49 72.55 77.99 74.31 77.41"/><rect class="cls-5" x="31" y="64.5" width="5" height="5"/><polygon class="cls-6" points="14.07 128.78 12.34 131.78 15.8 131.78 14.07 128.78"/><polygon class="cls-4" points="110.57 19.28 112.33 19.86 113.42 21.36 113.42 23.21 112.33 24.71 110.57 25.28 108.81 24.71 107.72 23.21 107.72 21.36 108.81 19.86 110.57 19.28"/><polygon class="cls-4" points="53.83 122.74 53.83 125.74 56.83 125.74 53.83 125.74 53.83 128.74 53.83 125.74 50.83 125.74 53.83 125.74 53.83 122.74"/><polygon class="cls-5" points="19.2 139.63 16.7 144.63 21.7 144.63 19.2 139.63"/><rect class="cls-5" x="26.7" y="128.13" width="5" height="5"/><polygon class="cls-5" points="41.2 120.63 42.97 121.21 44.05 122.71 44.05 124.56 42.97 126.06 41.2 126.63 39.44 126.06 38.35 124.56 38.35 122.71 39.44 121.21 41.2 120.63"/><polygon class="cls-4" points="154.44 132.15 156.2 132.72 157.29 134.22 157.29 136.08 156.2 137.58 154.44 138.15 152.68 137.58 151.59 136.08 151.59 134.22 152.68 132.72 154.44 132.15"/><polygon class="cls-4" points="71.5 64 71.5 67 74.5 67 71.5 67 71.5 70 71.5 67 68.5 67 71.5 67 71.5 64"/><polygon class="cls-5" points="85.35 64.55 87.11 65.12 88.2 66.62 88.2 68.48 87.11 69.98 85.35 70.55 83.58 69.98 82.5 68.48 82.5 66.62 83.58 65.12 85.35 64.55"/><rect class="cls-5" x="106" y="65.5" width="5" height="5"/><polygon class="cls-4" points="13.59 101.65 15.35 102.22 16.44 103.72 16.44 105.58 15.35 107.08 13.59 107.65 11.82 107.08 10.73 105.58 10.73 103.72 11.82 102.22 13.59 101.65"/><polygon class="cls-5" points="43.5 95.05 45.26 95.63 46.35 97.13 46.35 98.98 45.26 100.48 43.5 101.05 41.73 100.48 40.65 98.98 40.65 97.13 41.73 95.63 43.5 95.05"/><rect class="cls-5" x="41.15" y="109" width="5" height="5"/><polygon class="cls-5" points="67.35 40.55 69.11 41.12 70.2 42.62 70.2 44.48 69.11 45.98 67.35 46.55 65.58 45.98 64.5 44.48 64.5 42.62 65.58 41.12 67.35 40.55"/><rect class="cls-5" x="93" y="40.5" width="5" height="5"/><polygon class="cls-5" points="55.52 51.5 53.02 56.5 58.02 56.5 55.52 51.5"/><rect class="cls-5" x="25" y="106.5" width="5" height="5"/><polygon class="cls-5" points="60.52 111.5 58.02 116.5 63.02 116.5 60.52 111.5"/><rect class="cls-5" x="98.33" y="98.24" width="5" height="5"/><polygon class="cls-5" points="107.14 83.95 108.9 84.52 109.99 86.02 109.99 87.88 108.9 89.38 107.14 89.95 105.38 89.38 104.29 87.88 104.29 86.02 105.38 84.52 107.14 83.95"/><rect class="cls-3" x="16.52" y="155.13" width="2.83" height="2.83"/><rect class="cls-5" x="132.18" y="88.27" width="5" height="5"/><rect class="cls-3" x="141.65" y="58.69" width="2.83" height="2.83"/><polygon class="cls-5" points="19.06 68.5 16.56 73.5 21.56 73.5 19.06 68.5"/><polygon class="cls-5" points="153.14 62.95 154.9 63.52 155.99 65.02 155.99 66.88 154.9 68.38 153.14 68.95 151.38 68.38 150.29 66.88 150.29 65.02 151.38 63.52 153.14 62.95"/><rect class="cls-3" x="104.52" y="157.13" width="2.83" height="2.83"/><rect class="cls-5" x="106" y="111.5" width="5" height="5"/><rect class="cls-5" x="107" y="36.5" width="5" height="5"/><polygon class="cls-5" points="110.54 50.5 108.04 55.5 113.04 55.5 110.54 50.5"/><polygon class="cls-5" points="123.54 47.5 121.04 52.5 126.04 52.5 123.54 47.5"/><polygon class="cls-5" points="18.94 23.52 21.5 22.04 24.06 23.52 24.06 26.48 21.5 27.96 18.94 26.48 18.94 23.52"/><polygon class="cls-5" points="57.98 75.97 60.54 74.49 63.1 75.97 63.1 78.93 60.54 80.41 57.98 78.93 57.98 75.97"/><polygon class="cls-5" points="9.98 86.97 12.54 85.49 15.11 86.97 15.11 89.93 12.54 91.41 9.98 89.93 9.98 86.97"/><polygon class="cls-5" points="45.98 133.97 48.54 132.49 51.1 133.97 51.1 136.93 48.54 138.41 45.98 136.93 45.98 133.97"/><polygon class="cls-5" points="79.98 106.97 82.54 105.49 85.11 106.97 85.11 109.93 82.54 111.41 79.98 109.93 79.98 106.97"/><polygon class="cls-5" points="121.54 59.45 123.3 60.02 124.39 61.52 124.39 63.38 123.3 64.88 121.54 65.45 119.78 64.88 118.69 63.38 118.69 61.52 119.78 60.02 121.54 59.45"/><polygon class="cls-6" points="76.54 165.45 74.81 168.45 78.27 168.45 76.54 165.45"/><polygon class="cls-4" points="118.5 108 118.5 111 121.5 111 118.5 111 118.5 114 118.5 111 115.5 111 118.5 111 118.5 108"/><polygon class="cls-4" points="93.83 52.74 93.83 55.74 96.83 55.74 93.83 55.74 93.83 58.74 93.83 55.74 90.83 55.74 93.83 55.74 93.83 52.74"/><polygon class="cls-4" points="127.5 68 127.5 71 130.5 71 127.5 71 127.5 74 127.5 71 124.5 71 127.5 71 127.5 68"/><polygon class="cls-5" points="90.54 117.45 92.3 118.03 93.39 119.53 93.39 121.38 92.3 122.88 90.54 123.45 88.78 122.88 87.69 121.38 87.69 119.53 88.78 118.03 90.54 117.45"/><polygon class="cls-5" points="91.98 71.97 94.54 70.49 97.11 71.97 97.11 74.93 94.54 76.41 91.98 74.93 91.98 71.97"/><polygon class="cls-5" points="135.98 70.97 138.54 69.49 141.1 70.97 141.1 73.93 138.54 75.41 135.98 73.93 135.98 70.97"/><polygon class="cls-5" points="121.98 21.97 124.54 20.49 127.11 21.97 127.11 24.93 124.54 26.41 121.98 24.93 121.98 21.97"/><polygon class="cls-6" points="126.54 35.45 124.81 38.45 128.27 38.45 126.54 35.45"/><polygon class="cls-5" points="73.98 121.97 76.54 120.49 79.11 121.97 79.11 124.93 76.54 126.41 73.98 124.93 73.98 121.97"/><polygon class="cls-5" points="76.98 92.97 79.54 91.49 82.11 92.97 82.11 95.93 79.54 97.41 76.98 95.93 76.98 92.97"/><polygon class="cls-5" points="127.13 96.67 124.63 101.67 129.63 101.67 127.13 96.67"/><rect class="cls-5" x="140.2" y="125.71" width="5" height="5"/><polygon class="cls-5" points="143.74 145.66 145.5 146.23 146.59 147.73 146.59 149.59 145.5 151.09 143.74 151.66 141.98 151.09 140.89 149.59 140.89 147.73 141.98 146.23 143.74 145.66"/><rect class="cls-5" x="120.33" y="81.24" width="5" height="5"/><polygon class="cls-5" points="31.69 149.51 33.45 150.08 34.54 151.58 34.54 153.43 33.45 154.93 31.69 155.51 29.93 154.93 28.84 153.43 28.84 151.58 29.93 150.08 31.69 149.51"/><rect class="cls-5" x="79" y="134.5" width="5" height="5"/><polygon class="cls-5" points="78.76 51.5 76.26 56.5 81.26 56.5 78.76 51.5"/><polygon class="cls-5" points="112.99 97.74 115.55 96.26 118.11 97.74 118.11 100.7 115.55 102.18 112.99 100.7 112.99 97.74"/><polygon class="cls-5" points="60.55 136.24 58.05 141.24 63.05 141.24 60.55 136.24"/><polygon class="cls-6" points="120.55 134.22 118.82 137.22 122.28 137.22 120.55 134.22"/><rect class="cls-5" x="85" y="155.5" width="5" height="5"/><rect class="cls-5" x="49.6" y="145.76" width="5" height="5"/><rect class="cls-3" x="52.32" y="160.35" width="2.83" height="2.83"/><polygon class="cls-5" points="64.26 168.23 66.02 168.8 67.11 170.3 67.11 172.15 66.02 173.65 64.26 174.23 62.49 173.65 61.4 172.15 61.4 170.3 62.49 168.8 64.26 168.23"/><polygon class="cls-5" points="47.78 170.45 50.34 168.97 52.91 170.45 52.91 173.41 50.34 174.89 47.78 173.41 47.78 170.45"/><rect class="cls-5" x="19" y="166.5" width="5" height="5"/><polygon class="cls-5" points="65.59 150 68.15 148.52 70.72 150 70.72 152.97 68.15 154.44 65.59 152.97 65.59 150"/><polygon class="cls-5" points="35.55 164.5 33.05 169.5 38.05 169.5 35.55 164.5"/><polygon class="cls-5" points="43.55 154.5 41.05 159.5 46.05 159.5 43.55 154.5"/><polygon class="cls-5" points="43.36 20.5 40.86 25.5 45.86 25.5 43.36 20.5"/><polygon class="cls-5" points="62.8 19.69 65.36 18.21 67.93 19.69 67.93 22.65 65.36 24.13 62.8 22.65 62.8 19.69"/><polygon class="cls-5" points="92.21 5.03 89.71 10.03 94.71 10.03 92.21 5.03"/><rect class="cls-5" x="103.71" y="4.53" width="5" height="5"/><polygon class="cls-5" points="95.01 29.2 97.57 27.72 100.14 29.2 100.14 32.16 97.57 33.64 95.01 32.16 95.01 29.2"/><polygon class="cls-5" points="48.09 39.4 49.85 39.97 50.94 41.47 50.94 43.33 49.85 44.83 48.09 45.4 46.32 44.83 45.23 43.33 45.23 41.47 46.32 39.97 48.09 39.4"/><polygon class="cls-5" points="119.46 146.86 116.96 151.86 121.96 151.86 119.46 146.86"/><polygon class="cls-5" points="102.89 144.34 105.46 142.86 108.02 144.34 108.02 147.3 105.46 148.78 102.89 147.3 102.89 144.34"/><polygon class="cls-5" points="133.78 137.01 131.28 142.01 136.28 142.01 133.78 137.01"/><polygon class="cls-5" points="160.32 28.82 162.08 29.39 163.17 30.89 163.17 32.75 162.08 34.25 160.32 34.82 158.56 34.25 157.47 32.75 157.47 30.89 158.56 29.39 160.32 28.82"/><polygon class="cls-5" points="64.8 101.29 67.36 99.81 69.92 101.29 69.92 104.25 67.36 105.73 64.8 104.25 64.8 101.29"/><polygon class="cls-5" points="146.36 36.77 148.12 37.34 149.21 38.84 149.21 40.7 148.12 42.2 146.36 42.77 144.6 42.2 143.51 40.7 143.51 38.84 144.6 37.34 146.36 36.77"/><rect class="cls-5" x="133.82" y="46.82" width="5" height="5"/><polygon class="cls-5" points="127.32 6.82 129.08 7.39 130.17 8.89 130.17 10.75 129.08 12.25 127.32 12.82 125.56 12.25 124.47 10.75 124.47 8.89 125.56 7.39 127.32 6.82"/><polygon class="cls-5" points="145.54 7.3 148.1 5.83 150.66 7.3 150.66 10.27 148.1 11.75 145.54 10.27 145.54 7.3"/><rect class="cls-5" x="134.56" y="16.83" width="5" height="5"/><polygon class="cls-4" points="136.5 30 136.5 33 139.5 33 136.5 33 136.5 36 136.5 33 133.5 33 136.5 33 136.5 30"/><rect class="cls-5" x="84.98" y="170.34" width="5" height="5"/><polygon class="cls-5" points="103.2 167.17 104.96 167.75 106.05 169.25 106.05 171.1 104.96 172.6 103.2 173.17 101.44 172.6 100.34 171.1 100.34 169.25 101.44 167.75 103.2 167.17"/><polygon class="cls-5" points="119.7 172.28 122.26 170.81 124.82 172.28 124.82 175.25 122.26 176.73 119.7 175.25 119.7 172.28"/><polygon class="cls-5" points="102.2 125.8 103.97 126.37 105.06 127.87 105.06 129.73 103.97 131.23 102.2 131.8 100.44 131.23 99.35 129.73 99.35 127.87 100.44 126.37 102.2 125.8"/><polygon class="cls-5" points="134.74 110.97 137.31 109.49 139.87 110.97 139.87 113.93 137.31 115.41 134.74 113.93 134.74 110.97"/><polygon class="cls-5" points="151.35 169.82 153.12 170.39 154.21 171.89 154.21 173.75 153.12 175.25 151.35 175.82 149.59 175.25 148.5 173.75 148.5 171.89 149.59 170.39 151.35 169.82"/><polygon class="cls-5" points="127.35 121.82 129.12 122.39 130.21 123.89 130.21 125.75 129.12 127.25 127.35 127.82 125.59 127.25 124.5 125.75 124.5 123.89 125.59 122.39 127.35 121.82"/><polygon class="cls-5" points="90.35 84.24 87.85 89.24 92.85 89.24 90.35 84.24"/><polygon class="cls-5" points="149.35 73.5 146.85 78.5 151.85 78.5 149.35 73.5"/><polygon class="cls-5" points="150.82 117.47 152.58 118.05 153.67 119.55 153.67 121.4 152.58 122.9 150.82 123.47 149.06 122.9 147.97 121.4 147.97 119.55 149.06 118.05 150.82 117.47"/><polygon class="cls-5" points="160.97 141.53 162.73 142.1 163.82 143.6 163.82 145.46 162.73 146.96 160.97 147.53 159.21 146.96 158.12 145.46 158.12 143.6 159.21 142.1 160.97 141.53"/><rect class="cls-3" x="157.47" y="164.01" width="2.83" height="2.83"/><polygon class="cls-5" points="159.89 40.5 157.39 45.5 162.39 45.5 159.89 40.5"/><polygon class="cls-5" points="161.89 152.5 159.39 157.5 164.39 157.5 161.89 152.5"/><rect class="cls-5" x="154" y="102.5" width="5" height="5"/><polygon class="cls-5" points="150.05 49.99 152.61 48.51 155.18 49.99 155.18 52.95 152.61 54.43 150.05 52.95 150.05 49.99"/><polygon class="cls-5" points="163.21 65.47 160.71 70.47 165.71 70.47 163.21 65.47"/><polygon class="cls-5" points="134.04 161.24 131.54 166.24 136.54 166.24 134.04 161.24"/></g><g id="Textura_dir" class="cls-2"><rect class="cls-3" x="309.64" y="11.47" width="2.83" height="2.83"/><polygon class="cls-4" points="295.05 6.89 293.29 7.46 292.2 8.96 292.2 10.81 293.29 12.31 295.05 12.89 296.82 12.31 297.91 10.81 297.91 8.96 296.82 7.46 295.05 6.89"/><polygon class="cls-4" points="282.05 13.89 282.05 16.89 279.05 16.89 282.05 16.89 282.05 19.89 282.05 16.89 285.05 16.89 282.05 16.89 282.05 13.89"/><polygon class="cls-5" points="320.42 25.24 322.92 30.24 317.92 30.24 320.42 25.24"/><polygon class="cls-5" points="298.42 28.24 296.66 28.81 295.57 30.31 295.57 32.16 296.66 33.66 298.42 34.24 300.18 33.66 301.27 32.16 301.27 30.31 300.18 28.81 298.42 28.24"/><rect class="cls-3" x="178.26" y="20.81" width="2.83" height="2.83"/><polygon class="cls-5" points="298.67 43.39 301.17 48.39 296.17 48.39 298.67 43.39"/><rect class="cls-3" x="259.88" y="7.93" width="2.83" height="2.83"/><polygon class="cls-5" points="252.29 17.34 250.53 17.92 249.44 19.42 249.44 21.27 250.53 22.77 252.29 23.34 254.06 22.77 255.15 21.27 255.15 19.42 254.06 17.92 252.29 17.34"/><polygon class="cls-5" points="305.29 55.34 303.53 55.92 302.44 57.42 302.44 59.27 303.53 60.77 305.29 61.34 307.06 60.77 308.15 59.27 308.15 57.42 307.06 55.92 305.29 55.34"/><polygon class="cls-4" points="320.05 39.89 320.05 42.89 317.05 42.89 320.05 42.89 320.05 45.89 320.05 42.89 323.05 42.89 320.05 42.89 320.05 39.89"/><polygon class="cls-5" points="260.29 29 262.79 34 257.79 34 260.29 29"/><polygon class="cls-4" points="235.29 14.35 235.29 17.34 232.29 17.34 235.29 17.34 235.29 20.34 235.29 17.34 238.29 17.34 235.29 17.34 235.29 14.35"/><rect class="cls-3" x="195.1" y="94.11" width="2.83" height="2.83"/><polygon class="cls-5" points="285.51 71.18 288.01 76.18 283.01 76.18 285.51 71.18"/><polygon class="cls-5" points="319.51 55.39 322.01 60.39 317.01 60.39 319.51 55.39"/><rect class="cls-5" x="302.01" y="88.03" width="5" height="5"/><polygon class="cls-4" points="298.51 76.53 298.51 79.53 295.51 79.53 298.51 79.53 298.51 82.53 298.51 79.53 301.51 79.53 298.51 79.53 298.51 76.53"/><polygon class="cls-4" points="243.29 143.34 241.53 143.92 240.44 145.42 240.44 147.27 241.53 148.77 243.29 149.34 245.06 148.77 246.15 147.27 246.15 145.42 245.06 143.92 243.29 143.34"/><polygon class="cls-6" points="289.49 58.82 291.22 61.82 287.76 61.82 289.49 58.82"/><rect class="cls-3" x="274.21" y="88.77" width="2.83" height="2.83"/><polygon class="cls-5" points="259.24 78.3 257.48 78.87 256.39 80.37 256.39 82.23 257.48 83.73 259.24 84.3 261.01 83.73 262.1 82.23 262.1 80.37 261.01 78.87 259.24 78.3"/><rect class="cls-5" x="297.55" y="65.39" width="5" height="5"/><polygon class="cls-6" points="319.49 129.67 321.22 132.67 317.75 132.67 319.49 129.67"/><polygon class="cls-4" points="222.99 20.17 221.22 20.74 220.13 22.24 220.13 24.1 221.22 25.6 222.99 26.17 224.75 25.6 225.84 24.1 225.84 22.24 224.75 20.74 222.99 20.17"/><polygon class="cls-4" points="279.73 123.63 279.73 126.63 276.73 126.63 279.73 126.63 279.73 129.63 279.73 126.63 282.73 126.63 279.73 126.63 279.73 123.63"/><polygon class="cls-5" points="314.35 140.52 316.85 145.52 311.85 145.52 314.35 140.52"/><rect class="cls-5" x="301.85" y="129.02" width="5" height="5"/><polygon class="cls-5" points="292.35 121.52 290.59 122.09 289.5 123.59 289.5 125.45 290.59 126.95 292.35 127.52 294.12 126.95 295.2 125.45 295.2 123.59 294.12 122.09 292.35 121.52"/><polygon class="cls-4" points="262.05 64.89 262.05 67.89 259.05 67.89 262.05 67.89 262.05 70.89 262.05 67.89 265.05 67.89 262.05 67.89 262.05 64.89"/><polygon class="cls-5" points="248.2 65.44 246.44 66.01 245.35 67.51 245.35 69.36 246.44 70.86 248.2 71.44 249.97 70.86 251.06 69.36 251.06 67.51 249.97 66.01 248.2 65.44"/><rect class="cls-5" x="222.55" y="66.39" width="5" height="5"/><polygon class="cls-4" points="319.96 102.54 318.2 103.11 317.11 104.61 317.11 106.47 318.2 107.97 319.96 108.54 321.73 107.97 322.82 106.47 322.82 104.61 321.73 103.11 319.96 102.54"/><polygon class="cls-5" points="290.06 95.94 288.29 96.51 287.2 98.01 287.2 99.87 288.29 101.37 290.06 101.94 291.82 101.37 292.91 99.87 292.91 98.01 291.82 96.51 290.06 95.94"/><rect class="cls-5" x="287.4" y="109.89" width="5" height="5"/><polygon class="cls-5" points="266.2 41.44 264.44 42.01 263.35 43.51 263.35 45.37 264.44 46.87 266.2 47.44 267.97 46.87 269.06 45.37 269.06 43.51 267.97 42.01 266.2 41.44"/><rect class="cls-5" x="235.55" y="41.39" width="5" height="5"/><polygon class="cls-5" points="278.03 52.39 280.53 57.39 275.53 57.39 278.03 52.39"/><rect class="cls-5" x="303.55" y="107.39" width="5" height="5"/><polygon class="cls-5" points="273.03 112.39 275.53 117.39 270.53 117.39 273.03 112.39"/><rect class="cls-5" x="230.23" y="99.13" width="5" height="5"/><polygon class="cls-5" points="226.41 84.84 224.65 85.41 223.56 86.91 223.56 88.76 224.65 90.26 226.41 90.84 228.18 90.26 229.27 88.76 229.27 86.91 228.18 85.41 226.41 84.84"/><rect class="cls-3" x="314.2" y="156.02" width="2.83" height="2.83"/><rect class="cls-5" x="189.37" y="82.16" width="5" height="5"/><rect class="cls-3" x="188.07" y="59.58" width="2.83" height="2.83"/><polygon class="cls-5" points="314.49 69.39 316.99 74.39 311.99 74.39 314.49 69.39"/><rect class="cls-3" x="226.2" y="158.02" width="2.83" height="2.83"/><rect class="cls-5" x="222.55" y="112.39" width="5" height="5"/><rect class="cls-5" x="221.55" y="37.39" width="5" height="5"/><polygon class="cls-5" points="223.01 51.39 225.51 56.39 220.51 56.39 223.01 51.39"/><polygon class="cls-5" points="210.01 48.39 212.51 53.39 207.51 53.39 210.01 48.39"/><polygon class="cls-5" points="314.62 24.41 312.05 22.93 309.49 24.41 309.49 27.37 312.05 28.85 314.62 27.37 314.62 24.41"/><polygon class="cls-5" points="275.58 76.86 273.01 75.38 270.45 76.86 270.45 79.82 273.01 81.3 275.58 79.82 275.58 76.86"/><polygon class="cls-5" points="323.58 87.86 321.01 86.38 318.45 87.86 318.45 90.82 321.01 92.3 323.58 90.82 323.58 87.86"/><polygon class="cls-5" points="287.58 134.86 285.01 133.38 282.45 134.86 282.45 137.82 285.01 139.3 287.58 137.82 287.58 134.86"/><polygon class="cls-5" points="253.58 107.86 251.01 106.38 248.45 107.86 248.45 110.82 251.01 112.3 253.58 110.82 253.58 107.86"/><polygon class="cls-5" points="212.01 60.34 210.25 60.91 209.16 62.41 209.16 64.27 210.25 65.77 212.01 66.34 213.78 65.77 214.87 64.27 214.87 62.41 213.78 60.91 212.01 60.34"/><polygon class="cls-6" points="257.01 166.34 258.74 169.34 255.28 169.34 257.01 166.34"/><polygon class="cls-4" points="215.05 108.89 215.05 111.89 212.05 111.89 215.05 111.89 215.05 114.89 215.05 111.89 218.05 111.89 215.05 111.89 215.05 108.89"/><polygon class="cls-4" points="239.73 53.63 239.73 56.63 236.73 56.63 239.73 56.63 239.73 59.63 239.73 56.63 242.73 56.63 239.73 56.63 239.73 53.63"/><polygon class="cls-4" points="206.05 68.89 206.05 71.89 203.05 71.89 206.05 71.89 206.05 74.89 206.05 71.89 209.05 71.89 206.05 71.89 206.05 68.89"/><polygon class="cls-5" points="243.01 118.34 241.25 118.91 240.16 120.41 240.16 122.27 241.25 123.77 243.01 124.34 244.78 123.77 245.87 122.27 245.87 120.41 244.78 118.91 243.01 118.34"/><polygon class="cls-5" points="241.58 72.86 239.01 71.38 236.45 72.86 236.45 75.82 239.01 77.3 241.58 75.82 241.58 72.86"/><polygon class="cls-5" points="197.58 71.86 195.01 70.38 192.45 71.86 192.45 74.82 195.01 76.3 197.58 74.82 197.58 71.86"/><polygon class="cls-5" points="211.58 22.86 209.01 21.38 206.45 22.86 206.45 25.82 209.01 27.3 211.58 25.82 211.58 22.86"/><polygon class="cls-6" points="201.01 40.34 202.74 43.34 199.28 43.34 201.01 40.34"/><polygon class="cls-5" points="259.58 122.86 257.01 121.38 254.45 122.86 254.45 125.82 257.01 127.3 259.58 125.82 259.58 122.86"/><polygon class="cls-5" points="256.58 93.86 254.01 92.38 251.45 93.86 251.45 96.82 254.01 98.3 256.58 96.82 256.58 93.86"/><polygon class="cls-5" points="206.42 97.55 208.92 102.55 203.92 102.55 206.42 97.55"/><rect class="cls-5" x="188.35" y="126.6" width="5" height="5"/><polygon class="cls-5" points="189.81 146.55 188.05 147.12 186.96 148.62 186.96 150.47 188.05 151.97 189.81 152.55 191.57 151.97 192.66 150.47 192.66 148.62 191.57 147.12 189.81 146.55"/><rect class="cls-5" x="208.23" y="82.13" width="5" height="5"/><polygon class="cls-5" points="301.86 150.39 300.1 150.97 299.01 152.47 299.01 154.32 300.1 155.82 301.86 156.39 303.63 155.82 304.72 154.32 304.72 152.47 303.63 150.97 301.86 150.39"/><rect class="cls-5" x="249.55" y="135.39" width="5" height="5"/><polygon class="cls-5" points="254.79 52.39 257.29 57.39 252.29 57.39 254.79 52.39"/><polygon class="cls-5" points="220.57 98.63 218 97.15 215.44 98.63 215.44 101.59 218 103.07 220.57 101.59 220.57 98.63"/><polygon class="cls-5" points="273 137.13 275.5 142.13 270.5 142.13 273 137.13"/><polygon class="cls-6" points="213 135.11 214.74 138.11 211.27 138.11 213 135.11"/><rect class="cls-5" x="243.55" y="156.39" width="5" height="5"/><rect class="cls-5" x="278.95" y="146.65" width="5" height="5"/><rect class="cls-3" x="278.4" y="161.24" width="2.83" height="2.83"/><polygon class="cls-5" points="269.3 169.11 267.53 169.69 266.44 171.19 266.44 173.04 267.53 174.54 269.3 175.11 271.06 174.54 272.15 173.04 272.15 171.19 271.06 169.69 269.3 169.11"/><polygon class="cls-5" points="285.77 171.33 283.21 169.85 280.64 171.33 280.64 174.29 283.21 175.77 285.77 174.29 285.77 171.33"/><rect class="cls-5" x="309.55" y="167.39" width="5" height="5"/><polygon class="cls-5" points="267.96 150.89 265.4 149.41 262.83 150.89 262.83 153.85 265.4 155.33 267.96 153.85 267.96 150.89"/><polygon class="cls-5" points="298 165.39 300.5 170.39 295.5 170.39 298 165.39"/><polygon class="cls-5" points="290 155.39 292.5 160.39 287.5 160.39 290 155.39"/><polygon class="cls-5" points="290.19 21.39 292.69 26.39 287.69 26.39 290.19 21.39"/><polygon class="cls-5" points="270.75 20.57 268.19 19.09 265.63 20.57 265.63 23.53 268.19 25.01 270.75 23.53 270.75 20.57"/><polygon class="cls-5" points="241.35 5.92 243.85 10.92 238.85 10.92 241.35 5.92"/><rect class="cls-5" x="224.85" y="5.42" width="5" height="5"/><polygon class="cls-5" points="238.54 30.09 235.98 28.61 233.41 30.09 233.41 33.05 235.98 34.53 238.54 33.05 238.54 30.09"/><polygon class="cls-5" points="285.47 40.28 283.7 40.86 282.62 42.36 282.62 44.21 283.7 45.71 285.47 46.28 287.23 45.71 288.32 44.21 288.32 42.36 287.23 40.86 285.47 40.28"/><polygon class="cls-5" points="214.09 147.75 216.59 152.75 211.59 152.75 214.09 147.75"/><polygon class="cls-5" points="230.66 145.22 228.09 143.74 225.53 145.22 225.53 148.18 228.09 149.66 230.66 148.18 230.66 145.22"/><polygon class="cls-5" points="199.77 137.9 202.27 142.9 197.27 142.9 199.77 137.9"/><polygon class="cls-5" points="173.23 29.71 171.47 30.28 170.38 31.78 170.38 33.63 171.47 35.13 173.23 35.71 175 35.13 176.09 33.63 176.09 31.78 175 30.28 173.23 29.71"/><polygon class="cls-5" points="268.76 102.18 266.19 100.7 263.63 102.18 263.63 105.14 266.19 106.62 268.76 105.14 268.76 102.18"/><polygon class="cls-5" points="187.19 37.66 185.43 38.23 184.34 39.73 184.34 41.59 185.43 43.09 187.19 43.66 188.96 43.09 190.05 41.59 190.05 39.73 188.96 38.23 187.19 37.66"/><rect class="cls-5" x="195.73" y="51.71" width="5" height="5"/><polygon class="cls-5" points="206.23 7.71 204.47 8.28 203.38 9.78 203.38 11.63 204.47 13.13 206.23 13.71 208 13.13 209.09 11.63 209.09 9.78 208 8.28 206.23 7.71"/><polygon class="cls-5" points="188.02 8.19 185.45 6.71 182.89 8.19 182.89 11.15 185.45 12.63 188.02 11.15 188.02 8.19"/><rect class="cls-5" x="193.99" y="17.72" width="5" height="5"/><polygon class="cls-4" points="197.05 30.89 197.05 33.89 194.05 33.89 197.05 33.89 197.05 36.89 197.05 33.89 200.05 33.89 197.05 33.89 197.05 30.89"/><rect class="cls-5" x="243.58" y="171.22" width="5" height="5"/><polygon class="cls-5" points="230.35 168.06 228.59 168.63 227.5 170.13 227.5 171.99 228.59 173.49 230.35 174.06 232.12 173.49 233.21 171.99 233.21 170.13 232.12 168.63 230.35 168.06"/><polygon class="cls-5" points="213.86 173.17 211.29 171.69 208.73 173.17 208.73 176.13 211.29 177.61 213.86 176.13 213.86 173.17"/><polygon class="cls-5" points="231.35 126.69 229.59 127.26 228.5 128.76 228.5 130.61 229.59 132.11 231.35 132.69 233.11 132.11 234.2 130.61 234.2 128.76 233.11 127.26 231.35 126.69"/><polygon class="cls-5" points="196.81 106.86 194.25 105.38 191.68 106.86 191.68 109.82 194.25 111.3 196.81 109.82 196.81 106.86"/><polygon class="cls-5" points="182.2 170.71 180.44 171.28 179.35 172.78 179.35 174.63 180.44 176.13 182.2 176.71 183.97 176.13 185.06 174.63 185.06 172.78 183.97 171.28 182.2 170.71"/><polygon class="cls-5" points="206.2 122.71 204.44 123.28 203.35 124.78 203.35 126.63 204.44 128.13 206.2 128.71 207.97 128.13 209.06 126.63 209.06 124.78 207.97 123.28 206.2 122.71"/><polygon class="cls-5" points="243.2 85.13 245.7 90.13 240.7 90.13 243.2 85.13"/><polygon class="cls-5" points="181.2 74.39 183.7 79.39 178.7 79.39 181.2 74.39"/><polygon class="cls-5" points="174.34 109.36 176.84 114.36 171.84 114.36 174.34 109.36"/><polygon class="cls-6" points="181.03 134.61 182.76 137.61 179.29 137.61 181.03 134.61"/><polygon class="cls-5" points="174.73 122.36 172.97 122.93 171.88 124.43 171.88 126.29 172.97 127.79 174.73 128.36 176.5 127.79 177.59 126.29 177.59 124.43 176.5 122.93 174.73 122.36"/><polygon class="cls-5" points="179.58 144.41 177.82 144.99 176.73 146.49 176.73 148.34 177.82 149.84 179.58 150.41 181.35 149.84 182.44 148.34 182.44 146.49 181.35 144.99 179.58 144.41"/><rect class="cls-3" x="177.26" y="99.81" width="2.83" height="2.83"/><rect class="cls-3" x="173.26" y="160.9" width="2.83" height="2.83"/><polygon class="cls-5" points="173.66 41.39 176.16 46.39 171.16 46.39 173.66 41.39"/><rect class="cls-5" x="170.55" y="88.39" width="5" height="5"/><polygon class="cls-5" points="183.5 50.87 180.94 49.39 178.38 50.87 178.38 53.83 180.94 55.31 183.5 53.83 183.5 50.87"/><polygon class="cls-5" points="176.34 61.35 178.84 66.35 173.84 66.35 176.34 61.35"/><polygon class="cls-5" points="199.51 162.13 202.01 167.13 197.01 167.13 199.51 162.13"/></g></g><polygon class="cls-7" points="163.28 59.74 168.79 63.47 166 61.58 163.28 59.74"/><polygon class="cls-7" points="174.11 65.27 179.21 66.01 180.77 66.11 175.91 65.53 174.11 65.27"/><polygon class="cls-7" points="180.77 66.11 182.83 66.24 185.28 66.34 185.28 66.34 180.77 66.11"/><polygon class="cls-7" points="159.27 89.11 159.27 87.88 159.27 90.06 159.27 89.11"/><polygon class="cls-7" points="157.43 86.92 155.39 85.97 159.27 87.88 157.43 86.92"/><polygon class="cls-7" points="175 87.77 175.02 88.04 175.56 87.27 175 87.77"/><polygon class="cls-7" points="175.14 89.72 175.63 93.71 175.9 95.86 175.02 88.04 175.14 89.72"/><polygon class="cls-7" points="156.69 49.3 157.67 51.6 156.3 48.36 156.69 49.3"/><polygon class="cls-7" points="177.13 86.15 176.8 86.39 177.46 85.97 177.13 86.15"/><polygon class="cls-7" points="189.26 70.68 189.44 76.76 189.38 68.36 189.26 70.68"/><polygon class="cls-7" points="186.67 66.42 188.82 66.86 187.64 66.48 186.67 66.42"/><path class="cls-7" d="M315,.47H16a16,16,0,0,0-16,16v148a16,16,0,0,0,16,16H145.06l.83-8.3v0l-3.41-32.36h0a162,162,0,0,1-1.65-16.54c-.05-1.83-1.58-3.6-3.09-5.28a9.19,9.19,0,0,1-5.9.43L88.59,106.49a5,5,0,0,1-1.38-.07,5.82,5.82,0,0,1-6.47-7.31v0C80.38,92.46,101,48.82,101,48.82h0L102.6,44l.45-1.3.1-.32,0,.06.16-.46,0-.12.53-3.95.19-1.87,0-1,.17-1.85,0-.49.14-1,.44-2.79.58-3.69.42-2.62.63-2.92.32-1.21.19-.55.45-.26.42.43.08,4.57.58.19.75-1.34L110.51,17l.83-2.37.72-.65.53.49-.81,7.21-.2,1.54.68-.08.68-2,1.68-4.82.73-1.13L116,15l.45.47.11,1.28-2.07,7.48.09.45.86-.6,1.88-3.51,1.12-2,.48-.36.45.05.17.23.11.42L115.43,31l.32.28,3.3-2.45,1.4-1.08,1.22.18-.28,1.15-6,9.69-6.86,12.61h0S98.49,79.83,94.2,94.68c12.41,1.28,38.51,4.87,42.3,5.86a9.65,9.65,0,0,1,1.61.59,17.27,17.27,0,0,1,3.95-1.57c.4-.12.87-.23,1.37-.33a49.77,49.77,0,0,1,7.85-1.13v0l.34,0h0L158,95.86l.62-.61.61-1.22V92.18l-.2,1.22-.41,1.24-.84,1.22-1.46.58-.42-.17-.17-.17-1.1-10,.72-.14-1.89-.88-2.22-2.74-3.69-2.46-.51-.11-.6-.34-1-1.15-2.81-3.88-1.07-1.79-1.53-3.17-1-3-.68-2.26-.57-3.37-.4-3.26-.14-2.69.11-3.24.2-1.78.26-2.58.39-3.41.64-3.28.55-1.82.44-1.12.81-1.54.55-.81.6-.84.52-.5.95-.79,1.23-.62,1-.64.64-.48.84-.11h1.84l.7-.2.5-.33.94-.91.47-.62.35-.56.33-.57.48-.57.86-.67.91-.49.72-.3,1.73-.54,1.54-.43.71-.19,1.1-.3,1-.24.74-.18.71-.19.72-.19.86-.23,1-.21,1-.15,1-.15h2.07l.68,0,1,.07,1,.11.84.12,1.24.2.8.16,1,.15.95.31,1.46.38L179,25l1,.39.91.39.82.4.81.43.68.38.87.54.84.45.32.36.83.64.72.59.59.51.58.54.55.54.67.71.47.52.58.69L191,34l.56.8.4.61.37.59.32.56.36.67.27.54.19.4.28.63.21.48.27.71.32.9.24.76.18.61.15.58.08.39.08,1.35.07,1.34,0,.86L195.4,48l0,1.07.11,2.13.09,1.88.07,1.55.06,1.36.05,1,0,1.07,0,.77v1L196,60.9l.06,1.5.08,1.07v1.28l-.59,1L194.92,67l-.64,1.39-.44,1.15-.48,1v.31L192.78,72l-1,1.92-.6,1.12-.42.78-.12.34-1.18.56h-1.9l-.73.85-3.32,3.93-3.17,2.88L177.46,86l.58-.13.33.07.36.45.16.29-.43,3.55-.65,5.06-.1.61-.72.78,2.12.78c1.34.07,2.61.16,3.82.27v0s8.29.67,8.91,1.9a32.46,32.46,0,0,1,5.05.92c5.91-1.2,29.69-4.45,41.38-5.66C234,80,223.93,51.52,223.93,51.52h0l-6.85-12.61-6-9.69-.28-1.15L212,27.9,213.42,29l3.31,2.45.32-.28-4.22-12.09.11-.42.16-.23.46,0,.48.35,1.12,2L217,24.18l.86.6.09-.45-2.07-7.47.11-1.29.45-.47.65.21.73,1.13,1.68,4.82.68,2,.68.08-.2-1.54-.81-7.2.53-.5.72.65.83,2.37,1.29,4.47L224,23l.58-.2.08-4.57.42-.43.45.26.19.56.32,1.2.63,2.92.42,2.63.58,3.68.44,2.79.13,1,0,.49.18,1.85,0,1,.19,1.87.53,3.95,0,.12.16.46,0-.06.1.32.44,1.3L231.51,49h0s20.6,43.64,20.24,50.25v0a5.83,5.83,0,0,1-3.76,7.07,5.73,5.73,0,0,1-2.71.24,5,5,0,0,1-1.38.07l-43.25,11.89a9.15,9.15,0,0,1-5.75-.37,19.89,19.89,0,0,0-1.2,5.07c-.46,4.44-1.26,9.27-2.13,14.25,0,1,0,1.61,0,1.61l-4,33.18v0l1,8.17H315a16,16,0,0,0,16-16v-148A16,16,0,0,0,315,.47Z"/><path class="cls-8" d="M145.89,172.14v0Z"/><path class="cls-8" d="M142.06,99.56c.45-.13.91-.23,1.37-.33C142.93,99.33,142.46,99.44,142.06,99.56Z"/><path class="cls-8" d="M191.56,137.47c.87-5,1.67-9.81,2.13-14.25a19.89,19.89,0,0,1,1.2-5.07,9.28,9.28,0,0,1-2.92-1.87C191.85,124.69,191.64,133.84,191.56,137.47Z"/><path class="cls-8" d="M137.74,118c1.51,1.68,3,3.45,3.09,5.28a162,162,0,0,0,1.65,16.54L142.21,114A9.19,9.19,0,0,1,137.74,118Z"/><path class="cls-8" d="M187.51,172.3v0Z"/><path class="cls-8" d="M160.5,119.84h11.68l6.71-6.24,4-15.9c-1.21-.11-2.48-.2-3.82-.27l-27.49.66-.34,0,1.95,15.48Z"/><path class="cls-8" d="M196,100.68c.22-.06.55-.13.92-.2a32.46,32.46,0,0,0-5.05-.92,18.16,18.16,0,0,1,.18,3.29A9.21,9.21,0,0,1,196,100.68Z"/><path class="cls-8" d="M142.12,104.79l-.06-5.23a17.27,17.27,0,0,0-3.95,1.57A9.25,9.25,0,0,1,142.12,104.79Z"/><path class="cls-8" d="M101,48.83a1.63,1.63,0,0,1,.07-.3,4,4,0,0,1,7.57,2.56c0,.1-.09.18-.13.28h0l6.86-12.61,6-9.69.28-1.15-1.22-.18-1.4,1.08-3.3,2.45-.32-.28,4.22-12.09-.11-.42-.17-.23-.45-.05-.48.36-1.12,2L115.44,24l-.86.6-.09-.45,2.07-7.48-.11-1.28L116,15l-.65.21-.73,1.13-1.68,4.82-.68,2-.68.08.2-1.54.81-7.21-.53-.49-.72.65L110.51,17l-1.29,4.47-.75,1.34-.58-.19L107.81,18l-.42-.43-.45.26-.19.55-.32,1.21-.63,2.92-.42,2.62-.58,3.69-.44,2.79-.14,1,0,.49L104,35l0,1-.19,1.87-.53,3.95,0,.12-.16.46,0-.06-.1.32L102.6,44,101,48.81h0Z"/><path class="cls-8" d="M108.75,48.9a4,4,0,0,0-7.67-.37,1.63,1.63,0,0,0-.07.3l7.51,2.54c0-.1.09-.18.13-.28A4,4,0,0,0,108.75,48.9Z"/><path class="cls-8" d="M86.75,94.83A1.68,1.68,0,0,1,88,94.22a58.55,58.55,0,0,1,6.24.46c4.29-14.85,14.35-43.3,14.35-43.3h0L101,48.83h0S80.38,92.46,80.74,99.07v0l.09-.33A5.85,5.85,0,0,1,86.75,94.83Z"/><path class="cls-8" d="M87.21,106.42a5,5,0,0,0,1.38.07l-.72-.2A4.53,4.53,0,0,1,87.21,106.42Z"/><path class="cls-8" d="M86.2,105.83s-1.6-8.61.55-11a5.85,5.85,0,0,0-5.92,4l-.09.33a5.82,5.82,0,0,0,6.47,7.31,4.53,4.53,0,0,0,.66-.13Z"/><path class="cls-8" d="M125.25,107.13a9.21,9.21,0,0,1,11.25-6.59c-3.79-1-29.89-4.58-42.3-5.86A58.55,58.55,0,0,0,88,94.22a1.68,1.68,0,0,0-1.21.61c-2.15,2.39-.55,11-.55,11l1.67.46.72.2,43.25,11.89A9.21,9.21,0,0,1,125.25,107.13Z"/><path class="cls-8" d="M142.21,114l-.09-9.16a9.25,9.25,0,0,0-4-3.66,9.65,9.65,0,0,0-1.61-.59A9.22,9.22,0,1,0,142.21,114Z"/><path class="cls-8" d="M223.83,51.23a4,4,0,1,1,7.57-2.56c0,.1,0,.2.07.3h0l-1.64-4.85-.44-1.3-.1-.32,0,.06-.16-.46,0-.12L228.62,38l-.19-1.87,0-1-.18-1.85,0-.49-.13-1L227.68,29l-.58-3.68-.42-2.63-.63-2.92-.32-1.2-.19-.56-.45-.26-.42.43-.08,4.57L224,23l-.75-1.35L222,17.13l-.83-2.37-.72-.65-.53.5.81,7.2.2,1.54-.68-.08-.68-2-1.68-4.82-.73-1.13-.65-.21-.45.47-.11,1.29L218,24.33l-.09.45-.86-.6-1.88-3.51-1.12-2-.48-.35-.46,0-.16.23-.11.42,4.22,12.09-.32.28L213.42,29,212,27.9l-1.22.17.28,1.15,6,9.69,6.85,12.61h0C223.92,51.42,223.87,51.33,223.83,51.23Z"/><path class="cls-8" d="M230.56,47.24a4,4,0,0,0-6.73,4c0,.1.09.19.13.28L231.47,49c0-.1,0-.2-.07-.3A4,4,0,0,0,230.56,47.24Z"/><path class="cls-8" d="M243.89,106.63a5,5,0,0,0,1.38-.07,5,5,0,0,1-.67-.13Z"/><path class="cls-8" d="M244.52,94.36a1.74,1.74,0,0,1,1.21.61,5.83,5.83,0,0,1,5.91,4c0,.11.07.22.1.33v0C252.1,92.6,231.5,49,231.5,49h0L224,51.51h0S234,80,238.28,94.82A58.55,58.55,0,0,1,244.52,94.36Z"/><path class="cls-8" d="M245.73,95c2.15,2.39.55,11,.55,11l-1.68.46a5,5,0,0,0,.67.13,5.73,5.73,0,0,0,2.71-.24,5.83,5.83,0,0,0,3.76-7.07c0-.11-.06-.22-.1-.33A5.83,5.83,0,0,0,245.73,95Z"/><path class="cls-8" d="M207.23,107.27a9.21,9.21,0,0,1-6.59,11.25l43.25-11.89.71-.2,1.68-.46s1.6-8.61-.55-11a1.74,1.74,0,0,0-1.21-.61,58.55,58.55,0,0,0-6.24.46c-11.69,1.21-35.47,4.46-41.38,5.66-.37.07-.7.14-.92.2A9.22,9.22,0,0,1,207.23,107.27Z"/><path class="cls-8" d="M207.23,107.27a9.22,9.22,0,0,0-15.2-4.42c.05,3.13,0,8.12-.06,13.43a9.28,9.28,0,0,0,2.92,1.87,9.21,9.21,0,0,0,12.34-10.88Z"/><path class="cls-9" d="M187.51,172.28v0l4-33.18s0-.59,0-1.61c.08-3.63.29-12.78.41-21.19.07-5.31.11-10.3.06-13.43a18.16,18.16,0,0,0-.18-3.29c-.62-1.23-8.91-1.9-8.91-1.9v0l-4,15.9-6.71,6.24H160.5l-7.27-6.24-1.95-15.48v0a49.77,49.77,0,0,0-7.85,1.13c-.46.1-.92.2-1.37.33l.06,5.23.09,9.16.27,25.82h0l3.41,32.36h0v0l-.83,8.3h43.43l-1-8.17Z"/><polygon class="cls-8" points="176.99 96.65 175.9 95.86 175.63 93.71 175.14 89.72 175.02 88.04 175.02 88.04 175.02 88.04 175 87.77 175.56 87.27 176.8 86.39 176.8 86.39 177.13 86.15 177.46 85.97 177.46 85.97 177.46 85.97 180.32 84.42 183.49 81.54 186.81 77.61 187.54 76.76 189.44 76.76 189.26 70.68 189.38 68.36 188.82 66.86 186.67 66.42 185.28 66.34 182.83 66.24 180.77 66.11 180.77 66.11 180.77 66.11 179.21 66.01 174.11 65.27 171.44 64.37 168.79 63.47 163.28 59.74 160.31 56.33 157.67 51.6 156.69 49.3 156.3 48.36 156.06 47.79 155.1 49.24 153.62 52.95 150.99 60.06 149.23 63.89 146.96 66.89 146.12 67.93 145.5 69.5 147.59 79.89 151.28 82.35 153.5 85.09 155.39 85.97 155.39 85.97 155.39 85.97 157.43 86.92 159.27 87.88 159.27 89.11 159.27 90.06 159.27 92.18 159.27 94.03 158.66 95.25 158.04 95.86 151.59 98.09 151.62 98.09 179.11 97.43 176.99 96.65"/><polygon points="159.27 87.88 155.39 85.97 155.39 85.97 155.39 85.97 154.67 86.11 155.77 96.1 155.94 96.27 156.36 96.44 157.82 95.86 158.66 94.64 159.07 93.4 159.27 92.18 159.27 90.06 159.27 87.88"/><polygon points="177.46 85.97 176.8 86.39 176.8 86.39 175.56 87.27 175.02 88.04 175.02 88.04 175.02 88.04 175.9 95.86 176.99 96.65 177.71 95.87 177.81 95.25 178.46 90.2 178.89 86.65 178.73 86.36 178.37 85.91 178.04 85.84 177.46 85.97 177.46 85.97 177.46 85.97"/><polygon points="146.12 67.93 146.96 66.89 149.23 63.89 150.99 60.06 153.62 52.95 155.1 49.24 156.06 47.79 156.3 48.36 157.67 51.6 160.31 56.33 163.28 59.74 166 61.58 168.79 63.47 171.44 64.37 174.11 65.27 175.91 65.53 180.77 66.11 180.77 66.11 180.77 66.11 185.28 66.34 185.28 66.34 186.67 66.42 187.64 66.48 188.82 66.86 189.38 68.36 189.44 76.76 190.62 76.2 190.74 75.86 191.16 75.08 191.76 73.96 192.78 72.04 193.37 70.86 193.36 70.55 193.84 69.52 194.28 68.37 194.92 66.98 195.53 65.75 196.13 64.75 196.12 64.14 196.13 63.47 196.05 62.4 195.99 60.9 195.91 59.84 195.91 58.89 195.88 58.12 195.83 57.05 195.78 56 195.72 54.64 195.65 53.09 195.56 51.21 195.45 49.08 195.4 48.01 195.34 46.75 195.3 45.89 195.23 44.55 195.16 43.2 195.07 42.81 194.92 42.23 194.74 41.62 194.5 40.86 194.18 39.95 193.91 39.25 193.71 38.77 193.42 38.14 193.23 37.74 192.96 37.2 192.6 36.53 192.28 35.97 191.91 35.38 191.51 34.77 190.95 33.97 190.24 33.05 189.66 32.36 189.19 31.84 188.52 31.13 187.97 30.59 187.39 30.05 186.8 29.54 186.09 28.95 185.25 28.31 184.93 27.95 184.09 27.5 183.22 26.96 182.54 26.57 181.73 26.15 180.91 25.75 180 25.36 179.01 24.97 178.28 24.65 176.82 24.27 175.87 23.96 174.89 23.81 174.09 23.66 172.85 23.45 172.01 23.33 171.02 23.22 170.03 23.15 169.35 23.12 168.27 23.11 167.28 23.11 166.26 23.26 165.26 23.41 164.21 23.62 163.35 23.85 162.63 24.04 161.92 24.23 161.19 24.41 160.16 24.65 159.06 24.95 158.35 25.14 156.81 25.57 155.08 26.11 154.35 26.41 153.45 26.9 152.59 27.57 152.11 28.14 151.78 28.71 151.43 29.27 150.96 29.89 150.02 30.8 149.52 31.13 148.82 31.33 148.28 31.33 147.59 31.33 146.98 31.33 146.14 31.44 145.5 31.91 144.52 32.56 143.29 33.18 142.34 33.97 141.82 34.47 141.22 35.31 140.67 36.12 139.86 37.66 139.42 38.78 138.87 40.6 138.23 43.88 137.84 47.29 137.58 49.87 137.38 51.65 137.27 54.89 137.41 57.58 137.81 60.84 138.38 64.21 139.06 66.47 140.09 69.45 141.62 72.62 142.69 74.41 145.5 78.29 146.48 79.44 147.08 79.78 147.59 79.89 145.5 69.5 146.12 67.93"/></g></g></g></g></svg>